/* XPM */
static char *_fdd450e83cb4a389e2fb84eb8bfbffacFgxNBL1gi8ZibRV[] = {
/* columns rows colors chars-per-pixel */
"64 64 122 2 ",
"   c #8C1C68",
".  c #92146B",
"X  c #96196E",
"o  c #991D71",
"O  c #92236D",
"+  c #952670",
"@  c #9E2375",
"#  c #972972",
"$  c #9C2E76",
"%  c #9F3178",
"&  c #A12778",
"*  c #A52C7C",
"=  c #A82F7E",
"-  c #A2347C",
";  c #A9307F",
":  c #A6387F",
">  c #AC3382",
",  c #A63980",
"<  c #AC3E84",
"1  c #B03785",
"2  c #B13986",
"3  c #B53C8A",
"4  c #B83F8C",
"5  c #C13F88",
"6  c #BB428E",
"7  c #BE4591",
"8  c #C5438C",
"9  c #C8478F",
"0  c #C14C8E",
"q  c #C04793",
"w  c #C34A95",
"e  c #CD4B93",
"r  c #C64D98",
"t  c #C84F9A",
"y  c #D04F96",
"u  c #C65192",
"i  c #CA5495",
"p  c #CB529C",
"a  c #CE5899",
"s  c #D25097",
"d  c #D5539A",
"f  c #D9569D",
"g  c #D35C9E",
"h  c #DA589F",
"j  c #CE55A0",
"k  c #D057A2",
"l  c #D65FA0",
"z  c #DD5BA1",
"x  c #D85EA9",
"c  c #E15EA4",
"v  c #CB67A2",
"b  c #D760A1",
"n  c #DA63A4",
"m  c #D06CA7",
"M  c #DF67A8",
"N  c #D26EA9",
"B  c #DF68A9",
"V  c #D671AC",
"C  c #D974AE",
"Z  c #DC76B1",
"A  c #D67DB0",
"S  c #DE79B4",
"D  c #E360A7",
"F  c #E663A9",
"G  c #E966AC",
"H  c #E068A9",
"J  c #E16AAB",
"K  c #E26BAC",
"L  c #E36BAC",
"P  c #E56DAE",
"I  c #EB68AE",
"U  c #E76FB0",
"Y  c #E971B2",
"T  c #EB72B3",
"R  c #EB73B4",
"E  c #EE75B6",
"W  c #E07AB5",
"Q  c #E17BB6",
"!  c #E27CB7",
"~  c #E37DB8",
"^  c #E47EB9",
"/  c #E57EB9",
"(  c #E57FBA",
")  c #E67FBA",
"_  c #F077B8",
"`  c #DB82B5",
"'  c #DF86B9",
"]  c #E680BB",
"[  c #E780BB",
"{  c #E681BB",
"}  c #E187BA",
"|  c #E781BC",
" . c #E881BD",
".. c #E882BD",
"X. c #E983BE",
"o. c #EB84BF",
"O. c #E38ABC",
"+. c #E58BBE",
"@. c #E68CBF",
"#. c #EB85C0",
"$. c #EC85C0",
"%. c #EC85C1",
"&. c #EE87C2",
"*. c #E78DC0",
"=. c #EF88C3",
"-. c #E88EC1",
";. c #E98FC2",
":. c #F18AC5",
">. c #F38CC7",
",. c #F48DC8",
"<. c #F58EC9",
"1. c #EA90C3",
"2. c #EC91C4",
"3. c #EC92C5",
"4. c #EF95C8",
"5. c #F196C9",
"6. c #F196CA",
"7. c #F991CC",
"8. c #F991CD",
"9. c #F398CC",
"0. c #F499CD",
"q. c #FA9FD2",
/* pixels */
"b g n g J n b n z d f d M g g B z f s e g b b P &.^ =.^ > * > 6 > * > * 7 3 w w 2 4 X 3 l g g g < q q 4 f f e f W W W =.n l n n ",
"n b g g n n b M d s d z b g b g y s h f g n n n =.^ Z >.> @ * 2 2 > 2 > 7 r r 3 o & > * n l d g 4 1 r w f s w s &.W ....l J H n ",
"n n l n M b n n f f s f n b R a d f f d n g g b :.^ C ..> > > 2 = 3 7 > 7 r p 6 2 2 > > g l l l 7 7 q 8 z s f f W Z W ^ g g l n ",
"n a b n b J b J y s e z n E a g d c c d n b b g Z S ! ~ 2 3 > > @ * > > 3 6 w p > > 2 2 J n n J 6 7 r 7 z f s e ^ ^ W W l J 0 n ",
"^ ^ [ ..n B M g T B g b s d h s n J n b Z ..^ ..1.' @.-.d f f s > > > > > > * > q q q 6 t 4 7 4 6 > 7 > 7 7 7 r * > & > ^ C ^ ^ ",
"..S S ~ n b b b J b T b z y e z J n g n ~ ^ W ! @.9.-.1.y z c e > 2 > 2 > & > * 6 6 q 4 3 4 6 k 7 > 2 * t 7 r 7 1 > = * ..V Z W ",
"| [ ~ ~ n b b b n n g P d d f d l n g n ~ S <.S 3.-.@.-.d z e d > 2 > @ 1 1 1 > 6 6 p t 6 t 6 6 > > 2 > 7 2 3 7 * > > 3 o.=.o.W ",
"#...^ S b J n M g b n b d z 8 F g n a l W &.S <.O.6.@.} c f z d * 7 > & > > 3 1 6 q q w r q 3 t * 2 > 3 7 r t 7 3 = 3 > o.=.Z N ",
"! ^ ! ^ o...| C S ~ [ ~ =.o.#.^ [ [ Z ! 1.} @.` #.^ ..^ V S ~ S w w w 7 > 1 > > w 3 t 2 q 6 6 r t 7 6 w r 6 6 r c f I f n n g n ",
"! [ [ | o.Z :.o.| | S #...S ..! ! [ V | ' 3.3.*.W ^ &.^ Z 8.| ^ 7 w 7 w > 4 > > 6 7 w 4 q 1 r 7 w 7 r 7 w 7 7 6 e y d s l g l l ",
"! N #.! | #.V | ! ! ~ S S [ Z Z [ W o.^ O.1.' O.&.W ....~ ~ ..^ 7 w 7 t > * > > 4 r 7 7 w 7 6 w 7 t 6 7 6 6 6 6 y e y 8 l g n J ",
"o.! C ~ ,.| ..o.Z ~ [ | ~ S | #.^ V [ W *.*.4.@.S ~ S ^ ~ S V ~ 2 7 p 7 > 2 > 1 7 7 7 7 6 6 w 6 7 6 t 6 r 6 p 3 d f d s l n l l ",
"[ [ =.[ n l b g 6 7 k w 6 7 7 p 3 7 r 3 y e z z g P b g =.| <.V 6.@.*.O.U l n g 6 7 6 3 t w q r g b P B o.=.Z [ g n g g z y e h ",
"[ S [ ! M n n b 7 w q 6 7 6 6 w q q 6 w f d d c a i n n | | Z &.*.q.3.A M l J n 7 7 4 7 t q 7 r B i n b V ~ ~ ] n n B e f d f d ",
"! [ [ [ l g a g 7 7 6 6 r 7 p r 7 3 6 2 d f f z b g a n S Z ..S 6.*.3.3.l n J M q 7 3 6 7 r 6 7 g J g J ..[ >.! b b n J f s h d ",
"[ ! | ! l T n b w 6 k > 2 r 3 w 4 3 q w s h f d E a a M Z &.| V 3.6.-.} M n P l w 4 7 w 2 4 4 r b n B u ! o.[ S B n J i d D z f ",
"b b n a 3 r r 7 $ # $ , O - + < > > * > * 2 > * p p 7 2 l l g M ^ ^ S ..-.3.-.-.-.@.0.3.^ ~ ^ Z W ^ Z ^ l J n g 2 ; < 1 7 7 4 6 ",
"M B i b 6 w < p $ $ $ - - $ - $ = > > & > > 3 r 7 w w w _ g n n W m ^ W @.-.3.' -.' 6.-...S &.^ C ^ W W P J g d > > > > r 7 q 6 ",
"i i b l 6 7 r w $ $ $ O $ $ % O > 3 * > > > & > w w 7 7 n b b L W ! S ^ 6.-.6.3.` 4.-.} W W C #...| &.W b n l n 3 > 3 > 6 3 3 q ",
"b a n n 7 7 7 7 , - $ $ $ + : $ > = > = 3 > * > 7 7 7 7 l l b g W ^ S ^ @.-.@.3.-.} *.@.^ W S | W C ^ ..n g g J * > ; ; 7 q 3 7 ",
"n r 7 6 + : +   > > > > q w 7 r > * > > r 7 r 7 > * > 3 e z D z g n n b n a J a ..| W ^ -.} } 1.b g b n : + $ - 1 2 > > r q q 6 ",
"t w r 7 $ $ O $ > * 2 > 7 7 r t > 2 & > 7 r r r 2 > > > z f f y M P J b a J n g =.^ ^ ^ 6.*.*.@.n n b l - - $ O > 4 2 > r 6 w r ",
"t 7 7 r - - $ + > > > > r 7 7 4 > * > * w > j 2 3 & > > z d f 9 n a g l J J g M S ^ ^ V -.3.0.O.g n J P   O : + * > > > q q q 6 ",
"3 t w 3 - $ $   2 = > > q q 7 w > & > > 6 7 4 4 3 > * > z d z z g J M n n l n l N <.W ..*.*.*.} g i g n $ $ : : 3 3 4 > 2 q q r ",
"3 7 7 r > > 2 > 3 7 3 7 3 t w r 7 r 3 w p 7 2 r d f f s l g n b 6 w t 7 r 4 6 w n M n n V o.S | 7 7 r 3 % $ $ % 4 4 7 7 7 7 7 r ",
"7 2 r 3 3 > > > 7 6 r p p q t w 6 7 w w x r w 7 f f f f b g M a 7 q 1 r 7 q 6 r n a M a ^ S ^ ~ 7 7 7 w % - # # r t 4 4 7 w 7 7 ",
"7 7 7 7 & & 3 3 w 7 3 r k 6 7 w w w 3 w 7 7 7 w f s e d a M M l q 4 7 3 6 q 6 7 n n n a &.| Z W 7 6 7 7 % - % % 7 4 w r 4 7 r r ",
"7 t 3 7 3 3 > > 6 w w j r 3 r 7 3 6 4 3 w 7 r w s F e f n g n i p t w 7 q q t r g T n n S N ! ..6 7 w w $ : # % w w w 3 7 w 4 r ",
"b R g n * > r 2 7 7 6 w e f d f w 3 w 7 9 9 f e ..^ S Z 7 w 6 7 h D 9 d f f y d V V ^ ~ W W o.^ o.S ..^ 7 w 7 3 6 7 7 w J g H d ",
"g k n n 2 ; ; 2 p w r > d z e z 6 7 4 7 d d z z S | W :.3 7 6 6 d h 9 c f y d f | ..~ S ^ | ~ ^ ^ ! S ^ 7 6 r p 6 7 3 7 H g n g ",
"g B g b ; > * & r w 7 7 f s f d w 2 p r f z d y W ~ :.^ 7 w > r f f y z d h z e S #.~ S #.^ ^ N ^ Z ^ ..6 6 w 6 6 7 7 7 g a a g ",
"n a b l 2 r @ > 7 w 2 2 d f z s w w 7 6 s e s e ^ ! | W w 7 r 6 d D 8 d h e y z S | | ~ W ^ W ~ ^ =.^ ^ p 6 6 w p w 7 > L n n n ",
"M g M J d f 8 z > * > ; r 6 3 6 E n b J [ [ C Z g g n b e d z s f y d y W Z ^ C ^ &.Z ..r q q 6 y 9 f d V S ..Z ~ W #.~ S ^ S S ",
"P g g b e h e f > @ > > 7 2 r 2 J J n g ~ ! C >.g J g k 9 I z d D f d f C 8.~ N ..&.W [ r 7 6 r e e h s [ W ^ [ | :.~ ~ Z W ^ :.",
"g g n g f e e f > ; ; > r q q q J g b n [ :.[ C b b b J 9 d s s s c f d C ..W ^ o.<.W ..2 3 7 q h z s y &.Z ..C ~ Z #.&.o.^ ^ =.",
"g M g n d f d e > = * ; q q q 7 U n n M =.S ^ :.b n g a d z z s F h e y =.:.:.W C W W ^ 7 r 6 4 d s e d ^ [ :.^ | ~ | ^ &...! <.",
"-.-.9.-.Z ^ | W i b n n V ..S S :.8.[ <.i n g n C ^ W [ ^ W ! ! :.^ ....e d c c w > r 6 G d d y f h f f r w w w I c f f M n n n ",
"@.@.1.O.[ o.^ ^ n g n n ^ ^ [ | ^ ^ ~ Z n g n n [ ..[ o.[ [ ^ ! ^ ^ W ^ z f f d 7 t 1 3 9 d c d 9 z d c q ; 3 7 s s d s g b l n ",
"@.A @.@.o.o.<.S g g n g ^ ^ W 8...! ! ~ g b g P V ^ ! ^ ..Z ^ ~ ^ W o.^ y d f z r 4 q r c d e f y h y h q 6 r 8 f c f s M J U n ",
"q.` 3.@.[ 8.Z C g g g P <...^ :.=.[ o.[ n n g b ! [ ^ C ..^ [ o.:.! N ..e f d e 4 6 4 6 z y f f d d 8 e q p 2 & e 9 z e b g n n ",
"..[ S ^ M L n n 3.} 3.1.*.3.-.-.' 1.@.1...| ..:.n l l g f s s F q 6 6 6 q 6 w r h h f h R g g J f z f f D z c z w w 6 w f f 9 c ",
"^ [ &.[ n g n n 2.} @.5.1.3.*.1.-.1.9.-.^ S ^ ^ M n l n y w f d 7 2 r 6 q 6 p 7 f f y y n g n g f z s e f e z s 7 2 7 w z f e z ",
"[ ..W &.g M g n 1.1.3.1.@.5.1.O.*.4.-.' [ [ ^ ^ n n l M d e e e t r w q t r 6 q c y d d g n g n f e z f G z s z w t w j e f f f ",
"Z ^ ..^ J n n n @.2.1.O.} @.0.O.4.O.*.1.~ ! [ ^ l n l l s d d d r 6 q 6 = 6 r 6 D 9 F d n n g n z e s f z z d z r 7 7 7 e e e s ",
"M g T b > @ 6 > > > 2 > g J g J &.! S ! -.1.6.1.| ~ ~ ~ d s s d q q 6 7 n n n P n g l J d f f y M b n b d d d d 0 a J b M g l M ",
"b n b J > 3 7 w 2 * * > n g T _ ..! ! Z 6.} 1.1.#.~ ~ | d e f e 6 w 4 7 i n 0 n g J n i c d f z b U n l e s z z l g J l a n b J ",
"n P b p < > > > 2 6 & 2 a n n l ^ ..&.m 2.6.@.1.S Z #.| e z D I r 7 6 3 g J l P J P n n y c c d n M l J f f z y n n n n g 0 b M ",
"l i M n > 3 2 & > ; 2 > P g b g ^ S S [ 1.3.@.@.Z | S [ d s e s 7 r w 4 g g n g n g n g d D d d b b J n e e z d n n l b n l P b ",
"* > 3 @ > > 1 > t r 4 r * > & > r p 7 r ! #.W #.W &.^ ! ~ S | ~ e d y y g P l H z s d f g n J u s e f d S #.[ =.| S ~ S J l l i ",
"> > 2 > > * > & 7 w 7 7 > > > & 7 j 7 7 #.S :.#.Z Z =.W S Z ~ =.d f d y n g J n d h e c J l l n z f d z ^ #.| ^ ..^ [ S B n l B ",
"@ * > > > X 2 > w 7 7 w > 1 3 1 7 7 7 7 Z #.S &.! ! [ S S ~ :.#.d d d d P g n i y z f s l n M l d 9 s F S [ S ~ ^ S Z ! b n P b ",
"* 2 > 6 3 * * > 3 t w w > * 1 > 7 t 7 r S Z #.W ~ #.^ #.S ~ Z ~ d f s s _ L U n d d s c g J n n d z F z ..^ Z ^ =.W ! | n B g M ",
"> > 2 > p 4 7 7 6 > 7 7 & 1 @ 3 7 1 1 > 7 6 w > ! S [ ~ b M U l =...^ ^ h c f d J g g l h h f f ~ C [ #.1.*.-.*.g P g n r 7 7 > ",
"2 . 2 & 7 t w 3 7 w 7 > w > > > > 1 > 3 7 j 7 7 ~ N ~ #.l l l l &...W o.h d d f l J l g 5 d c c ! W ....@.-.} 9.g n g k 7 3 r 7 ",
"> > > > 7 t 7 2 3 r w 7 2 & 1 1 @ > 1 > 7 6 3 3 [ | S S L B n l ..W W C d y f y n n n H e f f z ^ W ~ ^ ` 3.-.@.g g B B 3 w 3 p ",
"* > > * 7 7 3 7 r 7 7 7 3 > > o 3 > > 2 w 2 > 3 ~ :.^ ! U n n l Z W ....f y z e L l L n s f f f &.! [ :.*.6.@.9.n g n g 7 r r 7 ",
"q q w 6 s d d c 7 r 3 7 z h h d 7 1 p 7 1 3 > > ^ Z ..) W C ..Z g n g n o...Z :.W :.Z W Z W ! :.P l B l b g n M w 7 6 w d c F y ",
"r q r r f d d c 7 7 1 w s w d y w 7 q 3 1 > > 1 <.W ) Z W W W Z n n g n ^ ^ ^ ..W ^ ..^ ^ C Z ^ J J P n n g g n 7 6 6 6 d z h y ",
"w 6 w 2 d f y 8 7 w 7 7 y f d d 7 7 7 w > 1 3 > ..W [ ..Z ^ W &.l n P g C Z W &.C ^ N ......Z &.b g P g n T l n 7 p 3 3 d d e f ",
"7 r r 6 e f y y 7 p 7 w f f f c 3 w t t > > 3 > W ^ :.<.^ ..&.^ n n n n ..! ^ :.....^ ^ ^ <.W W g n n M b P R g w p 7 7 e d h s ",
"g b b n p q 6 4 n l n b y d d s 3 2 > 1 n n g g W &.Z N n g b M r r w p q r 7 6 l i g J l n b l n M b M f f f f s d d f w p p 7 ",
"b E b J 7 6 6 r J n g n h c f f 2 > 3 > g n n J C ^ S W M n n P t q 7 4 r 6 q 6 b n n g P n J n b g n J d d z d f 9 z e 7 r r 7 ",
"u a g b 4 r t r n i J g y y y f * > * 6 l l n M v :.V <.J n g g w 6 q q q q 6 q g J b b b n n n J b a n y s f y d s d y w r 3 w ",
"b n b g q q w 7 l n b n s z e f > @ 2 2 n n M n ..^ ^ ^ g g n n 7 r r 2 q 7 r q n n n l n U b P B g g l z d z d d z s s 3 w 6 2 "
};
