/* XPM */
static char *dc63381f7ed84f69e06379a51114c77dOid0TYY9TKa1ffF5[] = {
/* columns rows colors chars-per-pixel */
"64 64 147 2 ",
"   c None",
".  c #003301",
"X  c #003906",
"o  c #023D0B",
"O  c #004D03",
"+  c #06400E",
"@  c #08410F",
"#  c #005107",
"$  c #00550B",
"%  c #00580F",
"&  c #0B4311",
"*  c #104715",
"=  c #124916",
"-  c #154B19",
";  c #1A4F1C",
":  c #035C13",
">  c #095F16",
",  c #1C511E",
"<  c #0B6017",
"1  c #0E6118",
"2  c #13651C",
"3  c #18681F",
"4  c #1F5421",
"5  c #1B6A21",
"6  c #216E25",
"7  c #237027",
"8  c #257228",
"9  c #2A762C",
"0  c #7C9F3B",
"q  c #83A641",
"w  c #86A944",
"e  c #89AC47",
"r  c #8BAE49",
"t  c #8EB14C",
"y  c #91B44E",
"u  c #8EAD53",
"i  c #90AF55",
"p  c #93B552",
"a  c #96B954",
"s  c #99BC56",
"d  c #95B45A",
"f  c #98B75D",
"g  c #9AB95E",
"h  c #ADB056",
"j  c #B1B459",
"k  c #B6B95E",
"l  c #B8BA5F",
"z  c #9EBC62",
"x  c #A0BF64",
"c  c #BBBE63",
"v  c #9DC15B",
"b  c #A1C45E",
"n  c #A2C166",
"m  c #A6C569",
"M  c #A8C76B",
"N  c #AAC96E",
"B  c #BFC166",
"V  c #BFC169",
"C  c #ADCC71",
"Z  c #B0CF73",
"A  c #B2D175",
"S  c #B5D478",
"D  c #C0C367",
"F  c #C5C76C",
"G  c #C5C76F",
"H  c #C3C66B",
"J  c #C6C86C",
"K  c #C7C96D",
"L  c #C6C96D",
"P  c #C7C96E",
"I  c #C7CA6E",
"U  c #C7C96D",
"Y  c #C8CA6E",
"T  c #C9CB6F",
"R  c #C8CB6F",
"E  c #C9CB6F",
"W  c #C6C970",
"Q  c #C9CB73",
"!  c #CACC70",
"~  c #CBCD71",
"^  c #CBCD70",
"/  c #CCCE71",
"(  c #CCCE72",
")  c #CDCF72",
"_  c #CDCF73",
"`  c #CECF73",
"'  c #CBCD74",
"]  c #CBCD75",
"[  c #CACC74",
"{  c #CCCE75",
"}  c #CCCE76",
"|  c #CDCF76",
" . c #CDCF77",
".. c #CBCD72",
"X. c #CED073",
"o. c #CED074",
"O. c #CFD074",
"+. c #CFD174",
"@. c #CFD175",
"#. c #CED077",
"$. c #CED075",
"%. c #CED078",
"&. c #CFD178",
"*. c #CFD178",
"=. c #D0D275",
"-. c #D0D276",
";. c #D1D376",
":. c #D1D377",
">. c #D2D477",
",. c #D1D376",
"<. c #D0D279",
"1. c #D1D37A",
"2. c #D2D478",
"3. c #D3D578",
"4. c #D2D47B",
"5. c #D4D579",
"6. c #D4D679",
"7. c #D4D67A",
"8. c #D5D77A",
"9. c #D3D57C",
"0. c #D4D57C",
"q. c #D4D67D",
"w. c #D5D77D",
"e. c #D5D77E",
"r. c #D2D47B",
"t. c #D6D87B",
"y. c #D7D87C",
"u. c #D7D97C",
"i. c #D6D87E",
"p. c #D6D87F",
"a. c #D6D87E",
"s. c #D9DB7E",
"d. c #D7D980",
"f. c #D7D980",
"g. c #D9DB81",
"h. c #D9DB82",
"j. c #DADC82",
"k. c #DBDD84",
"l. c #DDDF85",
"z. c #DADC82",
"x. c #DEE086",
"c. c #E2E386",
"v. c #E2E48A",
"b. c #E4E58B",
"n. c #E5E78D",
"m. c #E2E48A",
"M. c #E7E98E",
/* pixels */
"                                                                                                                                ",
"                                                                                                                                ",
"                                                                                                                                ",
"                                                                                                                                ",
"        & & = o 7 2 > > > > 2 > 2 3 1 < % 2 < 2 & o + & & & & + + & @ & < < : > 1 < 1 < 3 % < % 6 < 6 < & & & & o & X +         ",
"        & & o + 5 < 5 > 2 : % 5 3 < % 2 < < < < + - & & + & = X @ * + & 2 % < > : > 2 : % : < 6 5 2 2 : * & = @ & & o o         ",
"        & @ @ & 2 < : 5 < < < < < 1 : < < : 7 : & @ @ & + & o & + - & X 2 2 2 < : : 5 3 > 3 < > 2 < 2 > @ X o @ o @ & =         ",
"        @ * & & : > 2 < < 3 # 6 : 1 % < < 3 : 7 o - + X - & = + o , + o > < 5 2 < 2 < 2 3 < % 3 : 2 2 5 + & = + = + - &         ",
"        2 2 2 % I R / ..-.-.=.T X...H F T D T B d.9.i.9.W ] *.] / X./ ..R -.T T -.D t.c T J R -.k.%.*.0.0.{ 9.f.- & 4 &         ",
"        3 : 3 3 X...H -.=.F X.R T X.B X.H +.X.T *.9.d.1.Q M.9.*...T F -.Q u.T T J R / H ` c =.T 0.*.z.<.0.%.%.{ o o @ +         ",
"        2 3 % 2 R F T I R / H D T F >.T F X.B F j.] i.9.*.*.0.9.R =.T 8./ D K / J -.R T ` T J ` <.z.Q <.%.%.Q O.o X o .         ",
"        6 2 2 2 D ../ X.R F / -.T B ..F T T >.R ] *.] 9.*.] W *.D F 8.R / ` / { T T T T J J T R <.] l.*.i.{ l.{ & & + +         ",
"        < > < : { <.b.a.H T T u.q t t q e w a p g M z z M m C d M z x g N z x z e r r w y y t y R R 8.-.8.-.H / : 2 > :         ",
"        2 2 < < <.0.<.{ R J J / t t t p t r t a f d z n n n g M x C x d m x M x r r w r p y t y <.c / R c T T T < 1 2 $         ",
"        > : % > <.<.{ { ;.R u.=.t q e q t t t p z z f n z f n z M x m n z x M m y r e r t y e y R -.H -.O./ u.T < < 2 2         ",
"        > 5 2 < 0.{ b.D D -.D / w q t t r y t t A d d m f M n d n N x g n n N z y e e y q e w y R / / c / ;.T D 2 2 2 $         ",
"        : 3 3 < <.{ <.z.d m f C R R H T J ` T J c.k.*.W %.] ] i.<.9.[ f.{ 0.<.9.` T a./ ^ ^ ` D e r e r T 5.R R 3 > 2 2         ",
"        : 2 $ 5 { <.<.d.m z m x R / R D ` R t.c.<.0.0.f.M.] 1.9.{ V <.&.%.9.f.[ T D ;.T ` J ;.T w r e e 8.-.K c > > 2 >         ",
"        : > 2 2 <.0.<.Q x x x d T 5.H ^ T ` D T 0.d.9.*.9.1.*.j.%.&.[ <.z.9.k.0.c ;.^ H J R B ;.y y a r R R ../ 3 > 6 >         ",
"        2 1 > 2 z.a.<./ x f m x / H R J ;.T J J { *.*.<.*.] *.] <.<.[ 9.<.<.&.0.T H ^ J R K J / e q y y R I H <.: > > >         ",
"        X = X . R ` ` ` t y t p K F R / -./ -.J *.%.<.l.[ 0.k.z.[ 9.9.%.<.[ z.W ` / R ^ T D H ` e w r r k.Q <.0.2 2 < >         ",
"        + & X + R J / T t t y a Q O.D K R ;.;.;.f.%.<.<.d.0.0.[ 0.c.f.<.W f.<.{ t.^ ^ R 5.T T R r y r y 0.0.<.F > 5 2 2         ",
"        * & & X R R / R y r r r R K ^ H ^ c s.B z.W ] 9.f.*.<.F 0.W ] <.k.k.' f.H ^ ^ c T =.u.H r r y s D [ z.[ : < 2 <         ",
"        & & + . -.R R R t y r y K D ^ T K K H H k.*.{ f.0.9.z.z.%.f.9.9.<.' 5.{ c u.K ` T R R H w q r r <.0.z.f.3 5 3 2         ",
"        < < 2 < I R D R w a y p R O.H ^ 8.F D -./ / / R z f n z e t a r -.H R / T -./ / c -.H / z n m f i.*.*.9.o o @ +         ",
"        2 2 < < ..H -.8.a t a t K ^ / O.c.-./ R Q ` / ^ x f m d r y q y R / R -...D -.B / R R R z z z m 9.0.] *.* - X o         ",
"        % % 5 2 / / D -.v r t y -./ D { ^ / Q / T R F Q f m m z t e r e R / H R / / Q D 8./ D R n g n z 1.i.1.9.& X & =         ",
"        3 3 2 2 H =./ s.p w y r H H H H / R -./ R u.H T n g x i a p y r T / 8.` H s.../ H l Q =.z z n n *.j.] <.& * & o         ",
"        > > 8 2 R / H / z x x n / D / / F W <.[ n x z f O.0.%.<.0.l.W &.y r e r G W <.*.I I -.I M z m z 9.9.*...o + & &         ",
"        < > > 2 u.{ -.l x M f n J R H Q %.<.z.z.z n g N [ &.%.[ %.f.F k.t e r y 0.0.%.{ ../ R I x x z z 1.] d.l.o & X @         ",
"        < < > % -.-.R R x g n n ` D 8.O.<.0.9.{ g x N x <.0.H f.0.9.{ z.r y a e { z.<.{ X.....c x g z m ] *.d.] o & @ @         ",
"        2 9 % < T / D c x n M g / / ^ F { { %.Q x x x x 0.9.z.[ %.l.D 5.y q e y { 9.0.-.R R I I z M n z k.*.] i.- & & .         ",
"        & & . = *.{ 9.+.m z d z b.9.*.z.9.<.W ] z d z z Q <.d.%.f.' %.[ z f x d 9.d.[ d.0.9.9.] z d n z c H =.D @ @ = @         ",
"        o - X & *.G *.1.n d n d k.z.9.[ <.%.W l.f m z z W b.d.<.l.9.9.9.d Z z i f.k.%.<.d.<.] z.d f m z Q I J ` @ ; @ @         ",
"        & o X & <.<.] 1.m n x x d.[ +.9.0.k.9.Q z n g M G *.] { %.z.9.%.i m z x 0.c.[ 9.W W <.<.m m z g 8.H / c @ X = -         ",
"        o & & X 9.{ ..<.z n x x l.0.9.d.k.*.<.l.z n z d *.z.f.%.c.f.Q } M C C z W %.%.9.*.d.*.] z z d z / / u./ & @ * @         ",
"        o @ & @ G *.9.9.d n d g l.b.9.b.F <.{ <.D R F +.t w t r N z m n D R 8.8.0.H 0.%.b.<.&.' n m n n -.+.X./ 7 3 2 <         ",
"        + = & @ 9.] <.9.n n n m 9.<.*.Q 9.{ 0.9...+...-.t y t r x x x x <.-./ K <.k.G [ W <.l.<.d m z M ..k D Q < > < :         ",
"        = = 4 o +.] *.*.n z z S 9.*.*.9.{ <.Q z.c R R R t w t t x g M x J K / <.0.] <.f.k.%.Q 0.z m z m ..R / R < 5 < >         ",
"        & 4 X X [ ] ] z.Z n n M z.9.f.9.<.0.-.<.R / ..B p r t p N x i x H / R H [ %.[ { z.[ 5.0.z z u f T 8.D h : % 3 :         ",
"        5 5 2 > 0.W 0.<.n n x x D { R / 0.i.0.x.9.{ <.] 9.{ *.c.5.%.{ %.^ K O.O.O./ ` O.k.D J ;.n M n x a./ 5.O.< 2 : <         ",
"        1 : < < f.{ 9.z.n n n x ..+.t.T 1.] 1.1.0.0.{ 9.%.G 9.<.<.F 0.%./ R a.K / { F K ' ^ ` H n n x g / H -.K > % 2 2         ",
"        : 2 > > 0.9.0.5.x M m z Q >.T D 0.0.1.9.0.<.<.z.*.] Q W k.f.0.9.O.O.J R 5.H R R B ^ H / n f M n z.` K 5.2 5 2 7         ",
"        5 2 1 2 %.9.9.{ f z N g -.H T X.1.<.1.*.<.<.{ { *.<.*.<.z.%.<.&.k ^ / K t.B u.R ^ / H / M g g x 5.5.^ ` 2 > > <         ",
"        > % 5 2 R ` -.R r p w p -.F H R ..T >.X.0.<.<.<.T H J T Q R J T ^ / / 8.^ ^ K <.R / ^ K n x x x J R R R O % 2 2         ",
"        > 5 8 8 =.H H / y r s b -.R I H 1.H T X.z.<.0.<.R H / H R / H R c ` j ` F O./ c a.^ / -.x N n g H R ` 8.> : 3 <         ",
"        3 > 2 > -.8.D -.w e y r / O.8.c X.>.T X.{ [ u.0.D -.8.z.O.R K D H ;.R 8.-.5./ ^ H -.t.T x m z M T / -.H 2 < < <         ",
"        > 3 2 % R R -./ a w r w / H D / / / R R W 0.<.5.T R D Q R -./ H H K R K / F ^ F R t.R T x x M n H F O.R 2 > > >         ",
"        < < 2 < 8.+.I -.H / D H m N x m r y t y z M n g z z x z g z f z z M n m p t t t r t p 0 / Q 0.<.F -./ <.2 > < :         ",
"        < : > : I X.R R R T =.D x N x x y r s p f f M x z d n M z m z f n z m z e t q s t r r t d.9.<.0./ -./ / 2 < < :         ",
"        < O 2 2 / R Q X.H / -.` z x g x w p e y x x n z z x C m z z z z M z z d e p t r t r p t 9.G %.c.F / H R < : : >         ",
"        3 : : < D 8./ +.T H -.R x N n M r w p t x M n n z x d n n n z z S M C n t t e p r a t t %.z.c.d.+...D ..5 > > 2         ",
"        - o + @ H c J R H -.c ;.c.-./ T T H ` l { / 9.9.%.9.k.{ z.f.*.9.d.z.1.9.i.+.W 1.i.0.0.<.%.W 9.d.0.*.<.*.o - X &         ",
"        @ - & o ^ / ^ c c./ T J J / T 8.R u.T R <.F 9.0.%.9.%.*.j.d.%.d.i.*.*.9.*.i.*.] V *.z.x.%.%.d.0.{ <.] l.o & + o         ",
"        @ ; @ X D -./ R ;.D -.` c ` ` T R J H D 0.0.W [ f.d.<.*.d.{ ] W *.%.9.+.9.*.1.i.Q 1.1.z.9.%.<.9.W d.<.] o o * =         ",
"        o o o o 8.K / T -.R R c u.R J 5./ D c H <.l.0.9.k.9.0.<.W *.0.9.9. .d.W k.*.x.9.*.0.0.0.d.<.<.l.1.l.%.l.& o & o         ",
"        + + + = o = o & 2 2 2 > > % 6 > 2 3 < > & o & & > $ 2 : > < > 2 2 2 : 5 > 5 : > : : > 5 5 > 5 < @ o & & & & @ &         ",
"        & & + - & o X * > $ > : 2 < < : 2 > < 2 , o & o > : > : 2 < : < > 2 > 2 > < 2 > > % : > 5 2 5 < & o o & & o o o         ",
"        + & o . & * o o > > > 2 : > < 2 2 2 5 2 & o & * : > > 2 < < 6 : % : > 5 % < $ 2 2 2 : 2 < > 5 : & , @ & & - X X         ",
"        X & + o & = & & 2 2 2 3 : 2 3 5 > < 3 : o & - ; > 2 3 2 > < < 2 2 > < 5 2 2 > 2 2 6 : > > < < 2 & = 4 o & - & @         ",
"                                                                                                                                ",
"                                                                                                                                ",
"                                                                                                                                ",
"                                                                                                                                "
};
