/* XPM */
static char *c90f3d130d204863827c336957a569c8E38bnxAxrEOiuU9p[] = {
/* columns rows colors chars-per-pixel */
"64 64 112 2 ",
"   c None",
".  c #1F5C17",
"X  c #215D18",
"o  c #26621D",
"O  c #29641F",
"+  c #2B6621",
"@  c #2E6924",
"#  c #316B26",
"$  c #336E29",
"%  c #36712D",
"&  c #39732E",
"*  c #3B7531",
"=  c #3F7935",
"-  c #417B37",
";  c #437D39",
":  c #46803B",
">  c #4D8343",
",  c #518547",
"<  c #528748",
"1  c #558A4B",
"2  c #598E4F",
"3  c #519247",
"4  c #54954B",
"5  c #57984D",
"6  c #599A4F",
"7  c #5A8F50",
"8  c #5D9252",
"9  c #5C9D52",
"0  c #609656",
"q  c #659B5A",
"w  c #5FA054",
"e  c #60A156",
"r  c #63A459",
"t  c #68A95D",
"y  c #36248D",
"u  c #3C2993",
"i  c #412D97",
"p  c #442E9A",
"a  c #47319D",
"s  c #48329E",
"d  c #4E37A3",
"f  c #4F38A5",
"g  c #0A40B8",
"h  c #1342BB",
"j  c #1A45BE",
"k  c #7E5DB2",
"l  c #1F47C1",
"z  c #2047C1",
"x  c #2549C4",
"c  c #2A4CC7",
"v  c #2C4DC9",
"b  c #304FCB",
"n  c #3351CD",
"m  c #2B5AD8",
"M  c #3F59D6",
"N  c #335EDD",
"B  c #3C64E3",
"V  c #405AD7",
"C  c #5677DC",
"Z  c #5979DF",
"A  c #4066E6",
"S  c #4267E8",
"D  c #456AEB",
"F  c #496CEE",
"G  c #5D7DE4",
"H  c #4C6FF0",
"J  c #4F70F2",
"K  c #5273F5",
"L  c #5777FA",
"P  c #8261B7",
"I  c #8462B8",
"U  c #8B69BF",
"Y  c #8D6BC2",
"T  c #916FC6",
"R  c #9270C7",
"E  c #9573CA",
"W  c #9A77CF",
"Q  c #9B78D1",
"!  c #6181E6",
"~  c #6886E7",
"^  c #6483EA",
"/  c #6987ED",
"(  c #6D8BEC",
")  c #6E8BED",
"_  c #6E8CED",
"`  c #6F8CED",
"'  c #6F8CEE",
"]  c #6C8AEB",
"[  c #708DEF",
"{  c #6B89F1",
"}  c #6C8AF2",
"|  c #6E8CF4",
" . c #718EF0",
".. c #728FF1",
"X. c #718EF7",
"o. c #7390F2",
"O. c #7491F3",
"+. c #7592F4",
"@. c #7692F5",
"#. c #7693F5",
"$. c #7693F6",
"%. c #7794F6",
"&. c #7995F8",
"*. c #7996F8",
"=. c #7A96F9",
"-. c #7B97FA",
";. c #7B97FF",
":. c #7D99FD",
">. c #7E9AFD",
",. c #829EFF",
"<. c #88A3FF",
"1. c #89A4FF",
/* pixels */
"                                                                                                                                ",
"                                                                                                                                ",
"                                                                                                                                ",
"                                                                                                                                ",
"                                                                                                                                ",
"                                                                                                                                ",
"                                                                                                                                ",
"                                                                                                                                ",
"                                                                                                                                ",
"                                                                                                                                ",
"                                                                                                                                ",
"                                                                                                                                ",
"                                                                                                                                ",
"                                                                                                                                ",
"                                                                                                                                ",
"                                                                                                                                ",
"                                        ) +. .)         _ ) ) +.D D B H G / G ^                                                 ",
"                                        +. .>.1.        <.)  .+.S m D D G ^ / G                                                 ",
"                                        o.+.~  .        O. . .&.S D B D { ^ } ^                                                 ",
"                                        &. .) _         ) )  .] D D B D ^ G G ^                                                 ",
"                                D B D F %.o.&._  ._ o.>.B F K J G ^ ^ G D B H B H F D D                                         ",
"                                D F B A [ &.&.&.%._  . .K F F A ^ | { G B H D A K D D D                                         ",
"                                D A D A ..! ,.! -.] _ o.F D D N ^ C G G K K B H B D D N                                         ",
"                                A B D D ` ` ( ( &. .) +.J D J K G { / ^ D A F B N L D H                                         ",
"                                        } G C { v v v c z j v x u p f i H A D D c n v v                                         ",
"                                        ;./ ^ G c v v v c l n j p a y a D D D H c j n h                                         ",
"                                        ^ ^ ! ^ x x z c j n n x p u i u D D B D v v c j                                         ",
"                                        / G / ^ x M l v v l c g f s p p D D K H l M v v                                         ",
"                                                        @ @ + @ T Q I Y                                                         ",
"                                                        o @ + + Y R P E                                                         ",
"                                                        @ @ . $ T T U R                                                         ",
"                                                        $ @ % o U W P T                                                         ",
"                                                        > 7 8 < 7 < 1 ,                                                         ",
"                                                        > q 8 1 0 7 2 2                                                         ",
"                                                        > 2 , 1 < 0 2 1                                                         ",
"                                                        1 8 8 1 q 8 , <                                                         ",
"                                                                & @ $ #                                                         ",
"                                                                @ @ + +                                                         ",
"                                                                @ + $ #                                                         ",
"                                                                & + X #                                                         ",
"                                , 7 1 7                         2 < < 1                                                         ",
"                                2 7 0 7                         2 > 7 1                                                         ",
"                                1 8 7 >                         0 7 7 2                                                         ",
"                                8 , 1 7                         8 1 1 1                                                         ",
"                                        1 2 8 8                 9 9 5 6                                                         ",
"                                        0 , 2 2                 9 9 5 6                                                         ",
"                                        8 8 1 7                 e 6 6 3                                                         ",
"                                        1 7 1 1                 9 q w 4                                                         ",
"                                        = ; = ; 1 8 8 <         5 6 4 6                                                         ",
"                                        ; * > ; > , 0 1         6 w 6 4                                                         ",
"                                        & ; * ; 1 1 2 1         6 9 9 5                                                         ",
"                                        * * ; - 2 8 1 8         9 9 6 5                                                         ",
"                                                * * ; ; < 8 0 1 r e 9 9                                                         ",
"                                                = $ - ; 1 1 < 1 r w 5 r                                                         ",
"                                                = ; % % 8 8 1 1 w 5 5 3                                                         ",
"                                                = > = = 8 7 8 1 4 6 w 9                                                         ",
"                                                        @ X # O 5 9 9 9                                                         ",
"                                                        O + @ O w 9 3 9                                                         ",
"                                                        o @ + $ 6 9 t 5                                                         ",
"                                                        @ # % # 5 9 9 9                                                         ",
"                                                                % $ # *                                                         ",
"                                                                & # + o                                                         ",
"                                                                @ + + #                                                         ",
"                                                                @ # $ o                                                         "
};
