/* XPM */
static char *_cadece9a74b41fcd218fe0927441e44eeIpKavkTAMqMeXp[] = {
/* columns rows colors chars-per-pixel */
"64 64 203 2 ",
"   c None",
".  c #3E0300",
"X  c #3E3129",
"o  c #450100",
"O  c #4A0102",
"+  c #440B05",
"@  c #4C0E04",
"#  c #4D0608",
"$  c #440B09",
"%  c #4B0B0C",
"&  c #530103",
"*  c #540D04",
"=  c #5C0D06",
"-  c #520409",
";  c #51090C",
":  c #4C1006",
">  c #4B150C",
",  c #45160E",
"<  c #531007",
"1  c #53160D",
"2  c #5B140C",
"3  c #500F13",
"4  c #4D1B13",
"5  c #471B1A",
"6  c #4D1B1A",
"7  c #481615",
"8  c #531B13",
"9  c #5B1B12",
"0  c #511B1B",
"q  c #571719",
"w  c #660001",
"e  c #6B0103",
"r  c #6F0608",
"t  c #6D0E0C",
"y  c #660908",
"u  c #730003",
"i  c #7B0003",
"p  c #740509",
"a  c #7C020A",
"s  c #730B0C",
"d  c #7B0C0E",
"f  c #6C100D",
"g  c #73110F",
"h  c #611A12",
"j  c #6C1913",
"k  c #741511",
"l  c #7B1311",
"z  c #731C15",
"x  c #7A1814",
"c  c #4F2018",
"v  c #56231B",
"b  c #5B241A",
"n  c #582017",
"m  c #63251B",
"M  c #432F24",
"N  c #4B2322",
"B  c #5B2520",
"V  c #453226",
"C  c #4A382D",
"Z  c #513626",
"A  c #473B34",
"S  c #493A30",
"D  c #483F3A",
"F  c #513D31",
"G  c #6B2C2D",
"H  c #732C2D",
"J  c #792429",
"K  c #67302F",
"L  c #6B3332",
"P  c #6B3A38",
"I  c #733434",
"U  c #7D3C3C",
"Y  c #783435",
"T  c #4D423C",
"R  c #5A4436",
"E  c #5A453A",
"W  c #5E483A",
"Q  c #61493B",
"!  c #634331",
"~  c #594E48",
"^  c #7C4342",
"/  c #764241",
"(  c #6F594B",
")  c #735C4F",
"_  c #7B5E4B",
"`  c #695F59",
"'  c #765E50",
"]  c #7D604F",
"[  c #7A6254",
"{  c #796659",
"}  c #79675C",
"|  c #686360",
" . c #746A63",
".. c #820008",
"X. c #95000E",
"o. c #8C0C12",
"O. c #960211",
"+. c #9A0C18",
"@. c #821412",
"#. c #8E1516",
"$. c #8B1E19",
"%. c #831B17",
"&. c #911416",
"*. c #9A1116",
"=. c #95171A",
"-. c #941B19",
";. c #9D1B1B",
":. c #BC1E00",
">. c #AA001E",
",. c #A2061F",
"<. c #A31B1B",
"1. c #A01518",
"2. c #8D221C",
"3. c #95221D",
"4. c #BF2903",
"5. c #BC2805",
"6. c #BC3814",
"7. c #9B1722",
"8. c #9D1B24",
"9. c #AF0221",
"0. c #A00C20",
"q. c #B00422",
"w. c #A31C25",
"e. c #AB1C26",
"r. c #A91524",
"t. c #B81E2C",
"y. c #9C2126",
"u. c #9A2922",
"i. c #9C2629",
"p. c #9C2D2D",
"a. c #952827",
"s. c #963127",
"d. c #843C3D",
"f. c #8A3B3C",
"g. c #A12325",
"h. c #A42429",
"j. c #A4292C",
"k. c #A92B2D",
"l. c #A92427",
"z. c #B5222D",
"x. c #AD2F30",
"c. c #B22D32",
"v. c #BB2C33",
"b. c #BF2531",
"n. c #A53332",
"m. c #AB3332",
"M. c #BB3136",
"N. c #BD3639",
"B. c #B8393B",
"V. c #C22400",
"C. c #C92300",
"Z. c #C32C04",
"A. c #D0042D",
"S. c #CE1C31",
"D. c #C62633",
"F. c #CA2433",
"G. c #C42C35",
"H. c #CB2A35",
"J. c #C43037",
"K. c #C53439",
"L. c #CA343A",
"P. c #C23B3D",
"I. c #CB393D",
"U. c #D33A3E",
"Y. c #D5303A",
"T. c #D82E39",
"R. c #80403F",
"E. c #B9403F",
"W. c #EA5C01",
"Q. c #F55500",
"!. c #F45B00",
"~. c #FD5D00",
"^. c #FA5500",
"/. c #F66201",
"(. c #FE6401",
"). c #FF6A04",
"_. c #FB660A",
"`. c #FF6A0B",
"'. c #F5630A",
"]. c #FC6A13",
"[. c #F76712",
"{. c #FF7418",
"}. c #893F40",
"|. c #873F40",
" X c #CB3F40",
".X c #D13F41",
"XX c #844343",
"oX c #8A4444",
"OX c #894B4A",
"+X c #904949",
"@X c #83634E",
"#X c #836553",
"$X c #C74544",
"%X c #D94245",
"&X c #F99B5D",
"*X c #EF9E68",
"=X c #F59E64",
"-X c #FDA264",
";X c #FEA56A",
":X c #FFAA6C",
">X c #F6A068",
",X c #FDAB73",
"<X c #F9AB79",
/* pixels */
"                                                                                                                                ",
"                                                                                                                                ",
"                                                                                                                                ",
"                                                                                                                                ",
"                                                                                                                                ",
"                                                                                                                                ",
"                                                                                                                                ",
"                                                                                                                                ",
"                                                                                                                                ",
"                                                                                                                                ",
"                                                                                                                                ",
"                                                                                                                                ",
"                                                                                                                                ",
"                                                                                                                                ",
"                                                                                                                                ",
"                                                                                                                                ",
"                                                N.K.t.G.v.D.N.A.j.j.l.9.&X-X:X-X                                                ",
"                                                v.U.L.K.I.T.I.J.p.h.8.p.-X-X<X-X                                                ",
"                                                J.v.N.M.D.%XM.E.w.n.y.8.:X;X-X;X                                                ",
"                                                J.J.D.L.K.N.%XJ.p.h.h.i.;X;X<X,X                                                ",
"                                        ;X:X-X;X(.].[.).J.L.P.E.w.7.i.t.y.+.h.c.&.-.-.3.                                        ",
"                                        ,X:X;X,X!.(.Q.).S.I.S.J.h.9.8.i.q.p.w.h.;.O.2.s.                                        ",
"                                        >X-X;X=X_.)./.`.K.c.L.H.m.8.r.h.k.0.7.e.&.-.o.*.                                        ",
"                                        ;X-X&X-X!.].).).v.N.H.K.8.i.h.y.j.8.j.l.=.*.3.o.                                        ",
"                                        ].(.).'.(.(.W.(.J.D.P.K._._.`.!.=X=X;X;X&.-.#.o.                                        ",
"                                        ~.(.`.!.Q.).!.!. Xv.L.P.^.`.[.[.,X&X-X;X2...*.=.                                        ",
"                                        '.(.(.~.~.(.).(.S.F.G.H.`.`.~.(.*X-X,X>X%.#.3.3.                                        ",
"                                        ).~.].).).).(._.D.Y. XP.(.`.(._.-X-X,X:X2.#.3.2.                                        ",
"                                        e u u e -.&.o.&.&.1.#.g.(._.(.(.!.!.~.].d u l s                                         ",
"                                        s %.d w *.O.1.3.g.#.<.#.{.].)._.).(.{.`.g e t i                                         ",
"                                        u f e u =.s.$.;.3.3.&.-.!.(.~.).(.`.)./...j u d                                         ",
"                                        t g r t <.3.-.-.O.3.*.<.!.~.(.~._.(.(._.e u p u                                         ",
"                        > * 8 : r.0.n.h.v.I.M.J.E.G.K.D.m.w.p.y.u r u a : 4 4 4 > 8 > 8 C.V.:.Z.e p e u                         ",
"                        2 1 @ > y.9.x.l.M.F.M.L.I.M.$XB.=.k.k.e.u g p l v : > : , 2 h 8 Z.V.:.C.u u k j                         ",
"                        4 4 8 8 w.>.i.g.L.K.H.v.I.L.I.H.i.7.l.j.d r p t 9 4 4 8 > 9 9 v C.6.:.5.l i p z                         ",
"                        7 < v 8 e.x.r.w.N.L.I.c.N.z..XD.y.n.7.m.p s e d 8 < > 4 & : > = 4.6.5.6.p @.u l                         ",
"                        - + O o * 8 : m p p p p l e u l g e l l > c 8 9 8 1 @ b e u s i p e t j o O o $                         ",
"                        3 O o O > 9 0 8 p p e d p d s u u p w u 4 v > 4 8 1 8 8 l e p t @.u u w - O O O                         ",
"                        - o o O 8 < 8 > e d u u x g i e s r t i @ > : : 1 5 : 9 e u s r u u u u O o o O                         ",
"                        $ . # o b 0 > 1 f u p s e a $.t l y l t 8 1 n n c 8 8 c p p p z u d p t o O o o                         ",
"                                . o # & 8 B < n 1 8 , 8 o O O O O O . % 4 4 * 4 @ 9 8 9 - % # O                                 ",
"                                O O O o 8 1 8 h 2 n * 1 . O + & o & O o 8 8 4 8 1 1 b 8 # # - o                                 ",
"                                o . # o 2 @ < 8 O m 4 = # % O $ $ # o % 9 1 8 8 8 8 n 6 > % + o                                 ",
"                                $ % O o 2 8 4 v 8 0 1 * . O # o o # O o > 2 9 1 > n b c O o ; &                                 ",
"                                                        q N 6 6 V S S D                                                         ",
"                                                        q 5 6 3 X A F X                                                         ",
"                                                        7 0 0 3 S Z S Z                                                         ",
"                                                        5 B 0 q S X V T                                                         ",
"                                                        R W R E ^ I L L                                                         ",
"                                                        R ! E R G Y L H                                                         ",
"                                                        W R R R U H G L                                                         ",
"                                                        Q R Q ~ I ^ L P                                                         ",
"                                                        oXoXXXR.@X[ @X[                                                         ",
"                                                        Y oXf.^ ] _ ] [                                                         ",
"                                                        f.R.}.XX[ | ' }                                                         ",
"                                                        f.XXoXf.#X_ ) ]                                                         ",
"                                                        [ [ #X} XXd.oX^                                                         ",
"                                                        ' } _  .+X^ oX+X                                                        ",
"                                                        ` } ' ' f.^ / XX                                                        ",
"                                                        _ [ ( [ ^ d.OXXX                                                        ",
"                                                        XX^ XXU J L K K                                                         ",
"                                                        U U ^ XXI H H H                                                         ",
"                                                        oX}.XX^ I H L K                                                         ",
"                                                        OX}.|.XXG U G H                                                         "
};
