/* XPM */
static char *d25a71c749d34b48d60201375940bd2eiUxqz9EGTrZua5Lv[] = {
/* columns rows colors chars-per-pixel */
"128 128 2 1 ",
"  c #ED2BDA",
". c #E968F2",
/* pixels */
"................. ...  ......  ............ ............... .......... .......... .......... ...............  ... ....   .   ...",
"........    .....  ...  ......  ........... ............... .......... .......... .........  ..............  ..... ..  .   .   .",
"......  .      ...  .... ......  ..........  .............. ........... ........  ......... .............. ....... . .   .     .",
"....     ....   ...  ...  ...... ...........  .............. ..........                ...  .............. ........ .  ...      ",
"....  ......     ... ..... ...... ........... ..............  ......    .         ....  .. .............  ........   ....       ",
"...  ......       ... .... ...... ............  .............  ..   .       .....  ....    ...........  ..........   ...        ",
"... .....         ... ..... ...... ............  .............   .       ..  .....  ....  .........   ........... . ....   .    ",
".. ......         .... ..... ...... ............. ...........  ..    . .      ..... .....  ......  ..............  ....    .   .",
".. ......          ... ..... ...... ..............  ........ ...   .           .... ......  .    ................  ....        .",
". ......         . .... ..... ..... ................ .....  ...  ...         . .... ......    ............       . ...         .",
". ......          . ... ..... ...... ................  ...  .. . .           . .... ....... .  .........  ...... . ...         .",
". ...... .        . .... ..... ...... .................    .. . .           .  .... ....... ... ......  ........ . ...        ..",
". ...... .        .. ... .....  ..... ................... .. .           .    ..... ....... ....  .... .........  .  .       ...",
" ...... ..        .. ... ...... ..... ................... .  .               .....  ....... .....  .. ........... ..        ....",
" ...... ..        .. .... ..... ...... .................. . .               ...... .......  ......  . ............ ...     .....",
" ...... .         .. .... ..... ...... .................. . .     .       ........ ....... .........  ............  ............",
" ...... .       . .. .... ..... ....... ................. . .             .......  .......  ......... ...........    ......     ",
" ...... .       . .. .... ..... ........ ................ . .            ........ ....... .  ........  .........  ..  ...  .....",
" ...... .        ... .... ..... ........ ...............  . .  .        ........ .......  ..  ......... ......  .....    .......",
" ...... .        .. ...... .... .......   ............   .  .         ......... .......  ..... ......... ....  ........  .......",
" ....... .       .. ...... .... .........     ...      ... .         ........  ........ ....... ......... ... ......... ........",
". ...... .      .. ....... .... ......... ....    ......... .  ............  ......... ......... ........  . ......... .........",
". ....... .     .. ....... .... ......... .................  .   ......     ......... ..........  ........ . ........ ..........",
". .......     ... ........ .... .......... .................  ...      ............  ............ ........   ........ ..........",
".. .............  ........ .... .......... ..................  ....................   ............ ........ ........ ........   ",
".. ............ .......... .... .......... ...................    ..............   ..  ...........  .......  ...... ........  ..",
"... .......... ........... .... .......... ..................  ..               ......  ........... ........ ...... .......  ...",
"....  .....   ............ .... .......... .................. ........... .............  .......... ......... .... ....... .....",
".....      ............... .... ..........  ................  ........... ..............  .......... ........ .... ......  .....",
"......................... ..... ...........  ............... ............ ...............   ........ ......... ... .....  ......",
"......................... .... ............   .............. ............ .................            ....... .. ...... .......",
"......................... .... ............ .  ............ ............. ................  ...          ..... .. ..... ........",
"......................... .... ............ ..  ........... ............. ............... ...  .....      .... .. ..... ........",
"......................... ... ............. ... ........... ............. .............  ..  .....  ......  .. .  ....  ........",
"........................ .... ............. ... ..........  .............  ........... ...  ....  ..........   . ..... .........",
"........................ .... ............. .... ......... ............... .......... ..  ....  .............  . .... ..........",
"....................... ..... ............. .... ......... ...............  .......  ..  .... ................   ... ...........",
"....................... .... .............. ....  ....... ................. ...... ..  ..... .............     . ... ...........",
"....................... .... .............. ..... ....... .................  .... ..  ..... ............  ......  .. ...........",
"...................... .... .............. ...... ......  ..................  .  ..  ..... ..........   ......    .  ...........",
"..................... ..... .............. ...... ...... ....................  ... ...... .........  .......   .    ............",
".................... ..... ............... ...... ...... ..................... .. ...... ......... .......  .     . ............",
"................... ...... ............... ...... ...... .................... .. ....... ......... ......  . ..     ............",
".................. ...... ............... ....... .....  ................... .. ....... ......... ......             ...........",
"...............   ...... ................ ....... ..... ................... .. ........ ........ ......              .......... ",
".............. ........  ................ ....... ..... ................... .  ....... ......... ......  .           .......... ",
"............  ........ .................. ....... ..... .................. .. ........ ........ ......               .........  ",
"........    ......... .................. ........ ..... ................. .. ........ ......... ...... .             ......... .",
"...     ............  .................. ....... ...... ................. .. ........ ......... ......  ..   .     . .......  ..",
"   ...............  .................... ....... ...... ................ .. ......... ........ .......  .    .      .......  ...",
"................  ..................... ........ ...... ............... ... ......... ........ .......  .    .  .    .....  ....",
"...............  ...................... ....... ....... ............... .. .......... ........ .......  . .   . .  . ...  ......",
".............  ....................... ........ ....... .............. ... .......... ........ .......  . .        . ..  .......",
"...........  ......................... .......  ....... ............. ... ........... ........ .......  .              .........",
".......    .......................... ........ ........ ............. ... .......... ......... ........    .        ............",
".       ............................ ........ .........  ........... ...  .......... .......... .......    ....     ............",
"................................... ......... .......... .......... .... ........... ..........  .........         .............",
"................................... ........ ............ ......... ...  ...........  ..........  .............   ..............",
"..................................  ......  .............  ....... .... ............. ............  ...........   ..............",
".................................. .......   ..............  ..... .... .............. ............    .......   .............. ",
"................................. ......  .. ...............   ... ... ................ ...............          ............. .",
"................................ ....... .... ................    .... .................  ..................... .............  .",
"............................... ......  ..... ..................  .... ..................  .................... ............  ..",
".............................  ....   ........ ................. .... ....................   .................. ...........  ...",
"............................        .......... ................. .... ......................   ................ .......... .....",
"........................... ...  .............  ...............  .... ........................   ............. .........  ......",
".........................  .....  ............. ............... ....  ..........................   ........    .......  ........",
"........................ ........ ............. ............... .... ..............................                   ..........",
".....................   .......... ............ ............... .... .....................................    ................. ",
"....................  ............  ........... ............... .... .....................................   ................. .",
"................    . ............. ........... .............. ..... .................................... . .................  .",
"..............  ...... ............ ........... .............. ..... ...................................    ................. ..",
"...........   ........ ............ ........... .............. ..... ................................... .  ................. ..",
" ......     .......... ............. .......... .............. .... ..................................  .  . ................ ..",
".      .... ..........  ............ .......... .........    . .... .................................. .  ... ..............  ..",
"........... ........... ............ .........  .......  ...  ..... ................................. .. ....  ............. ...",
"........... ...........  ........... ......... .......  .....  .... ................................  .. ..... ............. ...",
"........... ............   ......... .         ......  ...... ..... ................................ .. ...... ............. ...",
"........... .............. .........     .....   .... ...... ...... ..............................  .. ........ ............ ...",
"........... ...............  ......  ...........  ... ...... ......  ............................  ... ........ ........... ....",
"........... ................   ..   .............. . ....... ....... ............................ ... ......... ........... ....",
"........... ..................   ....      ........  ....... ....... ..........................  .... ......... ........... ....",
"........... .................  ...   ......     ....  ...... ........ .......................  .....   ........ .......... .....",
"........... ..............   .    ...     ......   ..  .... .........  ..................... ...... ..  ....... .......... .....",
"...........  ............  .  .....       ........  .. .... ........... ..................  ....... .... ...... ......... ......",
"............ ........... .  .....           ....... ... ... ............ ...............  ........ .....  ..... ........ .......",
"............  ......... .  ....              ...... ... ... .............  ...........  ......... ....... ..... ........ .......",
".............  ......    .....  .       .     .....  .. ... ...............   .....   .........  ......... .... ....... ........",
"..............  .... . ...... ..            . ...... .. ... ..................     ............ .......... ...  .....  .........",
"...............        ..... ..   .           ...... .. ... .................................  ........... ... ....   ..........",
"..................    ..... ... .        .    ...... .. ...  ...............................  ............ ...      ............",
".................. . .....  ..   .            ...... .. ...   .............................. ..........            .............",
"................. . ...... ... .         .  . ...... .. ... ..  ..........................  ........   .....        ............",
"................    ...... .. . .           . .....  .. .  .....   .....................  .......   ...............  ...........",
"................   ...... ..  . .           . ..... .. .  .........  .................. .......  .......           ..  .........",
" ..............   ....... .. ..               ..... ..   ............    ...........   ......  ......   ........  ....  ........",
".  ............ . ....... .  . .              .... ... ..................            .......  ....   .............  ... ........",
"...   ........    ....... . ..               ....  .. .............................. .....  ..... .................  ... ...... ",
"......   ....  . ........   .              . .... ..  .............................. ....  ....  ..........     ....  .. .....  ",
"........       . ........   .              . ...  .   ..............................      .... ...........       .... ..      ..",
"............. .. ....... .                . ...  .. .  ................................  ...  ..........          ... .. .......",
"............. .. ....... .                 ..  ..  ...  ..............................  ...  ..........   .         .  . .......",
"............. ... ......                  ..  ... .....  ............................. .... .......... . .   .      .. . .......",
"............. ... .......   .        .   ..  ... .......  ........................... .... ..........  ..  .        .. . .......",
"............. .... ......   .       .   ..  ...  ........  .........................  .... .......... ..  . .       .. . .......",
".............  ...  ......             .  ...    ..........  .......................   .. .......... ...   ..       .  . .......",
"..............  ....  .....   .          ..   . .............     ................    ..  .......... ..  . .        . .. .......",
"............... .....    ....         ...   ... .................                   .... .......... ...  . .        . .  .......",
"..............  .........          ....  ...... ................................... ... ........... ..  . .         . .  .......",
"............   . ....................   ....... .................................. .... .........   .. .. .          ..   ......",
"..........   ...  ................   .......... .................................. ...  .........  ..  . ..        . .. ..  ....",
".......   ........  ...........   . ........... .................................. ... ..........  .. ..             . ....  ...",
".....  .............           .... ........... .................................. ..  .........  ... ..            .. .....  ..",
".... ................ ............. ........... ................................   .. ..........  ...               .  ...... ..",
"..  ................. ............. ........... .............................   .. .. .......... . ..              .  ........ .",
". .................. ............... .......... ...........................  ..... ..  ......... ..               .  .........  ",
" ................... ............... ........... ........................  ....... ...  ........  ..             .  ........... ",
".................... ............... ........... ....................... .......... ... ......... .. .          .   ........... ",
"................... ................ ...........  ..................... ...........  ...  ....... ..           .  .  .......... ",
"................... ................ ............ .................... .............  ...   ......  .    ..   . ....  ..........",
"................... ................  ...........  .................  ...............   ...    ....             .....  .........",
"................... ................. ............ ................ ..................    ....             .  ........ .........",
"................... ................. ............. ............... ................. ...   ..............  ........... ........",
"................... ................. .............. ............. .................  .....  ..........   ............. ........",
"................... ................. ..............  ........... .................. ........          ................ ........",
"................... ................. ...............  .........  ................. .................. ................. .......",
"................... .................. ................  ....... .................. .................. ................. .......",
"................... .................. .................   ....  ................. ...................  ................ ......."
};
