/* XPM */
static char *_0bbb1c1965a493efdbc766d70b59e3e3PXbl69m8Qi2oCAF[] = {
/* columns rows colors chars-per-pixel */
"128 128 83 1 ",
"  c #2154B1",
". c #245CB4",
"X c #2761B6",
"o c #2863B7",
"O c #2762B8",
"+ c #2965B9",
"@ c #2C6CBB",
"# c #2E72BE",
"$ c #3075BF",
"% c #3178BF",
"& c #2F74C0",
"* c #3176C0",
"= c #337BC2",
"- c #3683C5",
"; c #3886C6",
": c #3788C7",
"> c #3989C7",
", c #3887C8",
"< c #3A8CC9",
"1 c #3D93CC",
"2 c #3E95CD",
"3 c #3F97CE",
"4 c #3F98CE",
"5 c #4097CE",
"6 c #4098CD",
"7 c #409ACE",
"8 c #419BCE",
"9 c #429CCF",
"0 c #419AD0",
"q c #429DD1",
"w c #429ED0",
"e c #439FD1",
"r c #449FD1",
"t c #43A0D1",
"y c #44A2D1",
"u c #44A1D2",
"i c #44A1D3",
"p c #44A4D3",
"a c #45A5D3",
"s c #46A7D3",
"d c #45A5D4",
"f c #47A7D5",
"g c #47A8D5",
"h c #47AAD6",
"j c #48AAD5",
"k c #48ABD5",
"l c #4AACD7",
"z c #49AED7",
"x c #49AFD8",
"c c #4BAFD8",
"v c #4AB0D7",
"b c #4BB0D8",
"n c #4CB2D8",
"m c #4CB3DA",
"M c #4BB4D9",
"N c #4CB4DA",
"B c #4CB4DB",
"V c #4CB5DB",
"C c #4DB6DA",
"Z c #4DB7DA",
"A c #4EB7DB",
"S c #4DB7DC",
"D c #4EB8DB",
"F c #4EB9DC",
"G c #4FBBDD",
"H c #4FBCDD",
"J c #50BBDC",
"K c #50BDDD",
"L c #51BDDE",
"P c #51BFDF",
"I c #51C0DF",
"U c #53C1DF",
"Y c #53C3DF",
"T c #51C0E0",
"R c #53C2E0",
"E c #53C4E0",
"W c #53C4E1",
"Q c #54C5E0",
"! c #54C6E2",
"~ c #55C6E2",
"^ c #55C7E2",
"/ c #56CAE3",
"( c #F8AFF6",
/* pixels */
"                             ..XXXXo++++++@@&@@@#&$#*$**$====-=----;;>;><<<1<<11212246009wwtiiiygshdlgkbkbxBbBVVDVHDHKLLRRHWWWY/",
"                             ....XXXo+++@@@@@@##@###$$**====-=-----;;>>><<<<11<121244006wwwtiiiysssdglzgxxbbbVVVVFDDFHLKRHYWWY//",
"                            ..X.XXOOoo++o@@@@@@####&%%*=*=====-=---;;>><<<<<1<11112664ww0twiwestdsgsskxxzbbVVbVDZDDKHLHRTTTY/YQ/",
"                            ...X.XOoo++@+@+@@@#@###*#***=====------(((((((((((((((26204ww9ttdessdsshxkzgxbbbbVVVZDDJFHHLTTTWQWYQ",
"                          . ...X.XXooo+@@@+@@@##$##%%%**====-=-=-(((;;<>><<1<11111(((940w0wiiiissslflslxxbbbnnZVVFFKKKJRLKYWQQ/W",
"                        .. .....OXXX+o+++@@@@@@##&##%&**======-(((-;>;>><<<<<1<11564(((twtwiiiysddsssllxzbbbnZVVZJFFKJKRLWHWQWQ/",
"                           ..XX..XOOoo++++@@&@#@###*%&*======--(--;;;>>><<<<1<1111544w((wwwwiyyiddshgllxnllncVZnVDFFKKKLWKRRQWQQ",
"                         ......XXXOOO@+@@@@@@@#####&#%%======--(---;;>>><<1<<1111152444((wwtiissssssglsxlncnZVZZFDJJJKLLWRWWR/Q/",
"                         .. ..X.Xo.o+++++@@@@$@@##*#%**====--=-=---;;,<><<1<11111422004w((0desedddsdgkkbbxbbnVVFFFFKHLHRKRIWY^/W",
"                         .. ...XXoo+o+++@@@@@@#$@$#*#****====----;-,;>>><<<<<111142040000(wedesddldlzgbgxbbbVxVVVFFFKHHHRRWYWYY/",
"                       .. .....XXoXO+++@+@@@@@#@##*$*%*%*==--=---;,->>(((((((1<12106060www(deeesssldkbgxVbbVnZVZJFKFKKLRRRTWQ///",
"                         ......X.XX+o++@+@@@@#@$###$%%========----,;((><<<<1<((1212440w9ww((esddsgglggbxxbbbbZZZZFFKHLHHHWWWWYY/",
"                       . ....X.XXXXOo+o@@@@@@##@####**=*====--=--,((;>><<<<1111(14526000wwi(issssddhlxlxzbzVxVVDAJJFKLLRHWWWWQ/Q",
"                          .....XXXo+++++@+@@@#@$##$&$*%*===--=---(,;>;><<<<<<111(((696wwwwi(itissdldsxxxxbxVVVVDJVFKKLRLWRRW/YQ/",
"                        . ..((((XXoo++o@+@@@#@@#&#*&$**=%====---(--;;<<<<<<11111114((40wwtw(diddddsslxgxxxbbVVVVVJJJKKKRKWRWW~/Q",
"                       . ..((..X(((+o++@@@@@@@#$##*$***===-==-=-(-;;>>><<<<1<<112664(90wwww(ttdshsllxsxkxVbVbVVDJVFJKLKKKYRWQ/Q/",
"                        . ((X.XXXXX(((+@@@@@@##@#&$$****===-=--(---;>>><<<511<1112299(999tt(titsldslkkxgxbnVnVVVFFFKKKLHRWYWYW//",
"                       . .(....XXXX++(((+@@@@$@$##$$%*=*====-=(--;;;>>><<<<<1111162446(ttiy(iidddsldxgxxlcnVVnZFVJFLKKRRRRWY///Q",
"                       .. (..XXXXOOo+++((@@@@@$@##$$*%%====-=(----,;>>><<<<<<111616644(9t9((yssdsdsslkxxknnnZcBZJFFLHHHTRRWWQ/Y/",
"                         .(....XXOoo++@+@(@@#@@$#$$$**%=====(----;->,><<<<111111162694(t99(iysddilslkxzxnnnnVVZZVJFJHYHTHRWYQQ//",
"                         .(...XXXXo+o@@+@@(@#@@$#$$$%*====-(------;;>>><<<<<1115129444(tt9(yiiddhdllgxgblBnBZZZKJFHLLKTTTWWRQ///",
"                        ..(..X.XXOo+o+o@+@@(@#@##$#*$==*===(=-=;,,,,,<<<<1<1<1111422t4(w9iyiisiddsdskxzbbnxBVVbVVFFFHLTTTRWWQQ~/",
"                         .(...XXXXoo+@@+@@@@(#@##&$$$*====(-=----,;;;<<<<<<<1111446664(w9iiiisssgglhzxgxkbbnVVVDJFJLLFRTTWWWQW//",
"                         .(..X.XOX+oo++@@@@@(($$##$$%%=%==(=-=----;;>,><1<<1<1111244ww(wriiiisddggglgzbbVbbZVVDDVLLGLRHRRYWW/~~/",
"                        . ((.XX.X+++++@o@@@@@(##$#*****==(=-=----->>><<:<<1<111140206t(wtwiidsddggzgzkbzbbVVbVVZFJFLKKHWTWWY^^^/",
"                    .   ...(X.XXXoX++++@@@@#@((#$##%%*==%(-==---,-,>>,<<<1<1111114604w(wwriiesdsggggkzxbxbVbVVDDFFFHKKRRTYYY^^//",
"                       . ..(X.X.XXoo++@+@@@@@#(##*$****==(==----;-->,<<<1<111111105604(w99iisesdsggzxgzbbBVnbVDDFJKKKRHRWWY^^^Y/",
"                      . .. (..XXXO+++@+@@@@@###($##***==(=---=----,,,<><<<<<1111242040(wyyyiiddsgggggxxzbbbVDDDVFFHKHLHRYTWY^^//",
"                      . ....(XXXX+oo+++++@@@@##(#%%*=*==(=--=--->,->><<<<<11<11124004(wwtti((yddsllxzvbblbZnVAAVFFLKKKRWIWI/Y^^/",
"                       .....(.XXX+++++@@@@@@@###(##*%*==(===------;>>><<<1<1111126266(ww(((i(gssssskvgxxBnbVBAAFHKFKHRRLWT^^/^//",
"                    .  . ...(..XXX++@++@@@@#@###(*%&%=*=(-=-=---;->;<><<<<1<11112204(w9((tt((ssdsfgkvkxxnlnBBBJFFKKLKKIWYWWYY^^/",
"                        .....(XXoXo+++@@@@@@####((&***=(====----;;>>>><<<1<11111040(t0((tti(tsddslglkllxcBBnVAVFFFFLHHYIWYI//^//",
"                        ....o(o.oo++@+@+@@#&@@*##(%***=(==-=-----,;>><,<,1<11111414(0((wii((dddddlgbxxxxnxnVVAVJZJJKYHYHRWWQQ///",
"       (((((          . ......(oooo++++@@@@@@$@*#(***==(=-=-=---:-,>><<<<<1<114144(0(wwww((idsslddgggvxxZnBxBJVJKJKKHIRYYWWW/Q//",
"      ((   ((          . ....o(oooo++@@@@@&@@$#***(**==(===------>>>>><2<21111141(4((www((wiwslilglxgxxbxcVVVVJJFJFKHYHRWYWYQ///",
"      (     (((        .......o(o+++++++@@@@$@$@##(*=*(==-%-----;,,,><<<,1<11111(44(00((iidedsdddlxgxkxVxZnVVVZVJJKKHTTRKW///Q//",
"     ((       ((        .....o.((oo++@@@@@@@@@*##%(%*=(====----;-->>><<<<<21111(64(96((w9yiisddislkxlzxxncVVVVFFFJHLRLTWWWW~/~//",
"     (          (     .. .....oo((+++++@@@$#@$###&%(=*(==-=------>>>><<<<21<11(420((((tw9iyisidlsflkkbxbnnnVVZFFJKJLRLTTYWWQ~///",
"     (           (  .  .....o.o.O((++@@@@@@@#@#*#%%((=(======---;;>><><<<<<11(104(((4t9ttyyssssgsfkkglxxcVnZVJFZFFJLHRHRWWQ~Q///",
"     (            ((. . .....oooOoo(((+@@@@$@###*#&%(*(==-------,;;>,<<<1<11((11(((6t9t9tyiiessgslklvxbbccZZVVZJFLLLHWRRYWQQ////",
"     (             (( .....X.XXXo+o++((+@@@####$*#**(*(==------;-;;<><<<1<1((114((49wwwwiiiysysgsglxgbVVbVVVVVJFFHLHLLLWYRQ~~///",
"     ((              (  ....XXXXOo++@o@((@@#@*##$$**(((=====----;;;><<<<<<((1114(4404twwwiiiagyslgzgzbgbbbbVVJFZHHLHLLWRWWQW~///",
"      (               (......XXXoo++o@@@(((######%%==((==-=----;;;;<<<<<<1(11111(444wwwwiideadgzkgkgbzbbvbVVZVDDHHLRRRRRWWW/Q///",
"      ((             ..((..X.XXoooo@o@@@@@@((@$#*$***((-==-=----,;;>><<<<((11114(99w0wwritesaadgg(((((((((ZVZDDDKHHLLHRQYQQQ~///",
"       (              . ((...oXXoo+++@@@@@@$(($#$$$**=====-----;,>>><<<<<(1111222004wwwwwiis((((((sxgbzxb((((VKDFLFLLWWQWWQ~~///",
"        ((          . ....(.X.XXooo@@++@@@@@@$(($$**====-==-----,>>><<<<1(<11226440w0wwwt(((sislgkxbxbxbbVDBZ((DFKLLKWKLWW~/////",
"         ((            ....((XoX+oo@+@@@@#@####((%***===-=-=--;-,,,>><<1<(1112124004w((((((((dldgxggxbbbZbZBDF((HHLKKKYYWWQ~////",
"          ((         .......((XoO+o++@@@@@#@#@#$((*=*=====--((((((>><<<<1<(112244460w((iwdds((((((bxgxbVVbZBZVD((HLLJYYWYW~Q////",
"            ((          ...X.o(ooo++@@+@@@###@$#*(**=====--((--;--(><<<1<11(11226w4twwwwiiysdssdg((((gBbBnBAAAVJ(HHLIIYRWWQ/////",
"             (((        ...X.X((O@+o+@@@@@@$@$#*#((**====-=(---;>,<((<<<<111((1524060wiwiisyssdhgkzgb(((BBBVAVJK(LRLTRHWYWQY////",
"               ((       ...XoXoX((O@+@@@@##@$###**(*=*=--=((---;;>>>(<<1<11<11((4w4wwwwwyyisigffgbkbzbl(((VAAAJF(LGRHRYW/W//////",
"                 (((    .....oXXO((+++@@@@@###$#$*(**=====(----;;>>><(<<1<111261((440wtiyiiisfsxgggzbbbxn((((AF((HHHRHYWYYY/////",
"                   ((   ..XXXXXoO+((@+@@@#@#####$*(=====-((-;-->;>><><(<<1<1124449((wwiwyysesdhdxxgbxnknBnVV((((GLGWHWWLW~~/////",
"                     (( ....XXXoO++((@@@@@#@##%*$*(*=====(=-----;;<><<((<11112254000((wiyitdshdlssbgnnVBcnVVAVJFHHRLHTRRWWWQ////",
"                       (((.X.XXo++@+((@@@#@###&#%*(*%==-(==---;;>>>><<<(1111114440w0ww((yiisisddgbzxknxZnJVVJFFJHLLHWL!WWWQ/////",
"                        .(((XXXoO++++(@@@@#####**$(*===((----;->;>><><1<(<1152256600wwwi((ssdhdlzggxklnccVVVVVJKGHWHHWRR/Q//////",
"                     . ....X((XX+++++@(@@#@#####$((**==(-=(((-:->>>><<1<(1<11162460twwwtde((dsgzggzxxxnlBnBVAJFFJKKYWKRWW/Q/////",
"                     .......X((X+++@+@@(@#@##&&%%(**===((((((((;>>><,<<<(11151200406wwiweses(((gzbzzxxbbVcnJVFFKJKKHHYWWRWW/////",
"                     . ..XXXXX(((++@+@@((@#@####(*=*==(-((((((((>>,><<<1(11113626ww0wwtieiddssg(ggxbbbVbnBcAVVJFKKRRRWHWW/Q/////",
"                     .......XXoo((++@@@@((##((((%**=*=((((((-(-(;><<<<<((<11125664w0wwtwsississg((kkbbbbBAAAJFKJKLKHHYYWQQQ/////",
"                       ....X.ooo+((+@@@@@(((###**%====((((((-(>(>;><<<<(<111114046wwwwwiesisgsgggg(bbbVVAVAAVFHFJKLLWTWYW!~Q////",
"                      ....XoXooo+((@+@@@@#@###%#*%*=*(((((((((-(>><><<1(<1115514w64wwwiiiisddsgzkzz((bbvcBVAFKFHLL(RTTYWQ~//////",
"                     (((((((((((((++@@@@@@#####%&***=(((((((((-(;>><1<<(11111344400www0teeisdggggzbzV(xVBnAZFFFLHL((TWRQRW//////",
"             ((((((((  ...o.XXXo+++@+@@@@#####%#%**=((((((((((:(>><><<<(<15112666w0wwwdidddssggggvgzzg((nBAJVFFHLLL(TWRQW///////",
"       ((((((        ......XXXO+++@+@@@@@#@###**%**(((((((((((;(><<<<<((<11112014999t4tdtdissflglxxxxcnn(VVJVJFJKKKL(FWWWQ//////",
"      ((          .   . .X.XXOoo++++@@@#@@##$##***=(((((((((((((>>>,<<(511111640049tttwatssidhdlzglxxxnxV(VAZJFKKKLR((WWW/~Q////",
"     ((            ........XXOo+o++@+@@@#@###$#***(((((((((((((:,<<<<<(1<111241040ww9attdwsddhssgxxxlncVnV(AAJVKHRRLY(Y^QQ//////",
"     (               ....XX.XXoo++@++@@@@#@##$#$*((((((((((((((;,,><<<(<11112266400wt4taiddddsllxkkxxncVVV((JJJJHHHRYW(YW/Q/////",
"     (               ......oooo+++@+@@@@@@$###&$%(((((((((((((;>>,><<((11111154640w9tytitssshdslzzgxnbnVnVAV(FHJKKRRRW(WQQ//////",
"     (             .. ...O.XoXOo+++@@@@@##@##$*$(*((((((((((-(->>>><<(<211111006w40w4t9yesisshglkbkxBlnBVVVJ((FJLLKKHWY(Q///////",
"     ((            .......XoXXO+++@+@@@@@@###$$(**((((((=((-((,;,><<<(2<<11124204w49ttiydishdshggkVxbbbBBVVFF(FLKRLRWWW((///////",
"      (             ......o.XOX++++@@@@@##@*$#($**(((((((--((,->,><<((,21115224499tt9tyieisiflslgbgzbbVbVVFFFF(KLLHWRRYW(~//////",
"      ((          . .....X.XooO++@+@@@@@@@&@#(($*=(((=((--((-;;>,<,<(<<1<111124609wwwtiitdaggggvkxlxlbVbBVDVJF(KLRKQWKW/(~//////",
"       (            . (((((((+o((((((((((($#*($$*%(((((-=((--->-<,<<(<1<1111462w400wwtiitdagggggxbxxnxbBSVVHAKF(LLKKKYWWQ(//////",
"        ((        .((((..X.O(O++++@+@@@@##@#*(#***((===((---,->>>><(<111111124404wwwwdtiyggdgggzlxxxnBnVZZDDFJF(LLKWWWWW/(~/////",
"          ((((  ((((......XX(Xo++++@@@@#@###(($$=%=((((--=---;;>>>((<<<<1111126600wwtwtiaayssggzlklxlnnZVDVDFFKK(LKRRWWQ~(~/////",
"             ((( .   ...X.(((+Xo++@+@@@@##@$($$$*%*===--=--;-;;>><(<1<111112446006tw9itttaddgkgggxlknnVVZZVJJJKJ(RLRYRWW/(//////",
"                   ......((oOX+@+@+@@@@@@###($*$*=======------,>>((<<<<1111152w40wwwtiitdaaggggbkgxxncccZbVZJFJK(LTTRWWW//(/////",
"                  . . ..((X.Xooo++@+@@@#@###(($***%=%---=--;;-;>((><<1<111116226w49t9tdstgdgkggzbxxxxcZVZZBFDJFK(HTTRRWW//(/////",
"                    ...((.XOoX+++@@@@@@@#@#$#(%*%=======-----:;((<<<<<1<1123224w49t9ttttsadaygggkbxxnBBVZBFFJDKK(HRRWWW~/Q(/////",
"                   ..(((..OXX+++++@+@@@@##$##((**====-=--=--;-((>><<<1<111121649009t4attesddllgbzbzVnbnVVJVFFFHH(THWRWWW//(/////",
"                 .((((...O.XXO+X+@@@@@@#@##$$$((**=====-----;((><(<<1<<1111255404((tatitdsddhsgggkkgnnnVVVFFFJHL(RIYYYWWW/(/////",
"              (((((((....XOOX+o++++@@@@@@##@((*$((((((((((((((:,><((1<1<11115004t(((tyisisshilgxvvbVbbcVVVFFFLLK(RYHRWY/W((/////",
"        (((((( ((  ((....X.XOo+o@++@@@#@$@$$($#**=====(------;>,>><((<11111022490(99(((tssidhhglgxbkbVZVVVFFFFKL(HYRWYW//(//////",
"       ((    (((. ((....XXXXXo++o@@@@@@####($$$*=*====(-----;;>>><:1((1<111666644(tttii(dddsglggbkbbVcVcVVAJFKKK(HHWWW/Y/(//////",
"       ((   ((   ( ......XXXOo+++++@@@@#@#((#*$**%=*-=(==--;-;;><><<<((11111240w6(9tttyi((dsgghxzzxbncZVVAAJFLHL(RRTYWYY/(//////",
"        (((((   (  .......XOXo++@+@@@@@@#((##$**%===%-(-----;;>>><<<<1((11144604tw(9ttiys(sggggbglbbnVnVAVAJFFHL(HRRWYW/(///////",
"               (  . ...XOXXX+++++@+@@@@#((#&$%**=%====-(--;-;;;>:<<<<<1(1151400000(ttatgsg((gkggbxzbcnVVAVVJJHL(HYRRYWY^(///////",
"              ( . .......XXXo++++@@@@@#@(##&#%#*=*===-=(--;-,;>><<<<<<1<11221664ww(wttissddg((xlzvbbBbSBAABJJK((LLWWWWWQ(///////",
"              (    .....XXXXO+++@++@@@@#####****=*=====(-----;>>><>1<111122244w04ww(9yiysdsss((lbbzxbbSBVAJVFF(LRJJRWWW(////////",
"              ( . .. ....XOXoo++o@+@@@#@####$%***====-=(---,>,>><<<<1<1111224064www(iittsisdlg(((zbbvMVVAAVJL(LHRRYKWWW(////////",
"             (      .....XX+Oo++++@@@#@@@###*%**=*==-=-(--->-->>><<<<<1<14222w6w0www(iidssshslsx(((bZvMVVJV((HLLLLYYWWW(////////",
"             (   . .....XXXXoo++++@@@@######$****==--==-----;,;><<<<1111116269w6wwwt(tddidsdldgxlxn(((((((((KKLHLRRRWW(/////////",
"             (   ... .XXX.Xoo+++@@+@@@@###$$#*%**=====--=-,--,>>><<<<<<11111444400tt(desdshsslslblncbZBZAAAJJKHHLRRWW(QQ////////",
"             (    . ....XXXoo+++++@@@##@####$%**==*==-=---->,,>>><<<11<11124290wwwwtt(issisldgxx(zcnVxZZJVVFKJHRHRHW(///////////",
"             (   . ....X.XXoo+++@+@@@@@#@##$$*%**===-=-(((--,,<><<<1<111114446490wwtt(isdhhdllxl(bxncncZVFFLFLHRHRLW(WQ/////////",
"             (      ....XXXXoo+++@@@@@@#####$%*==*==-(((-(((,;><<<<1<11114144400996ywi(isggggggb((kVbxVVVAJFJKLJRL((WWQ/Q///////",
"             ((     ...X.XoXo+++@o+@@#@#####$*&*====((-----(,;>><<<<1<1<11106w6499i9ii(sssgggxzgz(((ZBVVZJFFJKKL(((WRQ/~////////",
"              (     ...XXXXXo++@@@@@@@#@##$##*%=*=((===---((,>><<<<<<11111224wwwt9yiiy(sddggkgbxxkb(((((((((((((TTRR!~Q/~///////",
"              (     ....XXXX++++o@@@@@####$#***%==(=--=---(;,->><<<1<<11112420449t9iii(sisggglgxgVZbnVVVVFFJKJKLTTTWL/QQ////////",
"               (      .XXXooo+++o+@@@@@####$&%*=((===-=--((-;;>;<><<111114166900t9ttiy(ssshslhxllnncnVVVVJFFHHHTRTWYWYQ/////////",
"                ((    .X.Xoo++++@@@@@@####$$#%((=*-=-=--((;;;>><<><1<2<15106440w9tttiii(sddhhssxncxcnVJVFFFJFHHTHWKWQWW/////////",
"                 (( ....XXoo++@++@@@#@@#####((***====-=((-,;<;<><<<1<211112249409t9tiis(dsdlxsgxxxcnVncVVFFFLKHRHRRYQY/Q////////",
"                  ((...X.Xooo++++@@@@##@##$(***=====-=-(---;;,>><<<<,1124120400wt9ttiii(dsdhzgbxlxnnnVVAFFFKKLHRWRWWQ/Q/////////",
"                 . .((X.XXXoo++@+@@@@@###((*%%*=%==-=-((----;><<<<<1<<22314340ww9tdwddi(sdslhlgxbxnVZVVZFVJJHKLLWTRW~QQQ////////",
"                . ....(((XXoo++++@@@#@@#(#$*****====-=(---->;>><><<<11111154006w49wwwes(sdldzgbkkVbbkVVVZJJFLLLRTWRWRQ//////////",
"                 ......XX((((o@@+@@@((((####***====--((=--->;>>><<1<111114240000t9tdeei(ssggkkxxzbkbbZnDZFFKKLHHYHWQ!WW/////////",
"                . ....XXXXXoo(((((((@#@##$$#%**==%===(----;>>><<<<<1<<112241466wttttdds(gggggzkbblVVVVZDFFJFHLHTRRHR!!//////////",
"                  ....XXXOooo@++@@@@@#@###$$****===-=(---;->>>><<11<1111162004w49t9yeis(sdhgzbgxzbbVvVZDVJJKKKHRRRYW/~~~////////",
"                 .....X.XXoo+++@+@@@@@####*#%**=====-(-----;>>><<<<<<111164440wwt9tiiis(ssdlggbzbbbVVbVVFFFFJLLRHRYW///~////////",
"                . . ...XXOOoo@+@@@@@@#@##$#*%*%**=-==(---;;;>>><<<<11<111229906t9tiiidi(gggggkbzbVbbVDVDVFFKKKLLWKWY////////////",
"                 ....X.X.Xooo+++@@@@@###$##*$*=====--(=---->;>><<<<1<1114226444t9tiitts(sgggkzgbzbbVVvZDJFFKKLLRKWYW////////////",
"              . . ....X.XXoo+@++@@@@@@@$$@****=*===-=(=---,->><<<<1<1111664696ww9ttiiyd(ddhhkkbblbnnVVVBFFFKLHRHWYWYQ~//////////",
"                 .....XXXXoo+++@+@@@@###$$*$**======-(--;;-,>>><<<<1<1111224440wwttisyd(ssslzgxgbcBVZVVJFFJKLLHWKWYWW//Q////////",
"               .. ...XXXXoooo@@+@@@@@@#@###$**=%==-==(----,,>>><<1<11111126w00w69ttyddd(ggslzzzxkbccZZVKVKJFLLWHYYWY!W/~////////",
"                 ......XXoXooo@+@@@@@$$##$$$%*%*====-(---;,;><><<<<<<11262664w0wtttywd(dggggkxgxZbnnnBVVVFKKHLHWYWYW~R//////////",
"              ... .....XOOo++@+@@@@@@#####&$$*====-==-(-;-;,>><<<<<5<52151266w4wt9yyes(sgggkkbbxbVbbVVVJJFJLHLLHYKWW/Q//////////",
"                ......XXO+ooo+o@@@@@@@###$$****====---(--;-,,>><<<<<,2<52444w0wwi6yide(ssggggzgxlbbVVVVVFJFLLRRRYWWQ/QQ/////////",
"               . .....X.OXo+o++@@@@@##@##$$#*%*====--=(---;><>><<<2521511204640wwiiiid(ddssgbgxxbbVnnVFVFFFLHLWLLWQQQ/~/////////",
"                . ..X.XXXOo+++@+@@@#@@##$$$***======--(-->->,><<1<<<<6114064w0wwwtiti(sghhllzzxxxZbVBJVFFFLFLHHWWKWWRQ//////////",
"               . ......OOXoo+@+@@@@@#######*%=*====-=-((;->>>><<<<<11111164049wwttiii(ddgggskzxvbVZnVVVVFJJLHLWHRWW/////////////",
"               ......O.XXOoo@oo@@@@@@####%&***===-=----(--,>>><<<<1<1111242000ww9iyy(yddggglzgxVZgxVVVVKFFGLLHHTWHRW////////////",
"                . ...XXXXXoXoo+@@@@@#@###*$%***===-==-=(->;>>>,<<12211111269400wtiii(ssdsgklgvgbxVZnVVFVFFJKLHWTTWWW////////////",
"              . .....X.XXOo@@@+@@@@@@###&##%%==*===-----(-;>>><<<<<,11220204w0ww9tyi(ssdggzglkzbbkbBVBZJFFLKRLHWWW~~////////////",
"               . ...X.OXOO++oo@@@@@######%#%**======-----(>>><,<<<111111144440wwwii(aadagggkgxgbnncZZVVJFFKHLLKRIWYW////////////",
"               .......XXOOoO+@@+@@@@@####*%*=*====--=--->((>>:<<1<<11111425ww06wwwi(tdagggbgxxbbncZnZZAAFKKKLKRKWYWY////////////",
"             .   ....X.XOOo@++o@@@#@#####*#**====-=------->(><<<<<<11112559400twti(dysaggggzzxbzlbBVBBVJFFHLLRHYYWYW////////////",
"              . .....XOXOoOo+@+@@@@@@#####%***=*===-=---;>:(>><<<1<1111224649wwwww(tdsggggzggxzbnbnnZZZJFHLHHLYYYWY/////////////"
};
