/* XPM */
static char *_7028_15b5e38ca63f35cc9211a3b43005d9be8174836b3a51848f4dc2683c0b78a51d[] = {
/* columns rows colors chars-per-pixel */
"64 64 61 1 ",
"  c #5D93E9",
". c #6997E4",
"X c #6B9AE6",
"o c #6197ED",
"O c #6398EF",
"+ c #6E9DE9",
"@ c #769EE1",
"# c #719FEB",
"$ c #669BF2",
"% c #699EF5",
"& c #7AA2E5",
"* c #73A1EE",
"= c #7FA6EA",
"- c #6BA0F7",
"; c #6EA2FA",
": c #76A4F1",
"> c #79A6F4",
", c #7BA9F6",
"< c #72A6FE",
"1 c #76A9FF",
"2 c #7EABF9",
"3 c #7EB1FF",
"4 c #82AAED",
"5 c #8BADE8",
"6 c #8EB0EB",
"7 c #91B3EE",
"8 c #86ADF2",
"9 c #88AFF4",
"0 c #81AEFC",
"q c #8AB1F6",
"w c #85B2FF",
"e c #8CB5FB",
"r c #8DB9FF",
"t c #94B7F2",
"y c #97B9F4",
"u c #99BBF7",
"i c #90B7FC",
"p c #93BAFE",
"a c #9ABEFC",
"s c #95C1FF",
"d c #9CC2FE",
"f c #AFC3E5",
"g c #B6C8E7",
"h c #BACDED",
"j c #A2C4FF",
"k c #A5C9FF",
"l c #AACCFF",
"z c #BACEF0",
"x c #AFD1FF",
"c c #BED2F4",
"v c #B2D4FF",
"b c #C2D4F5",
"n c #C7D9F7",
"m c #C2D6F9",
"M c #C6DAFC",
"N c #CADDFC",
"B c #CEE0FF",
"V c #D2E4FF",
"C c #D6E8FF",
"Z c #D9ECFF",
"A c #DFF2FF",
/* pixels */
"2,0,w020w2w2w,,wapi9nBNZljljieidpepe2:wwweXw0,,,7jdujjajaaal9000",
"02,>ww2w2,0w2>0,qippnBVVljuxp8eaaipp,ww:+:2>22*,uylkjataljkk0w00",
"00,0w22ww0,000p*ipaiVnNNljtkpepaeajp2we2ww222022aajjljjjayaj>000",
"w*202w2e,2:wws*,ijaiBBBnuaajadii8eed:,wr2wwww00wajkjjjaajjju00.0",
"200w0ww>rw,2eeaekkjjyjjkpqipippi202w22>2w202dqiqvjxjpupa:0#00#00",
"w,,2w2,2r2r2aqqdljyjjjjaijppiad90w2ww:22,,0>qqijvjkaaiai000,0#>0",
"0w222222w0,eprprakyjjavapiipiptp2e2:www2,,rwediijjkai99i>00wwi00",
"ww0,0www,,00id=jakyjakaviaiqapae>p2:,www,w0waiqaakjlipjiw0e0ww:+",
"2222www*eppellkjppeipqp8apap8eiepapp2w00aqd8jajjdeepw,0we0a00220",
"2w2ww:rwapeakakapp4peappeparqkpiprea2e22eepej7kjapap02,,,,0,2,,2",
"2+e2we*weeieajaupediqpqeseaaiiarrard0,20eaipkjajrdqp,2,,,#0.2,0w",
"w2:2rwwwqppajajki8peiiaeepqppq8p9edp0w00pepidajdiediw,e>000,2222",
"ppdapreq22rwtpij9ia9eqsaqdpedpk8w222derpeieqappa20ewww,0,0,,w2:w",
"prpeaapp2w2>ieepppedpepd88ipppqs2r0+spapeiqpdppaw#02#00000w+0202",
"ppppiqqq22,2didaiqe8pppapw8aeqaer2wwipdapp9ipaee2w,ww0r002ww0,w2",
"pedeedarw,p+9a9pq8ppeaaik99aqdp8we2,ppdiaeep8qea20w#0w0>w0w#0rww",
"eip8:ee2222e:w>riiqpeaiekdeq,,,w00,w,w2w00i0000:,0>02w22deaareee",
"aa4e,w+r222ww2w0eaeqppdlepaps,23,X0,22w:0:w000w0:2,,rw2*peaiarpe",
"88ee,2ww222:230*pdqppaqpaapiw22r,2,0wwww#w0>>0:wwwe22202didip88p",
"eqpp0202ew222>w0peeiapeqeiir,,2>22:w222w0,0>0,20,*2w222wepeeip9i",
"sr0,,e:+2w00pppaeeeappde22wr%131%<<;2>w:0000p9qpeqepdqiakjjakjjj",
"rww222:222w2pradeaqiraadw2221<1-<31;:ww,e000appiparpapi8jxkjkjjj",
"w22www2>2202aereperqa4d8w:,01<<O1$-;we,w>00#ppjiepad=eaeujjjjjja",
",ww:w22+e222rappe9ppeqeee2,w1;11-11<8,0,#r00iii998epepdaklljtjkk",
"*22w22w,epqiqdps0w>0r,*w<<<;-%<->0e2w,20paii8aipjjlyjjakiqip00,w",
"2:r:ww30iqdddpdp,00wdww2;1<;;-1$2w*w202wiqa8pipijjujjkuaaa9i0000",
"22,w::rwppqdkepaw0>0202w;;;;O11-0,2,20,2iap9ap9ijyjjjkjjiqpa>2ww",
",w,,ew0wearkaqpe>>,,w2w0;3-<<-<orw0200rwqjppi4ipajjjjlajpap9208w",
"wr,0,2sw,0,w,02w0>00*:2,ww,>2022wr:2ppei49ppjaljCnVBjkaueippw,0:",
">,2w02,wrww+0w>w,,,222we,2,w:22,,w-epeippaiqjjajBBnBkallii8pw00,",
",w,220,:ww,20,00w*ew2w2,,2rw0w+ww02wradqiaiijjj6BnBVuakuepii:::,",
"w*22ws*02w**2ww,0w02,,2:22w2w2w,2e+2a8eaqpuyajajBCVBljakdpi8e000",
"0>wwra=siipew2:2s22wapqe2*w2:0w2w,2,2:2*jlukVBVnatkj8qaqiiar,0,,",
"w0,09d8pi4pi0*0:re0,pi4d>w,2*pw2r02w*s2*klajCBnCuukapieppjpi:22e",
"0>0:pq8aiiepw020w>20pdp92w,w*0,,,ww,*w,0lxajbbBBklaudep8p8ddw20e",
"00,0ppp9iiqp0022rwwwdepj222*2ww2pw:2err,yddjNCNnjayjppjppparrw2r",
"pidpqpai8ppp8p8edkpk8iei*0,w0,22e2w0ydllBhBMvjjaiapppappse00w2w2",
"eiaqeseppqppppaapreeiepp0w0w0w220800kkkjMVzcyala8aijp49p222,,2,w",
"e=iedakiiqiipiikareaqpqd*220w:w20,w0aajlNmNNljykipippipp2rw,wrrw",
"k8applq8qqeakipjspapraep2w0*w20we2#0ukdumMmnlujkii49pa8@>#w,2:02",
"apepaapep9apdjjjqpepw0wr0,2>0,2ppeeejaklpappkqedraperwww2w,wpp8d",
"ppdppeppaipdkkjjpadp0,00ww,02*00p8aijjlappiipppqpape0,w22:0wapes",
"pdedeaerpppijlkarapq0020020w2,:*dapikkajd9ip8pqppqdppw,e3rwrqppp",
"eeppdpppipptyalaaerp020202,,,022siii6jkaj8jippepdeepwr0ww2224qqe",
"pejpdtlkaklaeaqsw,,202eww022peepjjajpppd002wippepppp,222X:w0aqia",
"ippajlvvkuajarkke2,,e,02w000eqpqakuj4p&p,w0*dppardie>2we2,w2qprd",
"pjp4jjkkllyk0iae2ww*ww2w,>w0qadkkjaytaidwe02eddiiaid00w,0020e&ip",
"i4ppjkkyjdljdqpq2,:w0w22:020peqpjkja9iii0,02pdrpiisa>,w200,2aejp",
"ujltjakkjpip>0*8wr2w<1<12rw,eiai,2,,,r0ww222ead=,,02>wwwsqpedee4",
"djjkjuauippp000:,r22<;31*>w2p4ps2w,>0,w220>rpeepw00wwww2appqared",
"tujjj5jkpiip,0w02w,w-1-<20w,epda2222e22:,w22peppw*,p,w>,pqqeepdp",
"akklluujqjpp0,w02www-$1<0w3wep8p002,swrw022eisap2wrww0:wdepapsea",
"NMBMluaj,+22,w#er<<;;%< >>ww,0r,ew0wasppw,:0www02*0waepeqdqrdei4",
"NfBmjlku00w+a022-1;3;3<<0*0w22,2ww,wapep0w2,X2wr22wwepedipeeieai",
"MMNNdlky*ww,w:ww <1<;;$$ww*>ww02w,,*eeae022w:2www,228apeqqpdepqd",
"mmNMaduar200w22+3<-1<OO$,rw2r0w2:2wwpeaqe2r0,ww0w2wrpdedaqaqeaai",
"jjku222w2w:2<11;;Ow-wr322,w2i8peajjjaaed2e>2:,2re2w20>00kdjjMVZm",
"jjklw22r22*w;O;-<<;-w22wr,0,iqiekjyjipea22w22:,2eee00>>0kaauMNBm",
"kjku2w>+0w22-<;;--<<2wrww,0wqiiadjxu8eed*0+www:w22e,0p00jluyMMmN",
"jjkd:2,,0e2w<111-11122w,,0rpiaapajjjaeadww20wr,222000ep4jljjcMBM",
",020r22>w2w2,222eww2ipewnCnhjujkdapj2w22,#,w,w2,2w2wjkjjnBBVkllj",
"0p0w2,2ww2,0wwwwwwr2ippabBNBkjjldpeq020,2w0,rww22>wwajkjBbCbdlkj",
"#:>2,wew0+w,,,,0>,,peeaagZbAljddpepp0w22,w2222www2*2aakuBNBnjkaj",
",00:w2022w2w,w*w2*wwpiaiVNVNuujjpasq22w20w2,wr2rw,,2kjkjBCNNukat"
};
