/* XPM */
static char *result[] = {
/* columns rows colors chars-per-pixel */
"128 128 31 1 ",
"  c #37474F",
". c #3A474F",
"X c #37484F",
"o c #38484F",
"O c #374750",
"+ c #384750",
"@ c #374850",
"# c #3A4C54",
"$ c #3D4F58",
"% c #3D5057",
"& c #3E525C",
"* c #41545D",
"= c #435761",
"- c #465A64",
"; c #485D67",
": c #475D68",
"> c #495E69",
", c #4C626E",
"< c #51616D",
"1 c #4E6671",
"2 c #4F6873",
"3 c #506773",
"4 c #516A75",
"5 c #546E7A",
"6 c #57717D",
"7 c #58727F",
"8 c #577380",
"9 c #5A7582",
"0 c #5D7986",
"q c #5F7C8A",
"w c #607D8B",
/* pixels */
"wwwwwwwwwwwwwwwwwwwwwwwwwwwwwwwwwwwwqwwwwwwwwwwwwqwwwwwwwwwwwwwwwwwwwqqwwwwwwwwwwwwwwwwwwwwwwwwwwwwwwwwwwwwwwwwwwwwwwwwwwqwwwwww",
"wwqqwwqwwwwwwwwwwwwwwwwwwwwwwwwwwqqwwwwwwwwwwwwwwwwwwqwwwwwwwwwwwqqwwwwwwwwwwwwwwwwwwwwwqwwwwwwwwwqwwqwwwwwwwwwwwwwwwqwwwwwwwwww",
"qwwwwwwwwwwwwwwwwwwwwwwwwwwwwwwwwwwwwwwwwwwwwwwwwwqwwwwwwwwwwwwqwwwwwwwwqwwwwwwwwwwwwwwwwwqwwwwwwwwwwwwwwwwwwwwwwwwwwwwwwwqwwwww",
"wwwwwwwwwwwwwwwwwwwwwwwwwwwwwwwwwwwwwwwwwwwwwwwwwwwwqwqwwwwwwwwwwwwwwwwwwwwwwwwwwwwwqwwwwwwwwwwwqwwwwwwwwwwwwwwwwwwwwwwwwwwwwqww",
"wwwwwwwwwwwwwwwwwwqwwwwwwwwwwwwwwqwwwwwqwwwwwwwwwwwwwwwwwwwwwwwwwqwwwwwwwwwwwwwqwwwwwwwwwwwwwwwwwqwwwwwwwwwqwwwwwwwwwwwwwwwwwwww",
"wwwwwwwwwwwwwwwwwwqwwqqwwwwwwwwwwwwwwwwwwwwwwwwwwwwwwwwwwwwwwwwwwwwwwwwwwwwwwwwwwwqwwwwwwwwwwwwwwwwwwwwwwwwwwwwwwwqqwwwwwwwwwwww",
"wwwwwwwwwwwwwwwwwwwwwwqwwwwwwwwwwwwwwwwwwwwwwwwwwwwwwwwwwwwwwwwwwwwwwwwwwwwwwwwwqwwwwwwwwwwwwwwwwwwwwwwwwwwwwwwwwwwwwwwwwwwwwwww",
"wwwwwwwwwwwwwwwwwwwwwwwwwqwwwwwwwwwqwwwwwwwwwwwwwwwwwwwwwwwwwwwwwwwwwwwwwwwwwwwqwwwwwwwwwwwwwwwwwwqqwwqwwwwwwwwwwwwwwwwwwwwwwwww",
"wwwwwwwwwwwwqwwwwwwwwwwwwwwqwwwwwwwwwwwwwwwwwwwwwwwwwwwwwwwwwwwwwwwwwwwwwwwwwwwwwwwwwwwwwwwwwwwwwwwwqwwwwwwwqwwwwwwwqqqqwwqqqqqq",
"qwwwwwqwwwwqwwqwwwwwwwqwwwwqwwqwwwwwwwwwwwwwwwwwwwwwwwwwwwwqqwwqwwwwwwwwwwwwwwwwwwwwwwwwwwwwwwwwwwwwqqqwwwwwqwqwwwqqqqqqqqqqqqqq",
"wwwwwwwwqwqwwwwwwwwwwwwwwqwwwqwwwwwwwwwwwwwwwwwqwwwwwqwwwwwwwwwwwwwwwwwwwwwwwwwwwwwwwwwwwwwwwwwwwwwwqqqqqwwwqqqqqqwqqqqqqqqqqqqq",
"wwwwwwwwwwwwwqwwwwwwwqwwwwwwwwwwwwwwwwqwwwwwwwwwwwwwwwwwwwwwwwqwqwwwwwwwwwwwwwwwwwwwwwwwwwwwwwwwqwwwqqqqwwqq0qqqqqqqqqqqqqqqqqqq",
"wwwwwwwwwwwwwwwwwwwwwwwwwwwwqwwwwwwwwwwqwwwwwwwwwwwwwwwwwwwwwwwwwwwwwwwwwwwqwwwqwwqwwwwwwwww0ww0qqqqqqqqqqqqqqqqqq0qqqqqqqq88q8q",
"wwwwwwwwwwwwwwwwwwwwwwwwwwwwwwwwwwwwwwwwwwwwwwwwwwwwwwwwwwwwwwwwqwwwwwqwwwqwwwwwwwwwwwqwwwwww0wwqwqqqqqqqqqqqqq0qq0qq8q8q8qqqq8q",
"wwwwwwwwwwwwwwwwwwwwwwwwwwwwwwwwwwwwwwwwwwwwwwwwwwwwwwwwwqwqwwwwwwwwwwwwwwwwwwqwwqwqqq0www0wwww0qqqqqq8qqqqq9qq0qq0qqq8q8qqqq8qq",
"wwwwwwwwwwqwwwwwwwwwwwwwwwwwwwwwwwwwwwwwwqwwwwwwwwwwwwwwwwwwwwwwwwwwqwwqwqqwqqqww0qqw0ww00w0w00wqqqqqqqqqq8qq99q90098qqq8q8q8q8q",
"wwwwwwwwwwwwwwwqwwwwwwwwwwwwwwwwwwwwwqwwwwwwqwwqwqwwqwwwwwwwwwwwwwqqqqqqqqqqqqqq0qqqqq0qw00w00009w9w9ww9w99ww99w0q90q909q9000099",
"wwwwwwwqwwwwwwwwwwwwwwwwwwwwwwwwqwwwwwwwwwwwwwwwqwwqwwwwwwqww0wwqqqqqqqqqqqqqq0q0q0q000q0w000000w9w9w99w9w999w99900990099q909990",
"wwwwwwwwwwwwwwwwwwwwwwwwwwwwwwwwwwqqwwwwwwwwwwwqwwwwwwqqqq0wwww0qqqqqqqqq00qqqqq0q00q00000000000999w9ww9w99w90w99q99999999999099",
"wwqwwwwwwwwwwwwqwqwqwwwwwwwwwwwwwwwwwwwwwwwwqqqqqqqqw0wqq0w0w0w0qqqqqqqq0q00008qq0000000000000007ww9999w999w99999990q99999999999",
"wwwwwwwwwwwwqwwwwwwwwwwwwwqwwwwwwwwwwwwwqwqqqqqqqqqqqqqqwqw0w00wq8qqqqqq000000000000080000900009ww79w9999w9999999908999999899989",
"wqwqwwwwwwwwqqwwwwwqwwwwwwwwwqwwwwqqww0wqqqqqqqqqqq00q0q00000900qqqqqqqq0000000q000000800090999979w99999999999998999089999899989",
"wwwwwwwwwwwwqqqqwwwwwqwwwqqqqqwq0wqw0qw0qq0qqq00qwq000w0000q0w008qq8q8q800000,,,8000800009909099w9799999999999999989998888989888",
"wwwwwwwwwwwwqqqqqqwwqwqqqqqqqqqqww0q0q0wqqq0000q0000q000000000008qq8qq8qq8008,,,,98008089999999979799979999995998888888889888988",
"wwwqwwwqqqqqqqqqqqqqqqqqqqqqqqqqw0w0w900w00000w900000009000900w9q8q8q888q8q8,8,0,,0999999999999979997979797959999999595989858598",
"wwwqwwqwqqqqqqqqqqqqq8qqqqqqqqq89w9www9w0000009w00000000099009098q8q8qq88q:2,,,,9,,999999999997779799787977979595955979788888895",
"qqqqwqqqqqqqqqqqqqqqqqqqqqqqqqqq00009w0009000009000090909090909988q8q88q8:282,2:,,,989998998997879788789797775997879599788889559",
"qqqqqqqqqqqqqqq8q8qqq8q8qqqqq8q809w09990000909099999009900999990qq8888q8q2:2,,:2,,,,99888888598977967776959759759585755548555855",
"qqqqqqqqqqqqq8qqqq8qqq8qqqq88q8q0900900999009900909999999999999888q88q8qq2,,,,,,,,1,,8988895999767676767777957775559957977595857",
"q8qqqqqqq8q8qqq88q8q8qqq88qqq8q800900090909909999999999999999999q88888qq,2,,,2,,,1,,1w898879955976767666775557575975555555555555",
"qqq8q8q8qq8q8qqqq8q88q8q8qq88q8q99098009999908999999899979979897888888q2,,,,,,,,,,,,,,ww5885559976666766757595555555755755755555",
"qqqq88qq8q8q8q8q8q8qq8q8q88q88q80999989809999999999998999979897988888qq2,,,,,,,,,,,,,,,ww<59595566665566575755757755555575555555",
"8qq80080089000089999999999909999999999999959999579787996996887877777www<=8>=>=>-,,,1,,,,wwww777556757755558855555855555555545555",
"q88q008q000980909999999999999999999999599999999997797777777786777777www<>=8888>8,,,,,,,,<57ww55765555557854555555555555554555454",
"8qq8808080009099999999999999899889989889899999897777777966768766777www<w<8=>=>,,,,,,,,,,<756ww5556555555848455555555455554454554",
"88q80800088989989999999999999889989899599559899<776777666966756799ww<www9=8>=8,,,,,,,,,,<<555w1555555545454854454544554445455454",
"8q808808979999999988888899889899<999995995958595667676678675776687w<,0<ww=<<->,,1,,,,,1,<<<555w>55555555844445845545454544444444",
"8808088099998988888988888988889999<88998959959596666665666666557<w<<,=www88>8,,,,,,,,,,,<4><55w<>5355454444544444454444445444445",
"88808088777888898888888888<999998998<9<8559595586665666555655665ww<<>8880==>,,,,,,,,,,1>1,,5,55w5>555444484445444444444444444442",
"8088888889988888888888888899<98<8<989999595559556565656556565555w<<<<<><<8<<,,,,,,,1,,,1><,,,45ww<<<4454445444444444444444432422",
"9769888877887777888888<8<888888848883838555855855655655565564664<<=>,,,,,,,,,,,,,,,,,,,,,,,1,,,,www<,444434444444243244334334333",
"69886866778877578<888<88888<<88<88448888958<<<55555555554554564,<<8<,,,,,>,,,,,<,,,,,,3,,,,,,,,,<<www,44444444434244233343343323",
"668677877575778588<88<888888888858888383<5<<<<<<555555555546466,<<<<,,,,8:,,,,,>,,,,,,<,,,,,,,,,,,<44,,4343433333342423212113122",
"866766677775575788888888<8888<8<844838389<<58<<<55555545645544,,<<><,,=8,,,,,,8:3,,,,,,,1,,,,,,1,,<<334,,43343334113211111311112",
"666675756657577>>888<8>8888888<8455483888<;88<<<<5444464454545,,,,,<,,,,,,,,,,,,,,,,,,,,1,,,,,,,,,,,4334,,,,33331111113311111111",
"6665755658557>>1=88888888<8<8>8848553833;;83<888<<55652444445,,,,,,,,,,,,,,,,>8,,,,,,,,,,,,,,1,,,,,,,,33113,,111111331,111131111",
"655665755665,,1,=>-88<<8888<88>85454<8<<<338<8<85,<444454544,,,,,,,,,,,,,,,,,,,,,,,,,,,,,,,,,,,,,,,,,,,33111,,111111,1,1111>11>1",
"565555555555,,,,8<>*8888>8<8>8885545838<<88<8<8<44<,4444444,,,,,,,,,,,,,,,,,,,,,,,,,,,,3,,,,,,,,<,,,,,,,,1111,,11,1113,1,,11>1>1",
"5555555583>,,,,,,,,,,88,8:88:88>444544<<44444444444*3444444,,,,,,,,,,,,,,,,,,,,,,,,1,,1,,,,,,,,,,,,,,,12,,,1,1,,,11,,,,,1,,,,,,,",
"555555558,,,,,,,,,,>,,<88><8:88-44543<<<44544444244**34324,,,,,,,,:8,,,,,,,,,3,,,,,,,,,,,,,,,,,11,,,,,,,11,1,,,,,,,,,,,,,,,,,,,,",
"55555545,1,,,,,,,,,8,,,8888<8<8844444<<4343444444343**43,,22,,,,,,>><,,,,,,,3,,,,,,,,1,,,,,,,1,,,,,,,,,1,,,,,1,,,,,,,,,,,,,,,,,,",
"54544454,,,,,,,,,,,,,,,,<8-8>8>84434<<444344422223223**,,,,,,,1,<,,,,,,,,3,,,,,,,,,2,,,,1,,,,,,,,,,1,,,,,,,,,,,,,,,,,,,,,,,,,,,,",
"544545<<,,,1,,,,:8,,,,,,<8>88>8>3833<<3333433222333333**<,,,,,,,,8,,,,,,,,,,,,,,,,,,,,,,,,,,,,,,1,,,,,,,,,,,,,,,,,,,,,,,:,,,;,,;",
"554445,>,1,,,,3,>,,,,,,,888->8>8,333<<3331132212111133<**<,,,,,,,:,,,,,,,,,,,,,,,,,,,,,,,,,,,,,,,,,,,,:,,,,,,,-,,,,,,:,,,,:;,;;,",
"34454,,<,,,,,,,,,,,,,,,,,,8<8:8<3333<3331311211113,3113,***1,,,,,,,,,,,,,,3,,,,,,,,,,,,,,,,,,,,,,>,,,,:,;,,,,,,-,,,;;:,:,,,,,;,;",
"3444,,,,,,,,,,,,,,,,,,,,,-=8=8<>33,<<333131131111131,111<1**,,,,,,,,,,,,,,,,,,,,,,,,,,,,,,1,,,,,,,,>,:,,,,,,,-,,,,;,,,;,,;;,,,,;",
"444,,,3,,,,,,,,,,,,,=><><=>88>,833,<111,11111,1,,1,1,,,11,1**,,,,,,,,,,,,,,,,3,,,,,,,,,,,,,,,,,,>,,>,,>>XXX,,--,,,,;-,-,::,;;,,,",
"34,,,,,,,,,,,,,,,,,,8>8=>88==88-,<<<111111,11111,1,1,,1,,,,,**,,,,,,,,,,,,,,,,,,,,,,,,,,,,,,,;,;>>>,>>,X,,XX,-,,---,,-,,;:;;;;-,",
"43,,,,,,,,,,,,,3>>8:8==8,>=<,,8,,<,31111,,11,,11,,,1,,,,,,,,,**,,,,,,,,,,3,,,,,,,,,,-,,,,;,:;,,,>,:>,:XX--,XXXX-,-,---;-;;,;-,-,",
"3,,,,,,,,3,,,,33<:8>=8>>,=8>,,=-<<<,,1,,11,,,,,,,,,,,,,,,,,,,,,,+,,,,,,,,,,,,,,,,;,:,::,;,,;:,,:>>>>::X:,-,--,XX,---,:--;;-;---=",
"3,,,,,,,,3,,,,,,,,8->>8=,8>,,,,8,<<&,,,,,1,,,,,,,,,,,,,,,,>,,>,,,,+:,,,,,,,,,,,,,,-,;,,;,,,;;,:,::;;:X::,------X--,-,--,;-,-;-;-",
",,,33,3,3,,,3,3,,,,,-8=8,=<=,,,<<3<,,,,,,,,1,,,,,,;,,,,,,,,,>,,>,,,+,,,,,,,,,,,,,-,:-;;,:,,,;;::;,;;XX;:-,,--,-,X---------=-----",
",,,,,,3,,,,,,,,,,><,>=>>,,,8,,,<<<<,,,,,>1>,,1>>,,,,,,,,,,>,,,>,,::,++,,,,,,,,,,,,--,-;;;,;;;;:::;;XX-;;--,-;---,X--;-=,--------",
",,,,,3,,,3,,,,,,8-,,>88=,,,,,,<,<<,>,,,,,>,>>>>1,,,,;,*,;;,;;>>>:,:::+<<,:,,,:,,,,,,;;;;;;;;;;;-;;-X;;-;-----;;-=-XX--=----=----",
",,,3,,,,8,,,,,,,8:>==88>=88<8<<=<<&,,,>,,>>,,,<>,>,>,>>>>>>>>>>>:>:>>>><&<<>>::,,,::>>:=>=>>------++>;=>--=;;=---;=+O----=-=---=",
",,,,,,,,:,,,,,,,==88<>=>>==>=<<8,<>>>>>,,>,,>>>>>>>>:>>>>>>;>:>::>>>>--<<<<->::,>,>=:=:>>:>=,-->>+++;->=;-;==;;=-==;O-==---===-=",
",,,,,,,,:,,,,,,,:>&><:=><>=>=8<><&>,>,>>>>>>>>>>>>>>>:>>>>::::::>-:=>>->=<<<<::=<=:=>:>>=>=----++++==>=-=;;=;-=-=;=;+====-=--===",
",,,,,,<,,>>,,>,:8>8><>8=>>8><=<<<1=>>>>>>>>>>>>>;;;>:>:::>::::::->>>->->><<<:<=:<:-<=====-=>--+++++===-=-==-===-=====+++========",
",,<,>>,,,,,>>,>,=:8=8&:=88=<<<<<<,&&;>;>>>:>;;;;;;:;::;::;;;:::->=>>=><=<<<<==<,<--=<==<>==>=+++++-----===-=-=-======-=+O=======",
",,,>,,,>>>,><<,:=<>=:<:8=->><<<<<<*1>>>;>:>-;;>;>::::-;-;;;;-:--,==><<=<<<<<<::=-=--====>=-=++++++=-====================OO ===&=",
">,>,>>>>:,>>>>>>>>>>::==<-<<8=<<<<<<;<-:->->;;;;;;;;;-;;;;=;----==>==<<<=<<<<<=:<*=======-=+++=+.======-================*=OO=*=*",
">>>>,>>,>>:,>>>>>:>>::<8=:<<><<<,<,&<<>;;:-;-*<<-----;=;=-;=----=>=:=<<<<<<<<<&====<==*<==++++++..============*===***=*****OO=*&",
",>>>>>>:<:::;;<->>>->>>=:<<<,<=<<<<<<<<>---:-<<<&-;-=--=-----&:-<**<**<<<<...<<*<**=====*.........=======*=*************&***O. *",
">>>>>>>>;;::;;::>=>>:->>=<<&<<8<<<*<<<<<--*&<<<<<&--;&=;---&--&&$<$.**<<<<<..<<<***===*++...<.<..===*****==****************%*.&O",
">>>>:::>:-:;<:-->>>->-=>*+<,&-<-&&&<<<*<--&&<<<;<&;--&&-&--&&--&*<*<**<<<+<<...<<*====++++..$*...==**********&*******.*.*&**%...",
">>=>-::::;:;--::>==>=>>=O8&<&8<$&&&3<<<<-3&&<<*=<&=--&&=&&-=&==&*..<**<*<++<....<**=++++++.***...*****************#**...+*.**..*",
"-;;-:-:-;-;;-;:-::=::-:->>&<,,8&=&*<<<<<<<**1,&&1&-=&&&-=&-=&&==*****<****......<<*++++++****....**$******$***********......%*..",
";;:;:---;-:=----==::=:$88&&<,:&&-&&<*<**<<**<&==,&&-&&&==&&=-&==$**=*=****..........++++$****...*****$$*&*&*$&$**#*$**.....*+.*.",
"--;-;;:---=;-=----=-==<+#&&<,,&&&&&&$***&1<<*&&&,<&==&&&==&=&&==*****=.<*...........++********..*.****$*&*&*$*&$*%#$*#*.....#...",
"----=---:=;-=;---=--==<+&&&&<&&&&&&&&***&=*&&=&&&<&&=-&&==&=&=&=**********<.........++*$*$****..$.*$$**$&$$$$*&$*$$*.**.......*$",
"---=--===>=;==--=-=-=<++*&&&&&&&&=&&&:&:&&:&&&&:&11&&&=&=-&&*=$&**&**&**...............*<.***.....***$*#**.**#*###$*%%*$.......*",
"----=>=:-==;=-==-====<++&&&&&&=-&&==&&&&&:&&&&&&&=<&&=&&&&&&=&&&*&*&***+...<.............*.**.*...*#$*#*.#..#*#*$*$##*#$........",
"--=--=-===-===-=====3<+++=&&=&&=&&&&&&&&&&&&&&&&&&&&&==&&&=&*****&*&**++.*................**......$*#**#*#..*...$$$#$##$......*.",
"===================*<++++O=&&&&=&&&&&&&:&&&&&&&:=&&&&&&&==&&$***&&&**+++..........................$#*##..#....*..$#$#*##........",
"=-===============*=<<+*.++&&&&=&&=&&&&&&&:&&&&:&=&&=&&&&&&&&&&++$*$*++.....*.......................*#*...$....*..#.*.#*.*.......",
"=*============*=**<3++*.++&&=&=&&&&:&&&&&&&&&&&&&&&&&&=&&&=&&&++.*$$++...................*..*.....#.*....#.......#....#.........",
"========*****=*=**<+++..+.*$&=&&&&&&&&:&&&&&&&&&&&&&&&&&&$&&&$O+.$$$..............................#............*#......#........",
"=**=****=*=*=***$+++++.+*.$*&&&&&&&&&&&&&&&&&&&&&&&&&&&%&&&&$&OO..$.......*....................<..*...*.........#.............*.",
"**********$=*=&=++++++.*..******&&&*&&#*&&&&&&O&=$$&&&$$...*.*..$.$.......$.........................#...........##.....#........",
"*************$$*++++++....**+**.+&$$&$**&&O&&&&&$*$$&&$$......*..$............................... ..............................",
"*&**&**********$+++++.......++..+*$&&&$$&&&&O&$$*##*$$$$..............................<............................#.#..........",
"****&&%**$*$&$*++++.+........+..+&*$$$*#&&&O&$$$#*##$$$$.......*.................................o...#.........#......o.........",
"&&&**$**%**%$*&+++......+..$....#*$$*$$*$$$$$&$$#..**......*.........$........$............................+...@.. ...o.... X . ",
"*&*%*$$$%$*%&$OO+...............+++++$+#$$#$$OO$*..#.*...................................................o.##..O.. .... ..    X ",
"%$%%&*$**$*$$$OO..................++++OO#$$##$$$#..#.....*....................$....................#.... ..  .. OO..X  .   X    ",
"**%*&%$%$$$$$OOO...................#+++OO##$##$O.#.##......................................................   .  ...   X X      ",
"$$%%*$$$$$$#OOOO.....*.....................####..#...#.+............#.......@...@@........@O@X...   .+.. o.@X O  OX.. @      X. ",
"$$$$$$#$$$$ OOO+........*......*.#*.....*.#.###.#.#.#.*........*........##..@#..#  #@....X..X        X..@..    o      .    .X   ",
"$$$$#$$$$$OOOO@..................#........#.....#.................#..... ...@+@@   X X......  O   +    ... OO  o       X O      ",
"$$##$$###OOOOOO..................#....#........................+...XX.#.    @. O   O ....o O     OX  X . .  O.     +       O    ",
"#$$###%#OOOO ........*...........#..#.......................#.@ . .  .XO X   XXX. O.   ..+.   O   .O XXO .O XX @. O .       X O ",
"####$##oOO+O ....................#..........................   ..    .    O. .OX     OOX.o        X       +.  OXO+   O @       .",
"######o#OOO+.............................*.............. . .   .    X       @         .  .        @ X       @         .  . .  X ",
"######  OOO+.......#................o..............   .  ..         . @ @  .O               .O         .@ .@                    ",
"#####OOOOOO...o#....................+.. ...   O.     X . O          O   X     O   O      O X   .              O O O      O X    ",
"##@ OOOOOOO...#.o.... .....................X    .      + O       O   .    .       O   O+ O       O   .    .  .         + O      ",
"##O@OO  ++........... ..........X ..  ..    O   ..   X  .  O O@ X           O              O  @        o    O        .     O O@ ",
" OOOO  #O........X .   .........O...  ..OO     X....               X    OO  O   O       X       O  X   .O      X+     XX     .  ",
"  OOOOOoO.X Oo.  X..   .    .... X..o       O . .            X   X  .    X  OX   X           .   X  .       O   OX              ",
".OOOOO O      O    O        .. ..X+.X         O    O .  X X O OO XO  O        O    O. X  .  O O@ XO XO O  X   O    O  X   X O OO",
"OOO      . X   .OX O          ...    .X    X             .   O       .     X   .OX O     O O               X   .OX O     +O     ",
"OO @  OOoO   OXo  X. .  .       .  X  OOXO + OX.               .   X  OOX  . OXX  X  . X           O  OO O   OXo  X. . X       .",
"           O     O      O  X OXX  X.    .  O     O XOX  O  X.OXX   .       O     O X    O  X O X           O     O  .   O  X.OXX",
"     X   OO  .    @ .    o  .        X   OO                      O   X   O   .       O   +  .  .     X   OO  .    X      .     .",
" @ O .      XOO XO  O X   O  o O   O +   O  XO  XO  O XO  O  o O O O .   O  XOO  O  O XO  OX oXO O O .       OO XOO O X   @    O",
"   O  X             O    . @OO  X     X             O    . OOO        X             O    . @OO    O   X             O      @ O  ",
"       O         O .    OOX            O    X  .   .        .        X OX O X      .          O       XO         O      OO    O ",
"     X     O OX      O   @        O          OX          @           X    .  O       O   @           X     O OX      O   @      ",
"  X.   O        X X       O  .    X  O          XX  .     O       X. O O       OXXX   .   O       X.   O   X    X X . X   O  o  ",
"@  @ .XX   X.  .              OX@  @ .X    X   .       .   @  OXO  @  XX       .         .    OXOX @ . X   X.  .         .    OX",
"o            O    O. O O  O     X O                + O O  O     . O               O. O O        X O .   O         O. O O  O     ",
"        OX   O O     O.  X   .   .  .      @.O +     O.  X   .           X XOO +     O.                  X XOO O     O.  X   .  ",
"  X        X  O XO O   X          X O    O.X  O XO +   X       O    O X    X  O XO O  XX      XO  X O      X  O XO O   X        ",
"  #    .O     .  O   X  .  X   X  +     O   X .  O  .X     X O X  +    .      .  O   X   .     XX +    .O     .  O   X     X   X",
" O       X X  O      O O.  O     O  X    X X      O    O  .O  .  O       X X  O    .  XO.  O     OX      X X  O       OOX  O  . ",
"  .        O .  O.    .             .      O    O.   O     X  X        X   O .  O     .    O  X   .        O .X O.    .         ",
"       ..OX     OO   X O X          @   OOX     OO .   O   X      .OX  .OO      OO     O   X        @  ..OX     OO     +  O     ",
"        XX O  X  .  O  X XO O   @.     XX  OX.X     O  X XO     X      XXX O .X  .  O  X XO  .  @       X  O  X  .  OX X XO     "
};
