/* XPM */
static char *e02353f8db7246d0d01fadf0bb02af0edbSrkYDxOqLu6ZSI[] = {
/* columns rows colors chars-per-pixel */
"128 128 5 1 ",
"  c None",
". c gray17",
"X c #E53935",
"o c #B2BEC4",
"O c #ECEFF1",
/* pixels */
"                                                                                                                                ",
"                                                                                                                                ",
"                                                                                                                                ",
"                                                                                                                                ",
"                                                                                                                                ",
"                                                                                                                                ",
"                                                                                                                                ",
"                                                                                                                                ",
"                                                                                                                                ",
"                                                                                                                                ",
"                                                                                                                                ",
"                                                                                                                                ",
"                                                                                                                                ",
"                                                                                                                                ",
"                                                                                                                                ",
"                                                                                                                                ",
"                                                                                                                                ",
"                                                                                                                                ",
"                                                                                                                                ",
"                                                                                                                                ",
"                                                                                                                                ",
"                                                                                                                                ",
"                                                                                                                                ",
"                                                                                                                                ",
"                                                         ...                                                                    ",
"                                                        ..XX..                                                                  ",
"                                                       ..XXXXX..                                                                ",
"                                                      ..XXXXXXX.                                                                ",
"                                                      .XXXXXXXXX..                                                              ",
"                                                     ..XXXXXXXXXX..                                                             ",
"                                                    ..XXXXXXXXXXXX..                                                            ",
"                                                    .XXXXXXXXXXXXXX..                                                           ",
"                                                    .XXXXXXXXXXXXXXX..                                                          ",
"                                                   .XX...XXXXXXXXX....                                                          ",
"                                                   .X....XXXXXXXX.OOO..                                                         ",
"                                                  .XX...XXXXXXX..OOOOO..                                                        ",
"                                                  .XXXXXXXXXXXX.OOOOOO...                                                       ",
"                                                 .XXXXXXXXXXXX..OOOOOO.XX.                                                      ",
"                                                 .XXXXXXXXXXXX.OOOOOOO.XX.                                                      ",
"                                                 .XXXXXXXXXXXX.OOOOOO..XXX.                                                     ",
"                                                .XXXXXXXXXXXXX..OOOO..XXXX..                                                    ",
"                                                ..XXXXXXXXXXXXX......XXXXXX..                                                   ",
"                                               .O..XXXXXXXXXXXXXXXXXXXXXXXXX.                                                   ",
"                                               .OO..XXXXXXXXXXXXXXXXXXXXXXXXX.                                                  ",
"                                              .OOOOO..XXXXXXXXXXXXXXXXXXXXXXXX.                                                 ",
"                                              .OOOOOO.XXXXXXXXXXXXXXXXXXXXXXXX.                                                 ",
"                                             ..OOOOOO.XXXXXXXXXXXXXXXXXXXXXXXXX.                                                ",
"                                             .OOOOOOO.XXXXXXXXXXXXXXXXXXX..XXXXX.                                               ",
"                                             .OOOOOOO.XXXXXXXXXXXXXXXXXX...XXXXXX.                                              ",
"                                            .OOOOOOOO.XXXXXXXXXXXXXXXXXX....XXXXX.                                              ",
"                                            .OOOOOOO.XXXXXXXXXXXXXXXXXXXX..XXXXXXX.                                             ",
"                                           .OOOOOOOO.XXXXXXXXXXXXXXXXXXXXXXXXXXXXX.                                             ",
"                                           .OOOOOOO..XXXXXXXXXXXXXXXXXXXXXXXXXXXXXX.                                            ",
"                                          .OOOOOOO..XXXXXXXXXXXXXXXXXXXXXXXXXXXXXXX.                                            ",
"                                         ....OO...XXXXXXXXXXXXXXXXXXXXXXXXXXXXXXXXXX.                                           ",
"                                         .XX....XXXXXXXXXXXXXXXXXXXXXXXXXXXXXXXXXXXX.                                           ",
"                                        .XXXXXXXXXXXXXXXXXXXXXXXXXXXXXXXXXXXXXXXXXXXX.                                          ",
"                                       .XXXXXXXXXXXXXXXXXXXXXXX........XXXXXXXXXXXXXX.                                          ",
"                                       .XXXXXXXXXXXXXXXXXXXXXX..OOOOOO..XXXXXXXXXXXXXX.                                         ",
"                                      .XXXXXXXXXXXXXXXXXXXXXX..OOOOOOOO.XXXXXXXXXXXXXX..                                        ",
"                                      .XXXXX..XXXXXXXXXXXXXXX.OOOOOOOOO.XXXXXXXXXXXXXXX.                                        ",
"                                     .XXXXX...XXXXXXXXXXXXXXX.OOOOOO....XXXXXXXXXXXXXXXX.                                       ",
"                                    .XXXXXXX.XXXXXXXXXXXXXXX..OOOO...XXXXX..XXXXXXXXXXXX.                                       ",
"                                   ..XXXXXXXXXXXXXXXXXXXXXXX.OOOO..XXXXXX...XXXXXXXXXXXXX.                                      ",
"                                   .XXXXXXXXXXXXXXXXXXXXXXXX.OOOO.XXXXXXX...XXXXXXXXXXXXX.                                      ",
"                                  .XXXXXXXXXXXXXXXXXXXXXXXXX..OO.XXXXXXXX..XXXXXXXXXXXXXX.                                      ",
"                                 .XXXXXXXXXXXXXXXXXXXXXXXXXXX...XXXXXXXXXXXXXXXXXXXXXXXXXX.                                     ",
"                                 .XXXXXXXXXXXXXXXXXXXXXXXXXXXXXXXXXXXXXXXXXXXXXXXXXXXXXXXX.                                     ",
"                                .XXXXXX.......XXXXXXXXXXXXXXXXXXXXXXXXXXXXXXXXXXXXXX....X..                                     ",
"                               .XXXXXX..OOOOO..XXXXXXXXXXXXXXXXXXXXXXXXXXXXXXXXXXX...OO....                                     ",
"                               .XXXX..OOOOOOOO.XXXXXXXXXXXXXXXXXXXXXXXXXXXXXXXXXX..OOOOOOO..                                    ",
"                              .XXXX..OOOOOOOOO..XXXXXXXXXXXXXXXXXXXXXXXXXXXXXXXXX.OOOOOOOO..                                    ",
"                             ..XXX..OOOOOOOOOO..XXXXXXXXXXXXXXXXXXXXXXXXXXXXXXXX.OOOOOOOO...                                    ",
"                             .XXXX.OOOOOOOOOOO..XXXXXXXXXXXXXXXXXXXXXXXXXXXXXXXX.OOOOOOOO.X.                                    ",
"                            .XXXXX.OOOOOOOOOO..XXXXXXXXXXXXXXXXX....XXXXXXXXXXXX.OOOOOOO..X..                                   ",
"                            .XXXXX.OOOOO......XXXXXXXXXXXXXXXX...OOO...XXXXXXXXX..OOOOO..XX..                                   ",
"                            .XXXXX..OO...XXXXXXXXXXXXXXXXXXXXX.OOOOOOO..XXXXXXXXX..OO...XXXX.                                   ",
"                           .XXXXXXXX...XXXXXXXXX..XXXXXXXXXXXX.OOOOOOOO..XXXXXXXXX....XXXXXX.                                   ",
"                          .XXXXXXXXXXXXXXXXXXXX....XXXXXXXXXXX.OOOOOOOOO..XXXXXXXXXXXXXXXXXX.                                   ",
"                          .XXXXXXXXXXXXXXXXXXX.........XXX......OOOOOOOOO..XXXXXXXXXXXXXXXXX..                                  ",
"                          .XXXXXXX................    ...........OOOOOOOOO.XXXXXXXXXXXXXXXXXX..                                 ",
"                          ..XXX....                   ...oooo.................XXXXXXXXXXXXXXX..                                 ",
"                           .....                      ..oooo..             ....XXXXXXXXXXXXXX..                                 ",
"                                                      .oooo..                 ..XXXXXXXXXXXX...                                 ",
"                                                      .ooo..                   .....XXXXXXX...                                  ",
"                                                     .ooo...                       ..........                                   ",
"                                                    ..ooo..                                                                     ",
"                                                    .ooo..                                                                      ",
"                                                   ..oo..                                                                       ",
"                                                   .ooo.                                                                        ",
"                                                  .ooo..                                                                        ",
"                                                 ..ooo..                                                                        ",
"                                                ..oooo.                                                                         ",
"                                                .oooo..                                                                         ",
"                                               .ooooo.                                                                          ",
"                                               .oooo.                                                                           ",
"                                              .ooooo.                                                                           ",
"                                              .oooo.                                                                            ",
"                                             .ooooo.                                                                            ",
"                                            ..oooo..                                                                            ",
"                                            .ooooo.                                                                             ",
"                                           .oooooo.                                                                             ",
"                                          ..ooooo.                                                                              ",
"                                          .oooooo.                                                                              ",
"                                         ..oooooo.                                                                              ",
"                                        ..ooooooo.                                                                              ",
"                                        .oooooooo.                                                                              ",
"                                       ..oooooooo.                                                                              ",
"                                       .ooooooooo..                                                                             ",
"                                      ..oooooooooo.                                                                             ",
"                                      .ooooooooooo..                                                                            ",
"                                      .oooooooooooo.                                                                            ",
"                                      .oooooooooooo..                                                                           ",
"                                      .ooooooooooooo..                                                                          ",
"                                      .oooooooooooooo..                                                                         ",
"                                      .ooooooooooooooo..                                                                        ",
"                                      .oooooooooooooooo..                                                                       ",
"                                       .oooooooooooooooo..                                                                      ",
"                                       .oooooooooooooooo...                                                                     ",
"                                       ..oooo.ooooooooooo...                                                                    ",
"                                        ..oooo.ooooooooooo...                                                                   ",
"                                         ..ooo.ooooooooooo...                                                                   ",
"                                          ..oo..ooooo.ooooo...                                                                  ",
"                                           ..oo.o...o..oooo...                                                                  ",
"                                            ..oo.o..o...ooo....                                                                 ",
"                                             .......o..o.o.....                                                                 ",
"                                             ............o.....                                                                 ",
"                                            .....................                                                               "
};
