/* XPM */
static char *_af6e0a96b2b4bd388d49ab4fff6c716c9yT18WQo4RgSLMq[] = {
/* columns rows colors chars-per-pixel */
"64 64 95 2 ",
"   c #CECABC",
".  c #D1CDBF",
"X  c #D3CEC2",
"o  c #D1CDC9",
"O  c #D6D2C4",
"+  c #D8D4C7",
"@  c #D6D2CE",
"#  c #DBD5CB",
"$  c #DEDACC",
"%  c #DBD6D2",
"&  c #DDD9D5",
"*  c #DEDCD9",
"=  c #E1DDCF",
"-  c #E4DDD3",
";  c #E2DEDB",
":  c #E5E1D3",
">  c #E8E4D6",
",  c #E6E2DE",
"<  c #EBE3DB",
"1  c #EDE9DB",
"2  c #F0E7DF",
"3  c #F1ECDE",
"4  c #E6E3E1",
"5  c #E9E5E1",
"6  c #E9E5E2",
"7  c #E8E5E3",
"8  c #E9E6E2",
"9  c #EAE6E2",
"0  c #EBE7E3",
"q  c #E8E5E4",
"w  c #E9E6E5",
"e  c #EAE7E6",
"r  c #EBE9E7",
"t  c #ECE8E4",
"y  c #EDE9E5",
"u  c #ECE9E7",
"i  c #EDEAE6",
"p  c #EEEAE6",
"a  c #EFEBE7",
"s  c #EDEAE9",
"d  c #EDEBE9",
"f  c #EEECEA",
"g  c #EFECEB",
"h  c #F0E8E0",
"j  c #F2E9E1",
"k  c #F4EBE3",
"l  c #F2EEE0",
"z  c #F3EEE0",
"x  c #F5ECE4",
"c  c #F6EDE5",
"v  c #F6EEE6",
"b  c #F7EFE7",
"n  c #F0ECE8",
"m  c #F1EDE9",
"M  c #F2EDE9",
"N  c #F0EDEB",
"B  c #F3EEEA",
"V  c #F1EEEC",
"C  c #F1EFED",
"Z  c #F2EFED",
"A  c #F4F0E2",
"S  c #F6F2E3",
"D  c #F3F0EE",
"F  c #F4F0EC",
"G  c #F5F0EC",
"H  c #F5F1ED",
"J  c #F4F1EF",
"K  c #F7F3EF",
"L  c #F9F0E8",
"P  c #FAF1E9",
"I  c #FBF3EB",
"U  c #FCF4EC",
"Y  c #FDF5ED",
"T  c #F5F2F0",
"R  c #F6F2F0",
"E  c #F7F3F1",
"W  c #F7F4F1",
"Q  c #F7F4F2",
"!  c #FAF5F1",
"~  c #F8F4F2",
"^  c #F9F5F3",
"/  c #FAF6F2",
"(  c #F9F6F4",
")  c #FAF6F4",
"_  c #FAF7F5",
"`  c #FFF8F0",
"'  c #FBF8F6",
"]  c #FDF9F5",
"[  c #FCF9F7",
"{  c #FFFBF7",
"}  c #FDFAF8",
"|  c #FEFBF9",
" . c #FEFCFA",
".. c #FFFCFA",
"X. c #FFFEFC",
/* pixels */
"= $ = # F n t n : = : = F t , F 1 = = + t b f | j ; c < C s s | ; - < - 9 ; b V 2 k X k N N N u X - - # V F > a - - - j V t n b ",
"- = $ $ n f t F = = = > t , n , + = : = s F R R c > - I C 4 s ^ h < 2 < 2 N ~ ; X - < - N n q u # X < - 9 9 ; w c - j 2 V F s V ",
"= : $ = F t f V : = $ : a a { , = : : - F a s V I 2 $ ; C g R Q - k I < u ~ F w 2 h < - s M C N = = - = F a a r - - - ; < 9 2 V ",
": O = : a F 9 F $ = + > n { , , = 1 1 = C C f w - - - < R | g F - ; ; 2 , , b ~ ; 2 h 2 R R Z ~ $ = 1 = F r t 9 9 < - - t V @ w ",
"= : : : a F F , z > $ $ a f ~ f - 1 = = ; N s N ; - ; 2 V F ~ s $ : = : C Z u u h < 2 - ^ r g t 2 = 3 = F F C ^ - 2 - - N ; 9 V ",
": # $ = a a 9 t 1 $ z $ W t t [ < = + = u k u s - c - < b ~ ^ w - > $ < C < Z s ; - < - r r g  .3 = > + ~ F Q C < ; - - n ; ; 9 ",
": = = $ a a 9 a : $ # 1 C C F f = = + - N < ^ w 2 < - 2 s R w C $ 1 - X J ~ ~ Z - ; c c r | f g : = : = F 4 t F - < - c b ~ b u ",
"> : : $ a F z f # $ : - C ' * X.= - + = u Z w ^ - k < - | F ^ C $ k - # u Z ] ~ - 1 > , W C w | = : : 1 V ^ ^ g k - c , C ~ ; - ",
"= = = = b Z N ; > > < ; [ ~ ~ F 2 < - - I s C 4 j < 2 2 , s f s > 9 < < t b u t < + 2 . F g g Q L - - 2 ~ s g ^ 2 - k - n a t V ",
"= : - = Z ; ~ b t < - k ~ V R C ; 2 # 2 s R I Z - > j - w X.R C > < - j u ] u u = = = = T ; T C 2 < k ; R g C r # = = = t > 9 t ",
"= . < = Z ~ ; N > - < - g T a w < - j - s F 9 s c - 2 < C V ~ C - j ; L M ; q N = > = = T C d T - k - ; t g t g = + # . t < n V ",
": = + = ] V C C - - t < g t R W < # , - V s ^ C - ; ; < V w < V - - L - u M N N = = = = d d T C < - F - R g | s = - = = t t t t ",
"= : 3 : R C N u - - I h r C C | - ; j - r t ^ ~ - 2 = # R V [ ; j - - - | s N C = = = + [ I C Q - < k j ^ ^ s F - < - - ~ f 9 W ",
": = = = R Z Z C 2 2 ; - C f s F - > < j T g F | O O = - g b ; ~ - I < # ~ Z ] C = = + = [ F T T k # 2 - , C C C < , 1 @ F V R f ",
"= = : = N u q a - 2 - - ~ C | ^ ; - : & g R C ~ = = + : u , n 9 I ; h h s C ] ^ = = + = F R f F - k ; 2 R R | V - 2 9 j F s W C ",
": = 1 = s | J V h - I @ w ~ w R - - - < g Q I V A + + : ; U s ; 1 k < - ~ ~ | u - + = - 4 9 t ^ ; < < # F ~ V t 2 2 t # F | ^ R ",
"- - ; - 9 ~ ~ ~ - - j j 4 ~ r ..- - $ = a W F r I k ; - 2 < 9 N = = $ - u ^ N J : = 3 : n n V ; < < - < V F t t 2 - 2 2 F f t g ",
"2 k = - s ~ , ~ - ; < j R F R C $ - $ O F C  .X.- h 2 2 | w a b = . = - N J R q = + > : n 9 F V - - - - ~ V t ; ; > j , ~ F F g ",
"# # - - s s ~ ~ > < - - F C C 4 - > # > g W w F j h h - s a u K $ = # - } Z ] J O > $ + , a ; F 2 2 j < t r f g k - c < V 4 r g ",
"- - 2 < Z Z C Z j j > - T w ^ C - $ $ $ ' F r t - < - - w 9 w ; = = # - N N N R = + - $ a 9 9 n - # < 2 t 9 < F - 2 - - C F w g ",
"~ k h - u [ w ; $ : : : n a a F = # $ : Q R Q g - - 2 c , V ~ F + : = = Z u ^ u 2 1 < > t , < V % # = = ` a C T h h h - F F C C ",
"c h h - V Z 7 V = = : = n a F F = > # $ g Q Q ' 1 , ; < F n V 9 - 3 > = q ) Z s c > 1 - F a t t - - = = R F C 4 - k h 1 ^ C R ^ ",
"k - - k ^ F N w = = : = F 9 t 9 = $ & # C , X.4 c = - < n n s ; : + = = ~ ) u ~ - ; ; - a V [ 9 = - - 2 ; t Q d - ; < ; C F C f ",
"- k 9 - R Z V ; > = = = n n t V $ + - - d g r r c < - < n a F F $ > : : N N Z N # P - 1 a 9 9 4 + X = - F F Q ' h P P - q C R ^ ",
"- ; - 2 J u ] u - - O - , W n F > 9 : > | s 4 ^ < h < - d r T f - < k - ~ g s F = 1 = = - F > V $ : > + R g g T - = = = b T g [ ",
"; - 2 - ^ C D D = # > < ~ a F V > > < < | ^ R C ; h 9 < g r ~ q < < = 9 F F D R = + 1 O V t a a $ = $ > T W r d > - + + F F f C ",
"; < - 2 q q ] ^ > - O > { t f f 2 h - < Z J C R ; - - - r T W r < - - - s C r D = : = + F n < 9 = $ & = C W C T = # : < r C ~ ^ ",
"< 2 - - ] ^ J Z O > - z F , V t - ; - - ^ s ~ Z < P - h T r C 4 c 2 2 > D R | R $ 2 : = 9 % a f = = > - F ^ r F - - : + g F C ^ ",
"2 c - < < u | F = - + : f F C T - - j < 4 < Z r - - + + c F g F < P - ; R D s C + + = = C g ^ C j - j - T T f w $ = > = [ a T w ",
"- - < 2 N 9 9 N 1 > > X C ' t R - - - - s C ^ ^ = - = < a b g s - h # k D r N J - - = $ C R C C > > ; < F d ^  .$ $ O - R C R w ",
"- 2 - < w u 7 ; > - = = F f F F j % k 2 F ~ C N = = 2 - C R ; ^ h ; - h N ~ ^ s = > = = ~ C C ; - - < j r d W t $ > = $ r q q t ",
"< % < - b | ; a $ > O O C F ^ r 2 < < ; s s s w = = - = R F W r - P # ; ~ , C ~ # = - = N C b F ; k < , ' F s R > : - X ' R g T ",
"2 - 2 2 u N % Z < - t - ^ s 4 g A - = > J C q w = O - = u C ) u h - - - b r N q < k - 2 Z Z ~ u - X - - 4 u ~ u ; - h ; h N 4 < ",
"h < - ; ; P ; N - # < ; F 4 R , 1 < = # Z N 4 | + > $ # , ..) J P 2 < h 4 | N ; 2 k ; < ^ P u ) o + : = Z N N Z 2 P h - 7 2 N J ",
"< - j - M 7 ; N < < - < ' T C T > + - - ~ ^ Z u = - # < 4 Z u s - h < - q R g J 2 P - h 4 w C N : > = + ] u J 4 - - k k P u u Z ",
"- < - - t n k ; < - - * T g C C 3 > - > } N C | $ > - o N ^ ~ s P 2 - ; ^ ....u - ; - ; s ^ N u = = + = Z Z | b h - h ; ~ M u | ",
"- = 2 = 1 u N u % < < 2 , R 4 r 3 Y < Y 4 C s C = < - j Z u Z Z 1 = > - , r ~ J h # h - X.F C t 2 2 h ; ~ b N N I P < 2 b t n u ",
"= = - = w F u N < - < < C T Q ^ < > - - J w J Z > < < t Z J Z u = = = - D C N u - k # - 4 f  .C # 2 - k N % ; N - - - - q u t n ",
"= . = = F F [ 9 < - - - R g C | j - ; 2 r C w ] = ; - < R u Z N - $ > - 9 y N M 1 - < t Q F 9 R - 2 - 2 u h N u 2 P < - b ~ ] N ",
"k . - = s | 4 & - - - c X.C F | j < 2 2 C I V F - 2 ; = ~ Z Z ] 1 = X - < M y ; - - - , Q t F R - 2 O - N I ; o - # 2 - N ; t n ",
"2 2 - ; ! ] J N < - 2 < C F R C - < - 2 b F I R < - < - Z M N [ : $ $ $ u t b V > - : : [ ; 9 R < h ; > ` n K F - - $ = F W 4  .",
"> < j h ~ N Z J j - - c R R F C ; 2 I - s ; a g 2 2 - < N ; R N = O > $ N u ~ t = - = = a a b , < h h - a , F 9 = + - : ~ F t ~ ",
"- j - k u ~ N N 2 < 2 < C [ F s < j < - k V a w < - < h V s w 7 1 : : = b V 9 r 1 + = = ; s < V < - c >  .F 9 K - < > 2 d g R R ",
"- 2 2 - ^ J J C - < < - w C | s j - - j a w n a < < - - N N N V > = = = % u V w 3 O 3 = a V 4 V k - : > F K t F > = = = 4 q t d ",
"< - U - N ; ..^ = 1 : = t V 7 C k - - - s V Z V 2 - ; < C s g C < < - < s b N I = = = : b F F f - - = = t t t a   + > = T e d Q ",
"; 2 - u Z ] X...: + $ = b t [ [ k < - - b , n V k ; 2 < N w J w > < - - ; V o V = : = +  .F C R - < = = , 9 F K $ $ > $ t C C _ ",
"2 P - = Q C J C 1 < + > ; a V w ; j j # b V t k - - h < w ^ | | 2 < - = 4 Z a I : 1 = = a ^ | C = > = 1 a a F 9 : = & : d % C T ",
"- # h w g ^ ^ 4 = = > - ~ ; k 4 < - - < s V t t = 2 ; < N C u C - 2 2 - ; w t a - = = = C | C C = = > > , 9 V t : = $ - T d  .C ",
"- - c % N s ^ J ; - = : , n ; t 2 L - 2 V V n b = > : $ s C F C - ; - - d  .C T > = - - s J ^ ; - - 2 > u ^ J ] < # = # ] f V ; ",
"- 2 h < J r u s - < = = n n c ; , c < < n t ~ F + # 1 = C , R ^ < t - - T g Q C = > O 1 R u N R 1 ; < 2 J ^ J J > - > + R C f ^ ",
"# - < < J & ~ ^ - = = : 9 V F c - < - > ; C 9 n = = = $ s C  .^ - < < - ' f C 4 # > - & J N R Z < # - U u J u N - $ + $ C C | C ",
"- h < c ^ q u C = < - : a , F u < c 1 2 t < F V = > - : s C , C < 2 - , X.Q X.T = $ # < N ^ R Z ; j c 2 ^ Z q J > # = > C ^ a R ",
"< - 2 < ] q C u $   = $ 9 b - F A > : = a 9 V % > - < 2 V F | s 2 > - - Q ' F C > $ + = R R Z Z - - < h ! N Z u - U - > ^ g F * ",
"2 X 2 % b ^ R q : > = X [ n s r = : : > 9 K V f - # < 2 a V g s > - = > T F F T = > = $ ; N ] } < - h h u N u | - ; - - C r ^ C ",
"< ; < < g | N q + > : $ b , V V . : : : 9 t ; ; t 2 = - ~ ^ F C - = = . f f F a : = = > r Z R ~ h - < ; q ! Z u - - t t t T t | ",
"- - < < N s w N 1 $ - $ F a t * 1 = $ < n , ; 4 - U ; < | F R C + = : : F f ~ 9 1 = 1 - s R b R h - 2 P Z ) N } < - < - g R ^ g ",
"- = > = N C N ~ > t - ; n F n t = . k = V Y T g - - h < g , T d = = = = Y ] t | - k - - < 7 u ~ L - c - f 9 R W h - - < s Z | 9 ",
": = > > Z Z N ] > - = 2 a ; a ; > - = = ~ V g Q Y - , - g f g g : : + = n F F F - < h < s ; 7 u c 2 V < R w a R h - - - s c b w ",
"> = - + N ! w ; < 2 - - < V t V = + - - F ~ | R 2 - > j t C g Q = = 3 = 4 w r X.% < # 2 M N 7 b < - c - F X.V F ; c - - a t 4 u ",
"= : - - q Z s N < k , 2 f V k K = - < < V b ^ t - ; c K C T Q T = = = : ~ g C | 2 2 - < M ] 7 7 - ; > 9 C [ [ a h k - < ; u V 9 ",
"= - = : I u 9 7 , 1 j - ; u t t k h < < s R s w - k - # F r g T 1 > : 3 a F a t - % - 2 < M u 7 2 j ; 1 n n n V = - = - k ~ I u ",
"= 3 = > u u u M 2 ; - 2 F Y s V h 2 k < V I Z ] - < - ; W T R  .1 = = + V 9 f 4 - < 2 - ~ M Z N - - h k t a b w = X > + u ~ F u ",
". + + = , M ~ P 2 + j - 9 9 9 n ; - ; P s s F ~ X L # L ^ F f V = = = - a a 9 a - h < ; N u b h 2 < # , u t F ; = = - # M Z < N ",
"= : : + k N N u - < - < w b ; V - # h 2 C C ~ n 2 < ; < t t F F = : : + a n V a 2 < < - b ~ N ~ k - - - Z s b t = > # = < N 7 ; "
};
