/* XPM */
static char *b057a8aa74f04a1d914468edc59b6ecfoAsRaTy6oMiYID1E[] = {
/* columns rows colors chars-per-pixel */
"64 64 92 1 ",
"  c #C6C2B5",
". c #CBC7B9",
"X c #CDCABC",
"o c #D0CCBF",
"O c #D3CEC2",
"+ c #D1CDC9",
"@ c #D6D2C4",
"# c #D8D4C6",
"$ c #DCD6CB",
"% c #DEDACC",
"& c #DCD7D1",
"* c #DEDAD5",
"= c #DEDBD9",
"- c #E1DDCF",
"; c #E4DDD4",
": c #E2DEDA",
"> c #E5E1D3",
", c #E8E4D6",
"< c #E5E2DE",
"1 c #EBE3DB",
"2 c #EDE9DB",
"3 c #F0E7DF",
"4 c #F0ECDE",
"5 c #E6E3E1",
"6 c #EAE6E2",
"7 c #E9E6E4",
"8 c #EAE7E5",
"9 c #EBE8E6",
"0 c #ECE8E4",
"q c #ECE8E5",
"w c #EDE9E5",
"e c #ECE9E7",
"r c #EEEAE6",
"t c #EFEBE6",
"y c #EDEAE8",
"u c #EDEAE9",
"i c #EDEBE9",
"p c #EFECEB",
"a c #F1E8E0",
"s c #F2E9E1",
"d c #F2EAE2",
"f c #F3EAE2",
"g c #F4EBE3",
"h c #F3EFE1",
"j c #F0EBE7",
"k c #F5ECE4",
"l c #F6EDE5",
"z c #F6EEE5",
"x c #F7EEE6",
"c c #F8EFE7",
"v c #F1EDE9",
"b c #F0EDEB",
"n c #F2EEEA",
"m c #F4EFEB",
"M c #F1EEEC",
"N c #F1EEED",
"B c #F2EFED",
"V c #F5F1E3",
"C c #F6F2E4",
"Z c #F3F0EE",
"A c #F4F0EC",
"S c #F5F0EC",
"D c #F4F1EF",
"F c #F5F2EF",
"G c #F6F2EE",
"H c #F7F3EF",
"J c #FAF1E9",
"K c #FBF3EB",
"L c #FCF4EC",
"P c #FDF5ED",
"I c #FEF6EE",
"U c #F5F2F0",
"Y c #F6F3F1",
"T c #F7F4F2",
"R c #F8F4F0",
"E c #F9F5F1",
"W c #F8F4F2",
"Q c #F9F5F3",
"! c #FBF7F3",
"~ c #F9F6F4",
"^ c #FAF7F5",
"/ c #FBF7F5",
"( c #FFF8F0",
") c #FFF9F1",
"_ c #FBF8F6",
"` c #FCF9F7",
"' c #FDF9F7",
"] c #FDFAF8",
"[ c #FFFBF9",
"{ c #FFFCF8",
"} c #FFFDFB",
"| c #FFFEFC",
/* pixels */
"-%-%>%#-1111>-$,31;;;;;ccjY01;1cA0Y8:;d1Y]=/;#%%=06<%-@%;;;g;#--",
";-%%--#>1>1d-$-$;;31;:33I06';-;3QBBG;da;=8b8;;@%<<Ln%#o#d11d%>%%",
">>%--#-;11;1>-V@33333;;1/0:j1,11j/}B;ag:YWBn%-%-95p0>%%$;;;1@#$-",
">@%>%;#;;;;d>V#%;l3:3;:;:600331,<jpW;;3kBGQQ>>>>6tQ0-$%@11;;%- %",
",11313g;K1;;%%,%3d:;;1113;:3;;;-->;;:;;;211;,#-%4-2-211d;1;;#o%%",
"1;;11;;;g1L1>%#2d1;3;1<1;g;1->2#-,-;3;3;;11;#%%44>,%d1g;11;;-o@#",
"11;11;1111;l----;1;11;K;d::3-,---2-O3a3;;;ng%2%%>-,-1&;1;11d;,>#",
"d01;1d31;;1,;,o4;9$;1d;K;g1;2->--3--;:ka;112,-%,%>-2;3d;g;d,->@X",
"#-#-331-111:lgd:0n50G9p5Bjke5pbjnHGBjB0nQ9]5t66Gc;;3a;:aj3L33:;3",
"#---3;gg11;d3;3;0G:j9GGB0jWe8}DNAAp/0Qt00nB9n*G031a13;1;;;1;;;;;",
"-.;#3g-;;:1;;1;;p5G80Z5pG5bjpbDbnTp]n<500QpBjt5n1a;:;;;;;;;#1;33",
"-#O-J:32;113:;330:08GB_p507bB9eb8p!n0GnnZpZp0<p91;J;g;d;:3;:12:;",
"djGn----1:Kg3j0Q8pY5p8/Q1Qj5Qj':/pBp}0pBppp5_GZT30WBg3;3----;-@,",
"j0j0;->-13:;g66jBZn/BpB]<:0njN1Dp}Y:_p/Bpn9Z_ZZTB:je-1;1-->o;-;-",
"j0j0--@-;1;;Gj!mn8p5BYZT00:nr:c5}BUZpp}TUZ9pZTpp5B5J3;c,--,,--,-",
"n0mj-3;-3;Q#:m:j85BGpYGn]:<n:Yj:G_ppZY_pU9eY598/ejp;ak;-,>,o-3,;",
"-%-##,,>01jG</9};%%>,11;cl;-;;;311;3:a;13:c3--;-jB8b9Be0;->,>;;1",
">,O-%,O250BZTnTB%>%#1<l):aaa(;:a;#1;;1a;1-3;;-,;6bbj(me:----311;",
"@O%%%%>>0n0<BBB5>2#>1d;;aaa:3:3g;1;1k1j3-3,;--o;WY_b0r9b1-2-;;;1",
"-#>>>-->Yn05B8/p>#%%d1;;;::;;;;;;1;:a:;1;;1;---;95bWe5eB-;--:;;;",
"}]B0;g;#pGYYGYp/;;11n0H6bpN'8W'WeYbBBe_7cj0j;;;3BebN'9bT331;311:",
"]Y_p>1-:ppYBBBY/11;;6GAGWpNN_DDbJ_Wb5WBbPjjeg;:1bWZbDDb5;x33g;3c",
"/pnQ33;;ppZBYBnp1;1;j:':/7bbDbb:W79D__0Q<jj:33c;bbW':9W9;13;;,;:",
"e/Q63:;$/BpBpUnG:;1155<6/bbWWD_WbWWbbpB0:'5j3;;;759DbD''3xx:;333",
"&;:d;;k;bb6b<GjG:3;:]p5/:<1;;;3;;:g;a;;aBTUU$0;3pn/8YBbB;;;;kjem",
";;a;333;BbW_Q0Gm;333}WBB1a31;;a;:a-a;a;ap8/50;11BppYYBpp3g;;jjre",
"::;3--llYB8W]e0n31-1BBBY:;;:;3a;a;;;;:;1BUp7g:;;BeBbb/BD:;23:emJ",
"1a;;3l::eYY}G<ne;;;;YpQB1K;33;:$kga:aakae}UU;#:dpBYBB/eB331;bj0B",
"P]pB;;Idej6j600b1;3155B831;;bmbbG}6B;---58pB;;l:/pYnDDbe--;;g;3;",
"88BZa;;1Wbm*jG1n;;;;pp//;1;k0bbb0W5Q;---ZYp030::pBpBD9W]--#-3:1;",
"BWpB;:;;mm0ej0j03$g3GnBp;1c3bY:WYUj/-,;$BQnj311@B9p/9bG0--;-&;;;",
"D5bp0_;1ej::ejm6331;ppp81;3;Wb_ep}:n>@;;0ZGc;11;B/Bp]bjc2--Oa31;",
"3;aa;a@gppZp_p5pPa;aDb5p;;3;8BWnp8551;;;D/8W81a;a:Bb5pBe;$,-eBe0",
"d;;;;2;1p<ZpZ<T5kk:;Bp5';j;;5}/m!00n$I;#Y]pBd:;d::B5Y9bY>2>-ebB_",
":;a;:;%3ZppZTZZZa;;3W'Y8;3:j5p0B5Qj0&3;3Y]0B-;;:BB05_eD5-#,,WBB'",
";3;d;1<%Ap9pZnZZka1p'9B_1:;$p/Qj]n<0gKJ;8pBB;d;;r3:eBG]G>-,;/YB}",
"j9Pp;;g:<pZT5T59JW3K5BpB;:131;1;2->>#;13W:WpK1:;gNjjmmmbIg110111",
"3pb:;311Z9ZZZZZT;1:;memb;313111:----;>--B'58-:c;:meW9&:r;;1:;>;1",
"6$p59gI;p9ppTpp}3;;3pp6Q$1;11;11>%,>%%>,G8BWg;-36j6nbrnr1J2;1cP<",
"';jp1(;%999_}pT}a133BBnm111-3;1g2-@>#>-$jp6jg;:3rr;:jG:+;$3;1;11",
"e3;3333;Z6UpZTZp;1;acjj!j00105e_AnppB8//nB0mK-;gTTZp}B_T:3;3mY0_",
";3333;;3TpZ_TZUU:al:e6jjnj6j0:n0j<HpYn/ppp6e116;ZZZpZpTp;;13WBeW",
":3;g;3;1ZYGZp_G01aa-jjjjb00G015:_TGZQYjBG600-1;1Z9_Z}Tp/1ggKeYBY",
":33:g113nZZp9p}9a;;aj0j0j0660j80QpZp:BY6I:!011;1/ppp__BQg;;:558e",
"3;K;-Oa>9nG6pQ0!,-#-11e121;11;;1,1;;133g;1;g;;-%ZZZZ0060.#,-;#-,",
";3:3;,VJn15tTp}},---g;11313:;;1;11;;$2O3:d1$2;>,p{Z9<6GK-%,-#;;,",
"3g>-,-;-HQ<n5nQ0-;,o3g:3;;d1;dtL6;;;:d;gdg11%,2;ZTp_jnB<>>>-%.-,",
";$33-,>#09Bj}9j0--$;131;*3;11;;,13d;;;:11;1;-2--pp_Z<1G6>-%-;-2-",
"--1@--;-43;3aj:0/]B/pTZZp_G9ppZp9A9pp}ZT/pnBpY/:5<nt;33c,---K<0=",
"--;;---$;3:;ejm:B]pBTp}_89_pZ<ZTpGp9ZpTppU8'B0pYGjtA<33:;->#gj0G",
"o$->-X;;3;236nGnnB0B8TpGBZZppp{TpZpp_pZ<e/BpBpGBt*1{;3;;-$#-90L0",
"-,-4,#-;;g3301m0p'G'99/pZTZTpZ<ZZZpp{_}TZpp/B/GGtZ'Zd:;32-->tG6n",
"1>3;g;;3;$1:;d$0'Gn0BpY=p9ZYpZ_p_TZZT_ZZTp8pnbbj<$131;1;;l;1>#%.",
"3O3;1g;;;13$P11;<bjQp]Bnp<ZTpZpp_TpTGZpZpQp0$eGW1>d1;1;g;1;;$#>%",
"1;:3:J3;;3g;g;g3:bn0bp86TT59T_ZpTep<ppY9ZpZT<jjm1;11;d;:;;3d@-@>",
";;3;;;-;k;:;a;;$_05GY550p}Tp]ZZZ5pTGZpT6}p}U0njld11g1g;K1;1;#->#",
"---@::;g:a;1;;,;-@3-2g1;;;3::&3;%>->2g>g;k;:---,2-,-;;130;;<1dJ;",
"--;;33:g11&3-O-->--$3,1aK;3;;;;;>>@-,1>6;3g;-#--2,2-3;;33;;;<dd;",
"-#-o13;#1a;;-;--%->>13d23;33;3;d%*2%;;;g$;$3;;-;--2-:K;3;g;;1;;:",
"-----1;;;k13->;1$>,,;3d;1:kK;3j1%>>>1;1K33;1;3----;,:kK;dg;1;13;",
"----K1;;%%%%10e6,>>>bDbe;g;$YppYd31K6A00;-;3;3;;----33:1#----;,-",
"-3->1;:3%%#%cKnj,-a-bmb_-;;;GYB]g1:;A0n6:11;k3g3@o-;;332-X-o-;--",
"oo--;3g0-X>@015b$-;abpB!Ok$K_Bbj1;11jp60;33;:33;--o-;;3;##-@--@-",
"->-#111,%%%%6m<j-O,;bpWm13:188BG131;j0nj33;;3k,k-###g;3;--###-@X"
};
