/* XPM */
static char *c48d8e76693a4fd8f5473520efd2bf29pKrdAcpwKrAgB7bK[] = {
/* columns rows colors chars-per-pixel */
"64 64 94 2 ",
"   c None",
".  c #96000D",
"X  c #9F0014",
"o  c #A50A17",
"O  c #A60D18",
"+  c #B7021D",
"@  c #AA141B",
"#  c #AD191D",
"$  c #B11D1F",
"%  c #BB0D20",
"&  c #BE1322",
"*  c #B11E20",
"=  c #B62423",
"-  c #C51100",
";  c #CD0002",
":  c #D30006",
">  c #D70009",
",  c #DC020D",
"<  c #DE080F",
"1  c #DF0B10",
"2  c #E00D10",
"3  c #EC051E",
"4  c #EF0C1F",
"5  c #E31312",
"6  c #E61A15",
"7  c #E91E17",
"8  c #EB2319",
"9  c #EF281C",
"0  c #F22B1E",
"q  c #C01723",
"w  c #C31B25",
"e  c #F11321",
"r  c #F51C24",
"t  c #C62027",
"y  c #C72228",
"u  c #CA252A",
"i  c #CE292D",
"p  c #D22F30",
"a  c #D33030",
"s  c #DC3937",
"d  c #F92327",
"f  c #FB2628",
"g  c #FE2B2B",
"h  c #FF322E",
"j  c #FF3731",
"k  c #FF3B33",
"l  c #FF4338",
"z  c #9E965B",
"x  c #A0975C",
"c  c #A69D62",
"v  c #AAA166",
"b  c #AEA569",
"n  c #B1A86D",
"m  c #C5BA75",
"M  c #C9BE7A",
"N  c #CDC27D",
"B  c #8AA0A2",
"V  c #94ABAD",
"C  c #97AEB0",
"Z  c #98AFB1",
"A  c #9CB3B5",
"S  c #9FB7B9",
"D  c #A0B7B9",
"F  c #A2B9BB",
"G  c #D1C681",
"H  c #D6CB85",
"J  c #DACE89",
"K  c #DDD18C",
"L  c #CCC6A3",
"P  c #CFC9A5",
"I  c #D4CEAA",
"U  c #D7D1AD",
"Y  c #D8D2AE",
"T  c #DBD5B1",
"R  c #DFD9B4",
"E  c #DFDABD",
"W  c #E1DBB6",
"Q  c #E5DFBA",
"!  c #8DBEC2",
"~  c #8FC1C5",
"^  c #90C2C6",
"/  c #96C8CC",
"(  c #99CBCF",
")  c #9BCDD1",
"_  c #9ED1D5",
"`  c #A0D2D6",
"'  c #E6E1C3",
"]  c #E9E4C6",
"[  c #ECE7C9",
"{  c #EEE9CB",
"}  c #F1ECCE",
"|  c #F4EFD0",
" . c #F6F1D3",
".. c #FAF5D7",
/* pixels */
"                                                                                                                                ",
"                                                                                                                                ",
"                                                                                                                                ",
"                                                                                                                                ",
"                                                                                                                                ",
"                                                                                                                                ",
"                                                                                                                                ",
"                                                                                                                                ",
"                                                                                                                                ",
"                                                                                                                                ",
"                                                                                                                                ",
"                                                                                                                                ",
"                                                                                                                                ",
"                                                                                                                                ",
"                                                                                                                                ",
"                                                                                                                                ",
"                                                                                                                                ",
"                                                                                                                                ",
"                                                                                                                                ",
"                                                                                                                                ",
"                                                                                                                                ",
"                                                                                                                                ",
"                                                                                                                                ",
"                                                                                                                                ",
"                                                                                                                                ",
"                                                                                                                                ",
"                                                                                                                                ",
"                                                                                                                                ",
"                                                                                                                                ",
"                                                                                                                                ",
"                                                                                                                                ",
"                                                                                                                                ",
"                                                                                                                                ",
"                                                                                                                                ",
"                                                                                                                                ",
"                                                                                                                                ",
"                                                ^ ) / _ g d f f k f h h r f k k                                                 ",
"                                                ) _ ) _ g g g f g f f f h h g d                                                 ",
"                                                ~ ) ( ) h r g f g f j f d f g k                                                 ",
"                                                ( ) ) ~ h g g j k f 3 g r g f r                                                 ",
"                                        6 6 6 0 g d f r g f f l g f d f 5 , 8 8 7 6 6 6                                         ",
"                                        5 , 5 5 h h d g f 4 g f f e h f 5 2 9 , 5 6 , ,                                         ",
"                                        6 6 5 5 g f f h f d r e k h g f 7 7 , 5 8 , 5 5                                         ",
"                                        5 2 5 < g f f f f f f f j f f f ; 5 6 , 0 : 0 1                                         ",
"                                8 , , 2 5 6 8 6 g g f f g r d g 5 5 , 2 5 6 6 8 C V V A 2 6 5 ,                                 ",
"                                8 5 , > 8 > 5 6 j g g g f r g r 1 6 , 2 ; 6 - 6 V A C B 0 5 6 7                                 ",
"                                5 6 8 : 6 8 2 6 r d h h r j j l 7 1 1 : , 8 2 9 A A C V , 8 8 5                                 ",
"                                5 , > 6 5 6 1 2 e g f g f f r f 5 7 6 , > < 2 2 C V C V 5 8 5 2                                 ",
"                                A F V A w u w y 1 8 7 , , 2 6 2 & w & w q a w u $ o O @ o # $ .                                 ",
"                                V D V C u w p i > , 8 < 5 : 6 7 q y q % t q u w O # X = @ o o @                                 ",
"                                V C V C + u & y 5 5 6 , , 5 0 8 w w w q i w w + o $ @ O @ O # @                                 ",
"                                V S C A w & i w 5 8 5 7 , 5 : 5 y w w q s u a y @ O o $ @ $ # @                                 ",
"                                                        N G J M n b v v                                                         ",
"                                                        N N N N n b c b                                                         ",
"                                                        H H G N v c c z                                                         ",
"                                                        J G G N x c b b                                                         ",
"                                                        [ E } ' N N N G                                                         ",
"                                                        ] ] [ ] G G m G                                                         ",
"                                                        ' [ ] } N G K M                                                         ",
"                                                        [ }  .{ N G N G                                                         ",
"                                                        { ' [ } W T Y Q                                                         ",
"                                                        } } } ..W Y I P                                                         ",
"                                                         .{ ] ] U P I Y                                                         ",
"                                                        ' ' [ } Y T T L                                                         "
};
