/* XPM */
static char *_1462cfe778b4dcbf7ae843d054f0cb7ynq9lk1CS7kSpz5S[] = {
/* columns rows colors chars-per-pixel */
"128 128 6 1 ",
"  c None",
". c #5D4037",
"X c #37474F",
"o c #6D4C41",
"O c #455A64",
"+ c #495A63",
/* pixels */
"                                                                                                                                ",
"                                                                                                                                ",
"                                                                                                                                ",
"                                                                                                                                ",
"                                                                                                                                ",
"                                                                                                                                ",
"                                                                                                                                ",
"                                                                                                                                ",
"                                                                                                                                ",
"                                                                                                                                ",
"                                                                                                                                ",
"                                                                                                                                ",
"                                                                                                                                ",
"                                                                                                                                ",
"                                                                                                                                ",
"                                                                                                                                ",
"                                                                     XXXX                                                       ",
"                                                                   XXXXXXX                                                      ",
"                                                                  XXXXXXXXX                                                     ",
"                                                                  XXXXXXXXXX                                                    ",
"                                                                 XXXXXXXXXXXX                                                   ",
"                                                                XXXXXXOXXXXXXX                                                  ",
"                                                                XXXXXXOXXOXXXXX                                                 ",
"                                                               XXXOXXOOXXOOXXXXX                                                ",
"                                                              XXXOOXXOOXXOOOXXXXX                                               ",
"                                                             XXXXOXXXOOXXXOOXXXXXX                                              ",
"                                                            XXXXXOXXOOOOXXOOOXXOXXX                                             ",
"                                                           XXXXXXOXXOOOOXXXOOOXXOXXX                                            ",
"                                                          XXXXXXOXXXOOOOXXXOOOXXOOXXX                                           ",
"                                                        XXXXOXXXOXXXOOOOOXXXOOOXXOOXXX                                          ",
"                                                       XXXOOXXXXOXXXOOOOOOXXOOOXXXOOXXX                                         ",
"                                                      XXXOOOXXXOOXXOOOOOOOXXOOOXXXXOOXXX                                        ",
"                                                     XXXOOOOXXOOXXXOOOOOOOOXXOOOXXXOOXXXX                                       ",
"                                                    XXXOOOOXXXOOXXXOOOOOOOOXXOOOXXXXOOXXX                                       ",
"                                                   XXXXOOOOXXOOOXXXOOOOOOOOXXXOOOXXXOOXXXX                                      ",
"                                                   XXXOOOOOXXOOOXXXOOOOOOOOOXXOOOOXXXOOXXXX                                     ",
"                                                  XXXOOOOOOXXOOOXXXOOOOOOOOOOXOOOOXXXOOOXXX                                     ",
"                                                  XXOOOOOOOXXOOOXXXOOOOOOOOOOXXOOOOXXOOOOXXX                                    ",
"                                                 XXOOOOOOOXXXOOOXXXXOOOOOOOOOXXOOOOOXXOOOXXXX                                   ",
"                                                 XXOOOOOXXXXXOOOOXXXOOOOOOOOOOXOOOXXXXOOOOXXX                                   ",
"                                                 XXXOOXXXXXXXXXOOOXXXOOOOOOOOOXXOOXXXXXOOOXXX                                   ",
"                                                 XXXXXXXX XXXXXOOOOXXXXXOOOOOXXXXXXXXXXOOOOXXX                                  ",
"                                                  XXXXXX    XXXXXXXXXXXXXOOOOXXXXXXXXXXXXOOXXX                                  ",
"                                                               XXXXX  XXXXXXXXXXXX XXXXXXXXXXX                                  ",
"                                                                       XXXXXXXXXX     XXXXXXXX                                  ",
"                                                                         .XXX XX       XXXXXX                                   ",
"                                                                         ....                                                   ",
"                                                                         ....                                                   ",
"                                                                          ..oo                                                  ",
"                                                                          ..oo                                                  ",
"                                                                           .oo                                                  ",
"                                                                           .oo                                                  ",
"                                                                           X.oX                                                 ",
"                                                                           X.oX                                                 ",
"                                                                           X.oo                                                 ",
"                                             XX                             .oX                                                 ",
"                                             XX                             XXX                                                 ",
"                                            XXX                             XXXX                                                ",
"                                           XXXX                              XXX                                                ",
"                                           XXXX                              XXX                                                ",
"                                          XXXXXXX                            XXXo                                               ",
"                                          XXXXXXX                            XXXo                                               ",
"                                          XXXXXXX                             XXX                                               ",
"                                         XXXXXXXX                             XXX                                               ",
"                                        XXXXXX+XX                             XXX                                               ",
"                                        XXOXXX+XX                             XXX                                               ",
"                                        XOOXXX+XX                              XX                                               ",
"                                       XXOXXXX+XXX                             XX                                               ",
"                                       XXOXXXX+XXX                             XX                                               ",
"                                      XX+OXXXX++XX                             XXo                                              ",
"                                      XXOXXXXX++XX                             XXo                                              ",
"                                      XXOXX+XX++XXX                            XXX                                              ",
"                                     XXXOXX+XX+++XX                            XXX                                              ",
"                                     XXXOXXOXX+++OXX                           XXX                                              ",
"                                     XXOOXXOXX++OOOXXX                         .oX                                              ",
"                                     XXOOXOO+X++O++OXX                         .oX                                              ",
"                                     XXOOXOO+XXO+O+OXXX                        .o                                               ",
"                                    XXXOOXOO+XXO+O+OOXXX                      .oo                                               ",
"                                    XXXOOXOOOXXO+O+OOOXXX                     .oo                                               ",
"                                    XXXOOXO+++XX+O+OOOOXXX                    .oo                                               ",
"                                    XXXOOXO+++XXXX++OOOOXXX                   oo                                                ",
"                                    XXXOOXX+++OXXXXOOOOOOXXX                  oo                                                ",
"                                    XXXOOXX++OOOXXXXXXX+XXXXX                Xoo                                                ",
"                                    XXXOOOX++O++OO+XXXXXXXXXX                X.o                                                ",
"                                    XXXOOXXXXO++OOOOXXXXXXXXXX               X.o                                                ",
"                                     XXOXXXXX+++OOOOXX   XXXXX               X.o                                                ",
"                                     XXOXXXXX++XXXOXXX                       X.o                                                ",
"                                      XXX XXXX+XXXXXXX                       X.o                                                ",
"                                      XXX  XXXXXXXXX                        XX.o                                                ",
"                                      XXX   XXX ...                         XXoo                                                ",
"                                      XX        ...                         XXoo                                                ",
"                                                 ..                         XXoo                                                ",
"                                                 o.o                        XXoo                                                ",
"                                                 o..                        X.o                                                 ",
"                                                  oo                        X.o                                                 ",
"                                                  ooo                       Xoo                                                 ",
"                                                   ooo                     XXXX                                                 ",
"                                                   ooo                     XXX                                                  ",
"                                                    oo                     XXX                                                  ",
"                                                    ooX                    XXX                                                  ",
"                                                    ooXX                   XXX                                                  ",
"                                                     o.X                  XXXX                                                  ",
"                                                      .X                  XXXX                                                  ",
"                                                      o.X                XXXX                                                   ",
"                                                      o.X                XXXX                                                   ",
"                                                      o.X                XXXX                                                   ",
"                                                      o..                XXoX                                                   ",
"                                                      oo.X               Xoo                                                    ",
"                                                       o.X               Xoo                                                    ",
"                                                       o.X              XXoo                                                    ",
"                                                       oo.             XXXo                                                     ",
"                                                       o..            XXXoo                                                     ",
"                                                       o..X         XXXXoo                                                      ",
"                                                       o..X        XXXXoo                                                       ",
"                                                       o..X       XXXXoo                                                        ",
"                                                       oo.X      XXXX..                                                         ",
"                                                        o.XX    XXXX..o                                                         ",
"                                                        o.XX   XXX....o                                                         ",
"                                                        o.XX  XXXX...o                                                          ",
"                                                        o..X  XXX..oX                                                           ",
"                                                        oX.X XXX..XXX                                                           ",
"                                                        oX.X XXX.XX                                                             ",
"                                                        oXXXXXXX.X                                                              ",
"                                                       ooXXXXXX.oX                                                              ",
"                                                       ooXXXXXXXXX                                                              ",
"                                                       ooXXXX.XXX                                                               ",
"                                                       oXXXXXX.XX                                                               ",
"                                                     oooXXXXXXXX.X                                                              "
};
