/* XPM */
static char *_e93a11700d64f7ae6323d5610a65b3c52Vx3NyH7lSoHEbi[] = {
/* columns rows colors chars-per-pixel */
"128 128 2 1 ",
"  c #455A64",
". c #607D8B",
/* pixels */
"................................................................................................................................",
"...........................................................  . .................................................................",
"................................................................................................................................",
"..................... ..........................................................................................................",
"................................................................................................................................",
".............................................. .................................................................................",
"....... .................................... .. .........................................  .................................... ",
".......  ..................................  .......................................... .  ...................................  ",
".......  ..................................  ..... .................................... . ....................................  ",
"....... ..................................................................................................................... ..",
"...... .........................................................................................................................",
"..........................       ........................................................................  .....................",
".......................... .....  .......................................................................  .....................",
"......................... .......  ......................................................................     ..................",
"........................  ........ ............................................................................ ................",
"........................ .......... ..................................................     .....................................",
".. .................... ...........  ...............................................   ...   ................ ..................",
"... .................. ............. ............................................... .......  ..................................",
"....... .............. .............. .............................................  ........  .................................",
"..................... ............... ....................... ..................... ..........  ................................",
"..................... ...............  .....................   ...................  ...........   ..............................",
".................... ................. .....................   ...................  .............  .............................",
"...................  ................. ....................    ...................  ..............   ...........................",
"..................  .................. ....................     .................  .................   .........................",
".................  .................... ..................      ................. ....................  ........................",
"................. ..................... ..................      ................. .....................  .......................",
"................ ....................... .................  .    ................ ......................  ......................",
"...............  ....................... .................       ................ .......................  .....................",
"..............  ........................  ................       ................ ........................  ....................",
".............  .......................... ...............   .    ................ .........................  ...................",
"............. ...........................  .............. . . .   ..............  ..........................  ............. ....",
"............ ............................. ..............   . .   ..............  ...........................  ...........  ....",
" .......... .............................. ..............  ..     .............. ............................. ........... .....",
" .........  .....  .......................  ............ . ..     .............  .............................  ................",
"  .......  ..      ........................  ........... . ..     ............. ............................... ................",
"........  .   ..... .........      .........  .......... . ..      ...........  .............           .....   ................",
".......     .......  ......   .....     ....  ......... .. . .   . ...........  ...........   . .......       ..................",
"......  .............       ...........  .... ......... .  . . .   ........... .........    .  . ...............................",
"...... .................. . ............    .  .......  . .. . ..   .........  ...      ......   ...............................",
".........................   ...............    ....... .  .. . ..   .........      ............ . ..............................",
".........................  ..........................  . ... . ...  ........    ...............   ..............................",
".............  .........   .......................... .  .. .. ... . .......  ..................   .............................",
".....  ......  .........   ......................... .. ... .. ...   ...........................   .............................",
"...... .................  .......................... . .... .. ....   ...........................   ............................",
".......... ............   ......................... .  .... .. ....    .......................... . ............................",
"....................... . ......................... . ..... ..  ...     ......... ............... .  ...........................",
".......................  .........................  . ..     .. ...     ......................... .. ...........................",
".......................  ......................... . ... ..   .  ...     ........................ .. ...........................",
".......................  ........................  . .. ....      ..      .....  ................. . ...........................",
".......................  ........................ .  .  .....      .       .... .................. . ...........................",
".......................  ........................ . .. ......         .     ...................... . .......  ............  ....",
"......................   ........................ . .  ....... . .......    ......................   ........ ...........    ...",
"......................   .......................  ..  ........ . .........  ......................   ........  ..........    ...",
"..... ................  ........................ ..  .........   .................................   ........  ............ ....",
"..... ................  .........................   ...........  .................................   ........   ................",
"......................  .......................................  .................................   .......    ........... ....",
"......................  ....................................... . ................................   .......    ........... ....",
"......................  ....................................... . ...............................   ........    ................",
"......................  .......................................   ...............................   ........    ....... ........",
".....................   ...................... .................   .............................    ........     ...............",
".....................   ........................................ . .............................    ........     ...............",
".....................  .........................................   ............................  . .........      ..............",
".....................  ..........................................  ............     ........... .  .........    .  .............",
".....................  ..........................................   ..........  .  .   .......    ..........     . .............",
".....................  .......................................... . .......... .    ..  .....    ...........     .. ............",
".....................  ..........................................   ......... .  .   ..  ...    ............     .. ............",
".....................  ....................... ...................  .........  . ...  ..  ..   .............     ... ...........",
".....................  ...........................................  .........  .  ...  ..      ............        . ...........",
".....................  .........  ................................  ........    . ..... ..    .............        . ...........",
".....................  ........    ...............................  ........  . . ......  ..   ............        .  ..........",
".....................  .........  ............................... . ........  . . ... ...  ...    ........   .      . ..........",
".....................  .......................................... . .......  .  . ... ....  .....  .......             .........",
"..................... ........................................... . .......  . .. ...  ....  .....  ......     .       .........",
"..................... ........................................... . ......  .. ..  ... ...... .....  .....   ..  ...............",
"..................... ...........................................   ......  .. ... ...  ......  ....  ....  .... ...............",
"....................  ...........................................  ......  ... ... ....   .....   ... .......... ...............",
"....................  ..........................................   ......  .. .... ......  ......  ..  ......... ...............",
"....................  .......................................... . .....  ... ..... ...... ....... ... ......... ...............",
" ...................  ..........................................   ....  .... .....  ....... ......... .........  ..............",
"  ..................  .........................................   .....  .... ......  ....    ..    .. .......... ............  ",
"  ..................  .......... .............................. . ....  ..... ....... ....    .. ...   .......... ............  ",
" ...................  ......... ..............................   ....   ...   ...  ... ...  ..   ................ ............  ",
"....................  .......................................    ...   ...    ..  .  .....  ..................... ..............",
"....................  ......................................    .... . ..  .. ..  .    ..    .................... ..............",
"....................  .....................................     ....    . ....   .           .................... ..............",
"....................  ....................................   . ....... . .........   ..  ..   ................... ..............",
"....................  ...................................   . ........   ........    .......  ..................  ..............",
"....................  .................................    . .........  .........   .........  ................. ...............",
"..................... ...............................     . ....................   ..........   ................ ...............",
".....................  .............................    .  .....................   ...........  ................ ...............",
".....................  ............................    .. ......................  ............  ................ ...............",
".....................  ........................... .  .. ......................   ............   ..............  ...............",
".............  .......  .........................    .   ......................   .............  .............. ................",
".... .......  ........  .........................   .. ........................  ..............  .............. ................",
"....  ...... .........  ........................ . .. ........................   ....... ......   ............. ................",
"..... .................  .......................  .. .........................   ....... .......  ............. ................",
".......................  ...................... . .  .........................  .......  .......  ............. ................",
"........... ............ ......................     ..........................  ................   ............ ................",
"........................  .................... . . ..........................   .....  ..........  ............ ................",
"................. .......  ...................     ..........................  ..................  ............ ................",
"................ ........  ...................  . ...........................  ..................  ............ ................",
"..........................  ..................    ...........................  ..................  ............ ................",
"............ ...  ........   ................. .  ...........................  ..................  ............ ......... ......",
"..............     ........   ................ .  ...........................  ..................  ............ ........   .....",
"..............     .........   ............... .  ...........................  ..................  ............ ........   .....",
".............      ..........  ............... ..  ..........................  ..................  ............. ...............",
"............       ..........   ..............  .  ..........................  ..................  ............. ...............",
"............       ...........  ...............     .........................  ...................  ............  ..............",
"............      ............   ...............    ........................   ...................  ............. ........ .....",
".. ........       ............. . ...............    .......................   ...................  ............. ..............",
"...........       .............    .............. .   .....................    ..................   .............. .............",
"..........         ............. . ...............    ..................... . ...................  ............... .............",
"..........         ..............   ..............     ................... .  ..................   .......  ....... ............",
"..........          .............    .............. .  ................... . ................... . ................ ............",
".........           .............. . .............. .  .................. .  ...................   ................. ...........",
".........            .............  . ............. .  .................    ...................   .................. ...........",
"........  .          ..............  . .............   ................  . ...................    .................. ...........",
".......  ...    ..   ...............    ............   ................ .  ...................   .................. ............",
".......  ...    ..   ................    ...........   ............... .. ...................  . .. ............... ............",
".............   ... .................. . ..........    ..............  .  ...................   ..  ............... ............",
".............  ........................ . ......... .   ............. .  ...................    ..   .............. ............",
".............  ................ ........ . ........     ............ .  ....................   .................... ............",
".............  .........................  . .......     ............ . ....................   ..................... ............",
".............  .......................... .  .....      ........... .  ...................    .................... .............",
".............  ........................... .  ....      ........... . ....................   ..................... .............",
".............   ..........................  . ....     ............ . ...................    ..................... .............",
"..............  ........................... .  ..      ........... .. ..................    ..................... ..............",
"..............  ...........................  . ..      ........... ..  ................    ...................... .............."
};
