/* XPM */
static char *_4fad726f3164a40df34e57c61681b5bUsG0ZyNKwmv22eG8[] = {
/* columns rows colors chars-per-pixel */
"128 128 2 1 ",
"  c None",
". c #455A64",
/* pixels */
"                                                                                                                                ",
"                                                                                                                                ",
"                                                                                                                                ",
"                                                                                                                                ",
"                                                                                                                                ",
"                                                                                                                                ",
"                                                                                                                                ",
"                                                                                                                                ",
"                                                                                                                                ",
"                                                                                                                                ",
"                                                                                                                                ",
"                                                                                                                                ",
"                                                                                                                                ",
"                                                                                                                                ",
"                                                                                                                                ",
"                                                                                                                                ",
"                                                                                                                                ",
"                                                                    ......                                                      ",
"                                                                   ........                                                     ",
"                                                                  .....  ...                                                    ",
"                                                                 ......  ....                                                   ",
"                                                                 ... . .  ....                                                  ",
"                                                                ... .  .   . ..                                                 ",
"                                                               ...  .  .   .. .                                                 ",
"                                                              ...   .   .   .  .                                                ",
"                                                             ....   .   .   ..  .                                               ",
"                                                            .. .   .    .    ..  .                                              ",
"                                                           .. ..   .     .    .   .                                             ",
"                                                          ..  .    .     .     .  ..                                            ",
"                                                         ..  ..    .      .    ..  ..                                           ",
"                                                       ..    .    ..      .     ..  ..                                          ",
"                                                       .     .    .        .     ..  .                                          ",
"                                                      ..    ..    .        .      .  ..                                         ",
"                                                     ..     .     .        ..     ..  .                                         ",
"                                                    ..     .     .          .      .  ..                                        ",
"                                                    ..     .     .          ..     ..  ..                                       ",
"                                                   ..      .     ..          .      .   ..                                      ",
"                                                   .       .      .          .           ..                                     ",
"                                                  .        .      .          ..           .                                     ",
"                                                 .         .      ..          .      .    ..                                    ",
"                                                 .      .....      .          .       .    .                                    ",
"                                                 ..   ...   ...    ...        ..      .    ..                                   ",
"                                                  .....       ..  ......       .....  ..    ..                                  ",
"                                                                ...    ....... ..   ....     .                                  ",
"                                                                        .... ...       .......                                  ",
"                                                                         ....           .  ..                                   ",
"                                                                          ...                                                   ",
"                                                                          ...                                                   ",
"                                                                          .. .                                                  ",
"                                                                           . .                                                  ",
"                                                                           ...                                                  ",
"                                                                           ...                                                  ",
"                                                                           .. .                                                 ",
"                                                                           .. .                                                 ",
"                                                                           .. .                                                 ",
"                                             .                              ...                                                 ",
"                                             ..                             ...                                                 ",
"                                             ..                             .. .                                                ",
"                                            ...                              . .                                                ",
"                                            ...                              . .                                                ",
"                                           .....                             . .                                                ",
"                                           ... .                             ...                                                ",
"                                          .......                             ..                                                ",
"                                          . .....                             ..                                                ",
"                                         ........                             ..                                                ",
"                                         ........                             ...                                               ",
"                                         . ......                             ...                                               ",
"                                        .. .......                            ...                                               ",
"                                        ..........                            ...                                               ",
"                                       .. ........                            ...                                               ",
"                                       .. ........                            ...                                               ",
"                                       ............                           ...                                               ",
"                                      .............                           ...                                               ",
"                                      ............ .                          ...                                               ",
"                                      .... ..........                         ...                                               ",
"                                     .................                        ...                                               ",
"                                     ........ ..... ...                       ...                                               ",
"                                     ...... ............                      ...                                               ",
"                                     ............... ....                     ...                                               ",
"                                     ............... .. ..                    ..                                                ",
"                                     . .. ...... ... .. ...                   ..                                                ",
"                                     .  . ..................                  ..                                                ",
"                                     ............ ...........                ...                                                ",
"                                      ..................... .                ...                                                ",
"                                      ................  ... .                ...                                                ",
"                                      . ............ .   ....                ...                                                ",
"                                      . ..............                       ...                                                ",
"                                      . .  ........                          ...                                                ",
"                                      ...  .......                          ....                                                ",
"                                      ..    .. ....                         . ..                                                ",
"                                      ..        ...                         . ..                                                ",
"                                                 ...                        . ..                                                ",
"                                                  ..                        . ..                                                ",
"                                                  ..                        . .                                                 ",
"                                                   ..                       . .                                                 ",
"                                                   ..                       . .                                                 ",
"                                                   ...                      . .                                                 ",
"                                                    ..                      ..                                                  ",
"                                                     .                     ...                                                  ",
"                                                     ..                    . .                                                  ",
"                                                     ..                    . .                                                  ",
"                                                     ..                   .. .                                                  ",
"                                                      .                   . .                                                   ",
"                                                      ..                  . .                                                   ",
"                                                      ..                  . .                                                   ",
"                                                      . .                 . .                                                   ",
"                                                      . .                 ..                                                    ",
"                                                      .. .                ..                                                    ",
"                                                       . .               ...                                                    ",
"                                                       . .               ..                                                     ",
"                                                       . .              ...                                                     ",
"                                                       . .             ...                                                      ",
"                                                        . .           ....                                                      ",
"                                                        . .           ...                                                       ",
"                                                        . .          ...                                                        ",
"                                                        ...         ...                                                         ",
"                                                         ..        ....                                                         ",
"                                                         ...      .. .                                                          ",
"                                                         ...      . ..                                                          ",
"                                                         ...     . ..                                                           ",
"                                                         ...    ....                                                            ",
"                                                         ...   ....                                                             ",
"                                                         . .  .. .                                                              ",
"                                                        .. .  . ..                                                              ",
"                                                        .. . .. ..                                                              ",
"                                                        .. . . ..                                                               ",
"                                                       ....... ..                                                               ",
"                                                       ... ..  ...                                                              "
};
