/* XPM */
static char *_1dc0adf2bef4a299f8818a597b1382825R0MEYTjfkBr9C9[] = {
/* columns rows colors chars-per-pixel */
"128 128 2 1 ",
"  c #455A64",
". c #607D8B",
/* pixels */
"................................................................................................................................",
"................................................................................................................................",
"................................................................................................................................",
"................................................................................................................................",
"................................................................................................................................",
"................................................................................................................................",
"................................................................................................................................",
"................................................................................................................................",
"................................................................................................................................",
"................................................................................................................................",
"................................................................................................................................",
"..........................       ...............................................................................................",
".......................... .....  ..............................................................................................",
"......................... .......  .............................................................................................",
"........................  ........ .............................................................................................",
"........................ .......... ..................................................     .....................................",
"....................... ...........  ...............................................   ...   ...................................",
"...................... ............. ............................................... .......  ..................................",
"...................... .............. .............................................  ........  .................................",
"..................... ............... ....................... ..................... ..........  ................................",
"..................... ...............  .....................   ...................  ...........   ..............................",
".................... ................. .....................   ...................  .............  .............................",
"...................  ................. ....................    ...................  ..............   ...........................",
"..................  .................. ....................     .................  .................   .........................",
".................  .................... ..................      ................. ....................  ........................",
"................. ..................... ..................      ................. .....................  .......................",
"................ ....................... .................  .    ................ ......................  ......................",
"...............  ....................... .................       ................ .......................  .....................",
"..............  ........................  ................       ................ ........................  ....................",
".............  .......................... ...............   .    ................ .........................  ...................",
"............. ...........................  .............. . . .   ..............  ..........................  ..................",
"............ ............................. ..............   . .   ..............  ...........................  .................",
"........... .............................. ..............  ..     .............. ............................. .................",
"..........  .....  .......................  ............ . ..     .............  .............................  ................",
".........  ..      ........................  ........... . ..     ............. ............................... ................",
"........  .   ..... .........      .........  .......... . ..      ...........  .............           .....   ................",
".......     .......  ......   .....     ....  ......... .. . .   . ...........  ...........   . .......       ..................",
"......  .............       ...........  .... ......... .  . . .   ........... .........    .  . ...............................",
"...... .................. . ............    .  .......  . .. . ..   .........  ...      ......   ...............................",
".........................   ...............    ....... .  .. . ..   .........      ............ . ..............................",
".........................  ..........................  . ... . ...  ........    ...............   ..............................",
"........................   .......................... .  .. .. ... . .......  ..................   .............................",
"........................   ......................... .. ... .. ...   ...........................   .............................",
"........................  .......................... . .... .. ....   ...........................   ............................",
".......................   ......................... .  .... .. ....    .......................... . ............................",
"....................... . ......................... . ..... ..  ...     ......................... .  ...........................",
".......................  .........................  . ..     .. ...     ......................... .. ...........................",
".......................  ......................... . ... ..   .  ...     ........................ .. ...........................",
".......................  ........................  . .. ....      ..      ........................ . ...........................",
".......................  ........................ .  .  .....      .       ....................... . ...........................",
".......................  ........................ . .. ......         .     ...................... . ...........................",
"......................   ........................ . .  ....... . .......    ......................   ...........................",
"......................   .......................  ..  ........ . .........  ......................   ...........................",
"......................  ........................ ..  .........   .................................   ...........................",
"......................  .........................   ...........  .................................   ...........................",
"......................  .......................................  .................................   ...........................",
"......................  ....................................... . ................................   ...........................",
"......................  ....................................... . ...............................   ............................",
"......................  .......................................   ...............................   ............................",
".....................   ........................................   .............................    ............................",
".....................   ........................................ . .............................    ............................",
".....................  .........................................   ............................  . .............................",
".....................  ..........................................  ............     ........... .  .............................",
".....................  ..........................................   ..........  .  .   .......    ..............................",
".....................  .......................................... . .......... .    ..  .....    ...............................",
".....................  ..........................................   ......... .  .   ..  ...    ................................",
".....................  ...........................................  .........  . ...  ..  ..   .................................",
".....................  ...........................................  .........  .  ...  ..      .................................",
".....................  ...........................................  ........    . ..... ..    ..................................",
".....................  ...........................................  ........  . . ......  ..   .................................",
".....................  .......................................... . ........  . . ... ...  ...    ..............................",
".....................  .......................................... . .......  .  . ... ....  .....  .............................",
"..................... ........................................... . .......  . .. ...  ....  .....  ............................",
"..................... ........................................... . ......  .. ..  ... ...... .....  ...........................",
"..................... ...........................................   ......  .. ... ...  ......  ....  ..........................",
"....................  ...........................................  ......  ... ... ....   .....   ... ..........................",
"....................  ..........................................   ......  .. .... ......  ......  ..  .........................",
"....................  .......................................... . .....  ... ..... ...... ....... ... .........................",
"....................  ..........................................   ....  .... .....  ....... ......... .........................",
"....................  .........................................   .....  .... ......  ....    ..    .. .........................",
"....................  ......................................... . ....  ..... ....... ....    .. ...   .........................",
"....................  ........................................   ....   ...   ...  ... ...  ..   ...............................",
"....................  .......................................    ...   ...    ..  .  .....  ....................................",
"....................  ......................................    .... . ..  .. ..  .    ..    ...................................",
"....................  .....................................     ....    . ....   .           ...................................",
"....................  ....................................   . ....... . .........   ..  ..   ..................................",
"....................  ...................................   . ........   ........    .......  ..................................",
"....................  .................................    . .........  .........   .........  .................................",
"..................... ...............................     . ....................   ..........   ................................",
".....................  .............................    .  .....................   ...........  ................................",
".....................  ............................    .. ......................  ............  ................................",
".....................  ........................... .  .. ......................   ............   ...............................",
"......................  .........................    .   ......................   .............  ...............................",
"......................  .........................   .. ........................  ..............  ...............................",
"......................  ........................ . .. ........................   ..............   ..............................",
".......................  .......................  .. .........................   ...............  ..............................",
".......................  ...................... . .  .........................  ................  ..............................",
"........................ ......................     ..........................  ................   .............................",
"........................  .................... . . ..........................   .................  .............................",
".........................  ...................     ..........................  ..................  .............................",
".........................  ...................  . ...........................  ..................  .............................",
"..........................  ..................    ...........................  ..................  .............................",
"..........................   ................. .  ...........................  ..................  .............................",
"...........................   ................ .  ...........................  ..................  .............................",
"............................   ............... .  ...........................  ..................  .............................",
".............................  ............... ..  ..........................  ..................  .............................",
".............................   ..............  .  ..........................  ..................  .............................",
"..............................  ...............     .........................  ...................  ............................",
"..............................   ...............    ........................   ...................  ............................",
"............................... . ...............    .......................   ...................  ............................",
"...............................    .............. .   .....................    ..................   ............................",
"................................ . ...............    ..................... . ...................  .............................",
".................................   ..............     ................... .  ..................   .............................",
".................................    .............. .  ................... . ................... . .............................",
".................................. . .............. .  .................. .  ...................   .............................",
"..................................  . ............. .  .................    ...................   ..............................",
"...................................  . .............   ................  . ...................    ..............................",
"....................................    ............   ................ .  ...................   ...............................",
".....................................    ...........   ............... .. ...................  . ...............................",
"...................................... . ..........    ..............  .  ...................   ................................",
"....................................... . ......... .   ............. .  ...................    ................................",
"........................................ . ........     ............ .  ....................   .................................",
"........................................  . .......     ............ . ....................   ..................................",
"......................................... .  .....      ........... .  ...................    ..................................",
".......................................... .  ....      ........... . ....................   ...................................",
"..........................................  . ....     ............ . ...................    ...................................",
"........................................... .  ..      ........... .. ..................    ....................................",
"...........................................  . ..      ........... ..  ................    ....................................."
};
