/* XPM */
static char *a914c456a8ce4d44ce4c6546225ebb1dpXxS9vC4DpLsPB0d[] = {
/* columns rows colors chars-per-pixel */
"64 64 2 1 ",
"  c #9490FF",
". c #C2B4FF",
/* pixels */
"                                                                ",
"                                                                ",
"                                                                ",
"   ..........................................................   ",
"   ..........................................................   ",
"   ..                                                      ..   ",
"   .. .................................................... ..   ",
"   .. .................................................... ..   ",
"   .. ..                                                .. ..   ",
"   .. .. .............................................. .. ..   ",
"   .. .. .............................................. .. ..   ",
"   .. .. ..                                          .. .. ..   ",
"   .. .. .. ........................................ .. .. ..   ",
"   .. .. .. ................... .................... .. .. ..   ",
"   .. .. .. ........................................ .. .. ..   ",
"   .. .. .. ................... .................... .. .. ..   ",
"   .. .. .. ................... .................... .. .. ..   ",
"   .. .. .. ...................  ................... .. .. ..   ",
"   .. .. .. ..................   ................... .. .. ..   ",
"   .. .. .. ..................    .................. .. .. ..   ",
"   .. .. .. .................  .  .................. .. .. ..   ",
"   .. .. .. ................. ..   ................. .. .. ..   ",
"   .. .. .. ................  ...  ................. .. .. ..   ",
"   .. .. .. ...............  ....   ................ .. .. ..   ",
"   .. .. .. ..............  ......  ................ .. .. ..   ",
"   .. .. .. .............  .......   ............... .. .. ..   ",
"   .. .. .. ............  .........   .............. .. .. ..   ",
"   .. .. .. .........   .............   ............ .. .. ..   ",
"   .. .. .. ........   ...............     ......... .. .. ..   ",
"   .. .. .. .......   ...................     ...... .. .. ..   ",
"   .. .. .. ...     ........................    .... .. .. ..   ",
"   .. .. .. ....   ..........................    ... .. .. ..   ",
"   .. .. .. ......   .......................   ..... .. .. ..   ",
"   .. .. .. ........   ...................   ....... .. .. ..   ",
"   .. .. .. .......... ..................  ......... .. .. ..   ",
"   .. .. .. ..........  ...............  ........... .. .. ..   ",
"   .. .. .. ........... ..............  ............ .. .. ..   ",
"   .. .. .. ...........  ...........  .............. .. .. ..   ",
"   .. .. .. ............ ..........  ............... .. .. ..   ",
"   .. .. .. ............  ......... ................ .. .. ..   ",
"   .. .. .. ............. ........ ................. .. .. ..   ",
"   .. .. .. ............. ........ ................. .. .. ..   ",
"   .. .. .. .............. ......  ................. .. .. ..   ",
"   .. .. .. .............. ...... .................. .. .. ..   ",
"   .. .. .. ............... ..... .................. .. .. ..   ",
"   .. .. .. ...............  .... .................. .. .. ..   ",
"   .. .. .. ................ ...  .................. .. .. ..   ",
"   .. .. .. ................. .. ................... .. .. ..   ",
"   .. .. .. .................  . ................... .. .. ..   ",
"   .. .. .. ..................  .................... .. .. ..   ",
"   .. .. .. ..................  .................... .. .. ..   ",
"   .. .. .. ................... .................... .. .. ..   ",
"   .. .. ..                                          .. .. ..   ",
"   .. .. .............................................. .. ..   ",
"   .. .. .............................................. .. ..   ",
"   .. ..                                                .. ..   ",
"   .. .................................................... ..   ",
"   .. .................................................... ..   ",
"   ..                                                      ..   ",
"   ..........................................................   ",
"   ..........................................................   ",
"                                                                ",
" .............................................................. ",
"                                                                "
};
